<?xml version="1.0" encoding="utf-8"?>
<svg xmlns="http://www.w3.org/2000/svg" xmlns:xlink="http://www.w3.org/1999/xlink" width="576" height="384" viewBox="0 0 2304 1536">
<defs>
  <clipPath id="clip3300">
    <rect x="0" y="0" width="2000" height="2000"/>
  </clipPath>
</defs>
<defs>
  <clipPath id="clip3301">
    <rect x="0" y="0" width="2304" height="1536"/>
  </clipPath>
</defs>
<polygon clip-path="url(#clip3301)" points="
0,1536 2304,1536 2304,0 0,0 
  " fill="#ffffff" fill-rule="evenodd" fill-opacity="1"/>
<defs>
  <clipPath id="clip3302">
    <rect x="460" y="0" width="1614" height="1536"/>
  </clipPath>
</defs>
<polygon clip-path="url(#clip3301)" points="
161.394,1439.47 2225.26,1439.47 2225.26,47.2441 161.394,47.2441 
  " fill="#ffffff" fill-rule="evenodd" fill-opacity="1"/>
<defs>
  <clipPath id="clip3303">
    <rect x="161" y="47" width="2065" height="1393"/>
  </clipPath>
</defs>
<polyline clip-path="url(#clip3303)" style="stroke:#000000; stroke-width:2; stroke-opacity:0.1; fill:none" points="
  215.903,1439.47 215.903,47.2441 
  "/>
<polyline clip-path="url(#clip3303)" style="stroke:#000000; stroke-width:2; stroke-opacity:0.1; fill:none" points="
  606.092,1439.47 606.092,47.2441 
  "/>
<polyline clip-path="url(#clip3303)" style="stroke:#000000; stroke-width:2; stroke-opacity:0.1; fill:none" points="
  996.281,1439.47 996.281,47.2441 
  "/>
<polyline clip-path="url(#clip3303)" style="stroke:#000000; stroke-width:2; stroke-opacity:0.1; fill:none" points="
  1386.47,1439.47 1386.47,47.2441 
  "/>
<polyline clip-path="url(#clip3303)" style="stroke:#000000; stroke-width:2; stroke-opacity:0.1; fill:none" points="
  1776.66,1439.47 1776.66,47.2441 
  "/>
<polyline clip-path="url(#clip3303)" style="stroke:#000000; stroke-width:2; stroke-opacity:0.1; fill:none" points="
  2166.85,1439.47 2166.85,47.2441 
  "/>
<polyline clip-path="url(#clip3303)" style="stroke:#000000; stroke-width:2; stroke-opacity:0.1; fill:none" points="
  161.394,1235.94 2225.26,1235.94 
  "/>
<polyline clip-path="url(#clip3303)" style="stroke:#000000; stroke-width:2; stroke-opacity:0.1; fill:none" points="
  161.394,1001.47 2225.26,1001.47 
  "/>
<polyline clip-path="url(#clip3303)" style="stroke:#000000; stroke-width:2; stroke-opacity:0.1; fill:none" points="
  161.394,766.999 2225.26,766.999 
  "/>
<polyline clip-path="url(#clip3303)" style="stroke:#000000; stroke-width:2; stroke-opacity:0.1; fill:none" points="
  161.394,532.527 2225.26,532.527 
  "/>
<polyline clip-path="url(#clip3303)" style="stroke:#000000; stroke-width:2; stroke-opacity:0.1; fill:none" points="
  161.394,298.056 2225.26,298.056 
  "/>
<polyline clip-path="url(#clip3303)" style="stroke:#000000; stroke-width:2; stroke-opacity:0.1; fill:none" points="
  161.394,63.5841 2225.26,63.5841 
  "/>
<polyline clip-path="url(#clip3301)" style="stroke:#000000; stroke-width:4; stroke-opacity:1; fill:none" points="
  161.394,1439.47 2225.26,1439.47 
  "/>
<polyline clip-path="url(#clip3301)" style="stroke:#000000; stroke-width:4; stroke-opacity:1; fill:none" points="
  161.394,1439.47 161.394,47.2441 
  "/>
<polyline clip-path="url(#clip3301)" style="stroke:#000000; stroke-width:4; stroke-opacity:1; fill:none" points="
  215.903,1439.47 215.903,1418.59 
  "/>
<polyline clip-path="url(#clip3301)" style="stroke:#000000; stroke-width:4; stroke-opacity:1; fill:none" points="
  606.092,1439.47 606.092,1418.59 
  "/>
<polyline clip-path="url(#clip3301)" style="stroke:#000000; stroke-width:4; stroke-opacity:1; fill:none" points="
  996.281,1439.47 996.281,1418.59 
  "/>
<polyline clip-path="url(#clip3301)" style="stroke:#000000; stroke-width:4; stroke-opacity:1; fill:none" points="
  1386.47,1439.47 1386.47,1418.59 
  "/>
<polyline clip-path="url(#clip3301)" style="stroke:#000000; stroke-width:4; stroke-opacity:1; fill:none" points="
  1776.66,1439.47 1776.66,1418.59 
  "/>
<polyline clip-path="url(#clip3301)" style="stroke:#000000; stroke-width:4; stroke-opacity:1; fill:none" points="
  2166.85,1439.47 2166.85,1418.59 
  "/>
<polyline clip-path="url(#clip3301)" style="stroke:#000000; stroke-width:4; stroke-opacity:1; fill:none" points="
  161.394,1235.94 192.352,1235.94 
  "/>
<polyline clip-path="url(#clip3301)" style="stroke:#000000; stroke-width:4; stroke-opacity:1; fill:none" points="
  161.394,1001.47 192.352,1001.47 
  "/>
<polyline clip-path="url(#clip3301)" style="stroke:#000000; stroke-width:4; stroke-opacity:1; fill:none" points="
  161.394,766.999 192.352,766.999 
  "/>
<polyline clip-path="url(#clip3301)" style="stroke:#000000; stroke-width:4; stroke-opacity:1; fill:none" points="
  161.394,532.527 192.352,532.527 
  "/>
<polyline clip-path="url(#clip3301)" style="stroke:#000000; stroke-width:4; stroke-opacity:1; fill:none" points="
  161.394,298.056 192.352,298.056 
  "/>
<polyline clip-path="url(#clip3301)" style="stroke:#000000; stroke-width:4; stroke-opacity:1; fill:none" points="
  161.394,63.5841 192.352,63.5841 
  "/>
<g clip-path="url(#clip3301)">
<text style="fill:#000000; fill-opacity:1; font-family:Arial,Helvetica Neue,Helvetica,sans-serif; font-size:48px; text-anchor:middle;" transform="rotate(0, 215.903, 1492.99)" x="215.903" y="1492.99">0</text>
</g>
<g clip-path="url(#clip3301)">
<text style="fill:#000000; fill-opacity:1; font-family:Arial,Helvetica Neue,Helvetica,sans-serif; font-size:48px; text-anchor:middle;" transform="rotate(0, 606.092, 1492.99)" x="606.092" y="1492.99">100</text>
</g>
<g clip-path="url(#clip3301)">
<text style="fill:#000000; fill-opacity:1; font-family:Arial,Helvetica Neue,Helvetica,sans-serif; font-size:48px; text-anchor:middle;" transform="rotate(0, 996.281, 1492.99)" x="996.281" y="1492.99">200</text>
</g>
<g clip-path="url(#clip3301)">
<text style="fill:#000000; fill-opacity:1; font-family:Arial,Helvetica Neue,Helvetica,sans-serif; font-size:48px; text-anchor:middle;" transform="rotate(0, 1386.47, 1492.99)" x="1386.47" y="1492.99">300</text>
</g>
<g clip-path="url(#clip3301)">
<text style="fill:#000000; fill-opacity:1; font-family:Arial,Helvetica Neue,Helvetica,sans-serif; font-size:48px; text-anchor:middle;" transform="rotate(0, 1776.66, 1492.99)" x="1776.66" y="1492.99">400</text>
</g>
<g clip-path="url(#clip3301)">
<text style="fill:#000000; fill-opacity:1; font-family:Arial,Helvetica Neue,Helvetica,sans-serif; font-size:48px; text-anchor:middle;" transform="rotate(0, 2166.85, 1492.99)" x="2166.85" y="1492.99">500</text>
</g>
<g clip-path="url(#clip3301)">
<text style="fill:#000000; fill-opacity:1; font-family:Arial,Helvetica Neue,Helvetica,sans-serif; font-size:48px; text-anchor:end;" transform="rotate(0, 138.354, 1253.44)" x="138.354" y="1253.44">0.1</text>
</g>
<g clip-path="url(#clip3301)">
<text style="fill:#000000; fill-opacity:1; font-family:Arial,Helvetica Neue,Helvetica,sans-serif; font-size:48px; text-anchor:end;" transform="rotate(0, 138.354, 1018.97)" x="138.354" y="1018.97">0.2</text>
</g>
<g clip-path="url(#clip3301)">
<text style="fill:#000000; fill-opacity:1; font-family:Arial,Helvetica Neue,Helvetica,sans-serif; font-size:48px; text-anchor:end;" transform="rotate(0, 138.354, 784.499)" x="138.354" y="784.499">0.3</text>
</g>
<g clip-path="url(#clip3301)">
<text style="fill:#000000; fill-opacity:1; font-family:Arial,Helvetica Neue,Helvetica,sans-serif; font-size:48px; text-anchor:end;" transform="rotate(0, 138.354, 550.027)" x="138.354" y="550.027">0.4</text>
</g>
<g clip-path="url(#clip3301)">
<text style="fill:#000000; fill-opacity:1; font-family:Arial,Helvetica Neue,Helvetica,sans-serif; font-size:48px; text-anchor:end;" transform="rotate(0, 138.354, 315.556)" x="138.354" y="315.556">0.5</text>
</g>
<g clip-path="url(#clip3301)">
<text style="fill:#000000; fill-opacity:1; font-family:Arial,Helvetica Neue,Helvetica,sans-serif; font-size:48px; text-anchor:end;" transform="rotate(0, 138.354, 81.0841)" x="138.354" y="81.0841">0.6</text>
</g>
<polyline clip-path="url(#clip3303)" style="stroke:#009af9; stroke-width:4; stroke-opacity:1; fill:none" points="
  219.805,1400.07 223.707,509.464 227.609,504.955 231.511,500.554 235.413,496.257 239.315,492.063 243.217,487.966 247.119,483.965 251.02,480.057 254.922,476.24 
  258.824,472.509 262.726,468.864 266.628,465.301 270.53,461.818 274.432,458.414 278.334,455.086 282.236,451.832 286.137,448.65 290.039,445.538 293.941,442.494 
  297.843,439.517 301.745,436.605 305.647,433.757 309.549,430.97 313.451,428.243 317.353,425.575 321.254,422.964 325.156,420.409 329.058,417.909 332.96,415.461 
  336.862,413.066 340.764,410.722 344.666,408.427 348.568,406.18 352.47,403.981 356.371,401.828 360.273,399.72 364.175,397.656 368.077,395.636 371.979,393.657 
  375.881,391.72 379.783,389.823 383.685,387.965 387.587,386.146 391.489,384.364 395.39,382.619 399.292,380.911 403.194,379.237 407.096,377.598 410.998,375.992 
  414.9,374.42 418.802,372.88 422.704,371.371 426.606,369.894 430.507,368.446 434.409,367.028 438.311,365.639 442.213,364.279 446.115,362.946 450.017,361.64 
  453.919,360.361 457.821,359.108 461.723,357.88 465.624,356.678 469.526,355.499 473.428,354.345 477.33,353.214 481.232,352.106 485.134,351.02 489.036,349.957 
  492.938,348.915 496.84,347.894 500.741,346.893 504.643,345.913 508.545,344.953 512.447,344.012 516.349,343.09 520.251,342.187 524.153,341.302 528.055,340.435 
  531.957,339.585 535.858,338.752 539.76,337.936 543.662,337.137 547.564,336.353 551.466,335.586 555.368,334.834 559.27,334.097 563.172,333.375 567.074,332.667 
  570.975,331.973 574.877,331.294 578.779,330.628 582.681,329.976 586.583,329.336 590.485,328.71 594.387,328.096 598.289,327.494 602.191,326.905 606.092,326.327 
  609.994,325.761 613.896,325.206 617.798,324.663 621.7,324.13 625.602,323.608 629.504,323.097 633.406,322.595 637.308,322.104 641.209,321.623 645.111,321.151 
  649.013,320.689 652.915,320.236 656.817,319.792 660.719,319.357 664.621,318.931 668.523,318.513 672.425,318.103 676.326,317.702 680.228,317.309 684.13,316.924 
  688.032,316.546 691.934,316.176 695.836,315.814 699.738,315.458 703.64,315.11 707.542,314.769 711.444,314.434 715.345,314.107 719.247,313.786 723.149,313.471 
  727.051,313.162 730.953,312.86 734.855,312.564 738.757,312.274 742.659,311.989 746.561,311.711 750.462,311.437 754.364,311.17 758.266,310.907 762.168,310.65 
  766.07,310.398 769.972,310.151 773.874,309.909 777.776,309.672 781.678,309.44 785.579,309.212 789.481,308.989 793.383,308.77 797.285,308.556 801.187,308.346 
  805.089,308.14 808.991,307.938 812.893,307.741 816.795,307.547 820.696,307.357 824.598,307.171 828.5,306.989 832.402,306.81 836.304,306.635 840.206,306.463 
  844.108,306.295 848.01,306.13 851.912,305.969 855.813,305.811 859.715,305.655 863.617,305.503 867.519,305.355 871.421,305.209 875.323,305.065 879.225,304.925 
  883.127,304.788 887.029,304.653 890.93,304.521 894.832,304.392 898.734,304.265 902.636,304.141 906.538,304.019 910.44,303.9 914.342,303.783 918.244,303.669 
  922.146,303.556 926.047,303.446 929.949,303.338 933.851,303.233 937.753,303.129 941.655,303.028 945.557,302.928 949.459,302.831 953.361,302.735 957.263,302.642 
  961.164,302.55 965.066,302.46 968.968,302.372 972.87,302.286 976.772,302.201 980.674,302.118 984.576,302.037 988.478,301.957 992.38,301.879 996.281,301.803 
  1000.18,301.728 1004.09,301.654 1007.99,301.582 1011.89,301.512 1015.79,301.443 1019.69,301.375 1023.59,301.309 1027.5,301.244 1031.4,301.18 1035.3,301.117 
  1039.2,301.056 1043.1,300.996 1047.01,300.937 1050.91,300.88 1054.81,300.823 1058.71,300.768 1062.61,300.714 1066.52,300.66 1070.42,300.608 1074.32,300.557 
  1078.22,300.507 1082.12,300.458 1086.02,300.41 1089.93,300.363 1093.83,300.317 1097.73,300.272 1101.63,300.227 1105.53,300.184 1109.44,300.141 1113.34,300.1 
  1117.24,300.059 1121.14,300.019 1125.04,299.979 1128.95,299.941 1132.85,299.903 1136.75,299.866 1140.65,299.83 1144.55,299.795 1148.46,299.76 1152.36,299.726 
  1156.26,299.692 1160.16,299.66 1164.06,299.628 1167.96,299.596 1171.87,299.565 1175.77,299.535 1179.67,299.505 1183.57,299.476 1187.47,299.448 1191.38,299.42 
  1195.28,299.393 1199.18,299.366 1203.08,299.34 1206.98,299.314 1210.89,299.289 1214.79,299.264 1218.69,299.24 1222.59,299.217 1226.49,299.193 1230.39,299.171 
  1234.3,299.148 1238.2,299.126 1242.1,299.105 1246,299.084 1249.9,299.063 1253.81,299.043 1257.71,299.024 1261.61,299.004 1265.51,298.985 1269.41,298.967 
  1273.32,298.948 1277.22,298.931 1281.12,298.913 1285.02,298.896 1288.92,298.879 1292.83,298.863 1296.73,298.847 1300.63,298.831 1304.53,298.815 1308.43,298.8 
  1312.33,298.785 1316.24,298.771 1320.14,298.756 1324.04,298.742 1327.94,298.728 1331.84,298.715 1335.75,298.702 1339.65,298.689 1343.55,298.676 1347.45,298.664 
  1351.35,298.652 1355.26,298.64 1359.16,298.628 1363.06,298.617 1366.96,298.605 1370.86,298.594 1374.76,298.584 1378.67,298.573 1382.57,298.563 1386.47,298.553 
  1390.37,298.543 1394.27,298.533 1398.18,298.523 1402.08,298.514 1405.98,298.505 1409.88,298.496 1413.78,298.487 1417.69,298.478 1421.59,298.47 1425.49,298.462 
  1429.39,298.454 1433.29,298.446 1437.2,298.438 1441.1,298.43 1445,298.423 1448.9,298.415 1452.8,298.408 1456.7,298.401 1460.61,298.394 1464.51,298.387 
  1468.41,298.381 1472.31,298.374 1476.21,298.368 1480.12,298.362 1484.02,298.356 1487.92,298.35 1491.82,298.344 1495.72,298.338 1499.63,298.332 1503.53,298.327 
  1507.43,298.321 1511.33,298.316 1515.23,298.311 1519.13,298.306 1523.04,298.301 1526.94,298.296 1530.84,298.291 1534.74,298.286 1538.64,298.282 1542.55,298.277 
  1546.45,298.273 1550.35,298.268 1554.25,298.264 1558.15,298.26 1562.06,298.256 1565.96,298.252 1569.86,298.248 1573.76,298.244 1577.66,298.24 1581.57,298.237 
  1585.47,298.233 1589.37,298.229 1593.27,298.226 1597.17,298.223 1601.07,298.219 1604.98,298.216 1608.88,298.213 1612.78,298.21 1616.68,298.207 1620.58,298.204 
  1624.49,298.201 1628.39,298.198 1632.29,298.195 1636.19,298.192 1640.09,298.189 1644,298.187 1647.9,298.184 1651.8,298.181 1655.7,298.179 1659.6,298.176 
  1663.5,298.174 1667.41,298.172 1671.31,298.169 1675.21,298.167 1679.11,298.165 1683.01,298.163 1686.92,298.161 1690.82,298.158 1694.72,298.156 1698.62,298.154 
  1702.52,298.152 1706.43,298.15 1710.33,298.149 1714.23,298.147 1718.13,298.145 1722.03,298.143 1725.93,298.141 1729.84,298.14 1733.74,298.138 1737.64,298.136 
  1741.54,298.135 1745.44,298.133 1749.35,298.132 1753.25,298.13 1757.15,298.129 1761.05,298.127 1764.95,298.126 1768.86,298.124 1772.76,298.123 1776.66,298.122 
  1780.56,298.12 1784.46,298.119 1788.37,298.118 1792.27,298.116 1796.17,298.115 1800.07,298.114 1803.97,298.113 1807.87,298.112 1811.78,298.111 1815.68,298.109 
  1819.58,298.108 1823.48,298.107 1827.38,298.106 1831.29,298.105 1835.19,298.104 1839.09,298.103 1842.99,298.102 1846.89,298.101 1850.8,298.101 1854.7,298.1 
  1858.6,298.099 1862.5,298.098 1866.4,298.097 1870.3,298.096 1874.21,298.095 1878.11,298.095 1882.01,298.094 1885.91,298.093 1889.81,298.092 1893.72,298.092 
  1897.62,298.091 1901.52,298.09 1905.42,298.089 1909.32,298.089 1913.23,298.088 1917.13,298.087 1921.03,298.087 1924.93,298.086 1928.83,298.086 1932.74,298.085 
  1936.64,298.084 1940.54,298.084 1944.44,298.083 1948.34,298.083 1952.24,298.082 1956.15,298.082 1960.05,298.081 1963.95,298.081 1967.85,298.08 1971.75,298.08 
  1975.66,298.079 1979.56,298.079 1983.46,298.078 1987.36,298.078 1991.26,298.077 1995.17,298.077 1999.07,298.076 2002.97,298.076 2006.87,298.076 2010.77,298.075 
  2014.67,298.075 2018.58,298.074 2022.48,298.074 2026.38,298.074 2030.28,298.073 2034.18,298.073 2038.09,298.073 2041.99,298.072 2045.89,298.072 2049.79,298.072 
  2053.69,298.071 2057.6,298.071 2061.5,298.071 2065.4,298.07 2069.3,298.07 2073.2,298.07 2077.11,298.07 2081.01,298.069 2084.91,298.069 2088.81,298.069 
  2092.71,298.068 2096.61,298.068 2100.52,298.068 2104.42,298.068 2108.32,298.067 2112.22,298.067 2116.12,298.067 2120.03,298.067 2123.93,298.067 2127.83,298.066 
  2131.73,298.066 2135.63,298.066 2139.54,298.066 2143.44,298.065 2147.34,298.065 2151.24,298.065 2155.14,298.065 2159.04,298.065 2162.95,298.065 2166.85,298.064 
  
  "/>
<polyline clip-path="url(#clip3303)" style="stroke:#e26f46; stroke-width:4; stroke-opacity:1; fill:none" points="
  219.805,1353.18 223.707,86.6468 227.609,91.1562 231.511,95.5574 235.413,99.8538 239.315,104.049 243.217,108.145 247.119,112.146 251.02,116.054 254.922,119.872 
  258.824,123.602 262.726,127.248 266.628,130.81 270.53,134.293 274.432,137.697 278.334,141.025 282.236,144.279 286.137,147.462 290.039,150.573 293.941,153.617 
  297.843,156.594 301.745,159.506 305.647,162.355 309.549,165.142 313.451,167.868 317.353,170.536 321.254,173.147 325.156,175.702 329.058,178.203 332.96,180.65 
  336.862,183.045 340.764,185.389 344.666,187.684 348.568,189.931 352.47,192.13 356.371,194.283 360.273,196.391 364.175,198.455 368.077,200.475 371.979,202.454 
  375.881,204.391 379.783,206.289 383.685,208.146 387.587,209.966 391.489,211.747 395.39,213.492 399.292,215.201 403.194,216.874 407.096,218.513 410.998,220.119 
  414.9,221.691 418.802,223.231 422.704,224.74 426.606,226.218 430.507,227.665 434.409,229.083 438.311,230.472 442.213,231.833 446.115,233.165 450.017,234.471 
  453.919,235.75 457.821,237.003 461.723,238.231 465.624,239.434 469.526,240.612 473.428,241.766 477.33,242.897 481.232,244.005 485.134,245.091 489.036,246.154 
  492.938,247.196 496.84,248.217 500.741,249.218 504.643,250.198 508.545,251.158 512.447,252.099 516.349,253.021 520.251,253.924 524.153,254.81 528.055,255.677 
  531.957,256.527 535.858,257.359 539.76,258.175 543.662,258.974 547.564,259.758 551.466,260.525 555.368,261.278 559.27,262.015 563.172,262.737 567.074,263.444 
  570.975,264.138 574.877,264.817 578.779,265.483 582.681,266.136 586.583,266.775 590.485,267.401 594.387,268.015 598.289,268.617 602.191,269.206 606.092,269.784 
  609.994,270.35 613.896,270.905 617.798,271.448 621.7,271.981 625.602,272.503 629.504,273.015 633.406,273.516 637.308,274.007 641.209,274.489 645.111,274.96 
  649.013,275.423 652.915,275.876 656.817,276.319 660.719,276.754 664.621,277.181 668.523,277.599 672.425,278.008 676.326,278.409 680.228,278.802 684.13,279.188 
  688.032,279.565 691.934,279.935 695.836,280.298 699.738,280.653 703.64,281.001 707.542,281.342 711.444,281.677 715.345,282.005 719.247,282.326 723.149,282.64 
  727.051,282.949 730.953,283.251 734.855,283.547 738.757,283.837 742.659,284.122 746.561,284.401 750.462,284.674 754.364,284.942 758.266,285.204 762.168,285.461 
  766.07,285.713 769.972,285.96 773.874,286.202 777.776,286.439 781.678,286.671 785.579,286.899 789.481,287.122 793.383,287.341 797.285,287.555 801.187,287.765 
  805.089,287.971 808.991,288.173 812.893,288.371 816.795,288.564 820.696,288.754 824.598,288.94 828.5,289.122 832.402,289.301 836.304,289.476 840.206,289.648 
  844.108,289.816 848.01,289.981 851.912,290.142 855.813,290.301 859.715,290.456 863.617,290.608 867.519,290.757 871.421,290.903 875.323,291.046 879.225,291.186 
  883.127,291.323 887.029,291.458 890.93,291.59 894.832,291.719 898.734,291.846 902.636,291.97 906.538,292.092 910.44,292.211 914.342,292.328 918.244,292.443 
  922.146,292.555 926.047,292.665 929.949,292.773 933.851,292.878 937.753,292.982 941.655,293.084 945.557,293.183 949.459,293.28 953.361,293.376 957.263,293.47 
  961.164,293.561 965.066,293.651 968.968,293.739 972.87,293.826 976.772,293.91 980.674,293.993 984.576,294.074 988.478,294.154 992.38,294.232 996.281,294.308 
  1000.18,294.383 1004.09,294.457 1007.99,294.529 1011.89,294.599 1015.79,294.668 1019.69,294.736 1023.59,294.803 1027.5,294.868 1031.4,294.931 1035.3,294.994 
  1039.2,295.055 1043.1,295.115 1047.01,295.174 1050.91,295.232 1054.81,295.288 1058.71,295.343 1062.61,295.398 1066.52,295.451 1070.42,295.503 1074.32,295.554 
  1078.22,295.604 1082.12,295.653 1086.02,295.701 1089.93,295.748 1093.83,295.794 1097.73,295.84 1101.63,295.884 1105.53,295.927 1109.44,295.97 1113.34,296.012 
  1117.24,296.053 1121.14,296.093 1125.04,296.132 1128.95,296.17 1132.85,296.208 1136.75,296.245 1140.65,296.281 1144.55,296.317 1148.46,296.351 1152.36,296.386 
  1156.26,296.419 1160.16,296.452 1164.06,296.484 1167.96,296.515 1171.87,296.546 1175.77,296.576 1179.67,296.606 1183.57,296.635 1187.47,296.663 1191.38,296.691 
  1195.28,296.718 1199.18,296.745 1203.08,296.771 1206.98,296.797 1210.89,296.822 1214.79,296.847 1218.69,296.871 1222.59,296.895 1226.49,296.918 1230.39,296.941 
  1234.3,296.963 1238.2,296.985 1242.1,297.006 1246,297.027 1249.9,297.048 1253.81,297.068 1257.71,297.088 1261.61,297.107 1265.51,297.126 1269.41,297.145 
  1273.32,297.163 1277.22,297.181 1281.12,297.198 1285.02,297.215 1288.92,297.232 1292.83,297.249 1296.73,297.265 1300.63,297.281 1304.53,297.296 1308.43,297.311 
  1312.33,297.326 1316.24,297.341 1320.14,297.355 1324.04,297.369 1327.94,297.383 1331.84,297.396 1335.75,297.409 1339.65,297.422 1343.55,297.435 1347.45,297.447 
  1351.35,297.46 1355.26,297.472 1359.16,297.483 1363.06,297.495 1366.96,297.506 1370.86,297.517 1374.76,297.528 1378.67,297.538 1382.57,297.549 1386.47,297.559 
  1390.37,297.569 1394.27,297.578 1398.18,297.588 1402.08,297.597 1405.98,297.606 1409.88,297.615 1413.78,297.624 1417.69,297.633 1421.59,297.641 1425.49,297.65 
  1429.39,297.658 1433.29,297.666 1437.2,297.673 1441.1,297.681 1445,297.689 1448.9,297.696 1452.8,297.703 1456.7,297.71 1460.61,297.717 1464.51,297.724 
  1468.41,297.731 1472.31,297.737 1476.21,297.743 1480.12,297.75 1484.02,297.756 1487.92,297.762 1491.82,297.768 1495.72,297.773 1499.63,297.779 1503.53,297.785 
  1507.43,297.79 1511.33,297.795 1515.23,297.8 1519.13,297.806 1523.04,297.811 1526.94,297.816 1530.84,297.82 1534.74,297.825 1538.64,297.83 1542.55,297.834 
  1546.45,297.839 1550.35,297.843 1554.25,297.847 1558.15,297.851 1562.06,297.855 1565.96,297.859 1569.86,297.863 1573.76,297.867 1577.66,297.871 1581.57,297.875 
  1585.47,297.878 1589.37,297.882 1593.27,297.885 1597.17,297.889 1601.07,297.892 1604.98,297.895 1608.88,297.899 1612.78,297.902 1616.68,297.905 1620.58,297.908 
  1624.49,297.911 1628.39,297.914 1632.29,297.916 1636.19,297.919 1640.09,297.922 1644,297.925 1647.9,297.927 1651.8,297.93 1655.7,297.932 1659.6,297.935 
  1663.5,297.937 1667.41,297.94 1671.31,297.942 1675.21,297.944 1679.11,297.946 1683.01,297.949 1686.92,297.951 1690.82,297.953 1694.72,297.955 1698.62,297.957 
  1702.52,297.959 1706.43,297.961 1710.33,297.963 1714.23,297.965 1718.13,297.966 1722.03,297.968 1725.93,297.97 1729.84,297.972 1733.74,297.973 1737.64,297.975 
  1741.54,297.977 1745.44,297.978 1749.35,297.98 1753.25,297.981 1757.15,297.983 1761.05,297.984 1764.95,297.986 1768.86,297.987 1772.76,297.988 1776.66,297.99 
  1780.56,297.991 1784.46,297.992 1788.37,297.994 1792.27,297.995 1796.17,297.996 1800.07,297.997 1803.97,297.998 1807.87,298 1811.78,298.001 1815.68,298.002 
  1819.58,298.003 1823.48,298.004 1827.38,298.005 1831.29,298.006 1835.19,298.007 1839.09,298.008 1842.99,298.009 1846.89,298.01 1850.8,298.011 1854.7,298.012 
  1858.6,298.013 1862.5,298.013 1866.4,298.014 1870.3,298.015 1874.21,298.016 1878.11,298.017 1882.01,298.017 1885.91,298.018 1889.81,298.019 1893.72,298.02 
  1897.62,298.02 1901.52,298.021 1905.42,298.022 1909.32,298.022 1913.23,298.023 1917.13,298.024 1921.03,298.024 1924.93,298.025 1928.83,298.026 1932.74,298.026 
  1936.64,298.027 1940.54,298.027 1944.44,298.028 1948.34,298.029 1952.24,298.029 1956.15,298.03 1960.05,298.03 1963.95,298.031 1967.85,298.031 1971.75,298.032 
  1975.66,298.032 1979.56,298.033 1983.46,298.033 1987.36,298.033 1991.26,298.034 1995.17,298.034 1999.07,298.035 2002.97,298.035 2006.87,298.036 2010.77,298.036 
  2014.67,298.036 2018.58,298.037 2022.48,298.037 2026.38,298.038 2030.28,298.038 2034.18,298.038 2038.09,298.039 2041.99,298.039 2045.89,298.039 2049.79,298.04 
  2053.69,298.04 2057.6,298.04 2061.5,298.041 2065.4,298.041 2069.3,298.041 2073.2,298.041 2077.11,298.042 2081.01,298.042 2084.91,298.042 2088.81,298.043 
  2092.71,298.043 2096.61,298.043 2100.52,298.043 2104.42,298.044 2108.32,298.044 2112.22,298.044 2116.12,298.044 2120.03,298.044 2123.93,298.045 2127.83,298.045 
  2131.73,298.045 2135.63,298.045 2139.54,298.046 2143.44,298.046 2147.34,298.046 2151.24,298.046 2155.14,298.046 2159.04,298.047 2162.95,298.047 2166.85,298.047 
  
  "/>
<polygon clip-path="url(#clip3301)" points="
1874.91,306.444 2156.14,306.444 2156.14,125.004 1874.91,125.004 
  " fill="#ffffff" fill-rule="evenodd" fill-opacity="1"/>
<polyline clip-path="url(#clip3301)" style="stroke:#000000; stroke-width:4; stroke-opacity:1; fill:none" points="
  1874.91,306.444 2156.14,306.444 2156.14,125.004 1874.91,125.004 1874.91,306.444 
  "/>
<polyline clip-path="url(#clip3301)" style="stroke:#009af9; stroke-width:4; stroke-opacity:1; fill:none" points="
  1897.95,185.484 2036.19,185.484 
  "/>
<g clip-path="url(#clip3301)">
<text style="fill:#000000; fill-opacity:1; font-family:Arial,Helvetica Neue,Helvetica,sans-serif; font-size:48px; text-anchor:start;" transform="rotate(0, 2059.23, 202.984)" x="2059.23" y="202.984">y1</text>
</g>
<polyline clip-path="url(#clip3301)" style="stroke:#e26f46; stroke-width:4; stroke-opacity:1; fill:none" points="
  1897.95,245.964 2036.19,245.964 
  "/>
<g clip-path="url(#clip3301)">
<text style="fill:#000000; fill-opacity:1; font-family:Arial,Helvetica Neue,Helvetica,sans-serif; font-size:48px; text-anchor:start;" transform="rotate(0, 2059.23, 263.464)" x="2059.23" y="263.464">y2</text>
</g>
</svg>
