<?xml version="1.0" encoding="utf-8"?>
<svg xmlns="http://www.w3.org/2000/svg" xmlns:xlink="http://www.w3.org/1999/xlink" width="576" height="384" viewBox="0 0 2304 1536">
<defs>
  <clipPath id="clip3900">
    <rect x="0" y="0" width="2000" height="2000"/>
  </clipPath>
</defs>
<defs>
  <clipPath id="clip3901">
    <rect x="0" y="0" width="2304" height="1536"/>
  </clipPath>
</defs>
<polygon clip-path="url(#clip3901)" points="
0,1536 2304,1536 2304,0 0,0 
  " fill="#ffffff" fill-rule="evenodd" fill-opacity="1"/>
<defs>
  <clipPath id="clip3902">
    <rect x="460" y="0" width="1614" height="1536"/>
  </clipPath>
</defs>
<polygon clip-path="url(#clip3901)" points="
176.123,1439.47 2225.26,1439.47 2225.26,47.2441 176.123,47.2441 
  " fill="#ffffff" fill-rule="evenodd" fill-opacity="1"/>
<defs>
  <clipPath id="clip3903">
    <rect x="176" y="47" width="2050" height="1393"/>
  </clipPath>
</defs>
<polyline clip-path="url(#clip3903)" style="stroke:#000000; stroke-width:2; stroke-opacity:0.1; fill:none" points="
  475.761,1439.47 475.761,47.2441 
  "/>
<polyline clip-path="url(#clip3903)" style="stroke:#000000; stroke-width:2; stroke-opacity:0.1; fill:none" points="
  959.048,1439.47 959.048,47.2441 
  "/>
<polyline clip-path="url(#clip3903)" style="stroke:#000000; stroke-width:2; stroke-opacity:0.1; fill:none" points="
  1442.33,1439.47 1442.33,47.2441 
  "/>
<polyline clip-path="url(#clip3903)" style="stroke:#000000; stroke-width:2; stroke-opacity:0.1; fill:none" points="
  1925.62,1439.47 1925.62,47.2441 
  "/>
<polyline clip-path="url(#clip3903)" style="stroke:#000000; stroke-width:2; stroke-opacity:0.1; fill:none" points="
  176.123,1279.45 2225.26,1279.45 
  "/>
<polyline clip-path="url(#clip3903)" style="stroke:#000000; stroke-width:2; stroke-opacity:0.1; fill:none" points="
  176.123,1011.41 2225.26,1011.41 
  "/>
<polyline clip-path="url(#clip3903)" style="stroke:#000000; stroke-width:2; stroke-opacity:0.1; fill:none" points="
  176.123,743.359 2225.26,743.359 
  "/>
<polyline clip-path="url(#clip3903)" style="stroke:#000000; stroke-width:2; stroke-opacity:0.1; fill:none" points="
  176.123,475.313 2225.26,475.313 
  "/>
<polyline clip-path="url(#clip3903)" style="stroke:#000000; stroke-width:2; stroke-opacity:0.1; fill:none" points="
  176.123,207.268 2225.26,207.268 
  "/>
<polyline clip-path="url(#clip3901)" style="stroke:#000000; stroke-width:4; stroke-opacity:1; fill:none" points="
  176.123,1439.47 2225.26,1439.47 
  "/>
<polyline clip-path="url(#clip3901)" style="stroke:#000000; stroke-width:4; stroke-opacity:1; fill:none" points="
  176.123,1439.47 176.123,47.2441 
  "/>
<polyline clip-path="url(#clip3901)" style="stroke:#000000; stroke-width:4; stroke-opacity:1; fill:none" points="
  475.761,1439.47 475.761,1418.59 
  "/>
<polyline clip-path="url(#clip3901)" style="stroke:#000000; stroke-width:4; stroke-opacity:1; fill:none" points="
  959.048,1439.47 959.048,1418.59 
  "/>
<polyline clip-path="url(#clip3901)" style="stroke:#000000; stroke-width:4; stroke-opacity:1; fill:none" points="
  1442.33,1439.47 1442.33,1418.59 
  "/>
<polyline clip-path="url(#clip3901)" style="stroke:#000000; stroke-width:4; stroke-opacity:1; fill:none" points="
  1925.62,1439.47 1925.62,1418.59 
  "/>
<polyline clip-path="url(#clip3901)" style="stroke:#000000; stroke-width:4; stroke-opacity:1; fill:none" points="
  176.123,1279.45 206.86,1279.45 
  "/>
<polyline clip-path="url(#clip3901)" style="stroke:#000000; stroke-width:4; stroke-opacity:1; fill:none" points="
  176.123,1011.41 206.86,1011.41 
  "/>
<polyline clip-path="url(#clip3901)" style="stroke:#000000; stroke-width:4; stroke-opacity:1; fill:none" points="
  176.123,743.359 206.86,743.359 
  "/>
<polyline clip-path="url(#clip3901)" style="stroke:#000000; stroke-width:4; stroke-opacity:1; fill:none" points="
  176.123,475.313 206.86,475.313 
  "/>
<polyline clip-path="url(#clip3901)" style="stroke:#000000; stroke-width:4; stroke-opacity:1; fill:none" points="
  176.123,207.268 206.86,207.268 
  "/>
<g clip-path="url(#clip3901)">
<text style="fill:#000000; fill-opacity:1; font-family:Arial,Helvetica Neue,Helvetica,sans-serif; font-size:48px; text-anchor:middle;" transform="rotate(0, 475.761, 1492.99)" x="475.761" y="1492.99">0.2</text>
</g>
<g clip-path="url(#clip3901)">
<text style="fill:#000000; fill-opacity:1; font-family:Arial,Helvetica Neue,Helvetica,sans-serif; font-size:48px; text-anchor:middle;" transform="rotate(0, 959.048, 1492.99)" x="959.048" y="1492.99">0.4</text>
</g>
<g clip-path="url(#clip3901)">
<text style="fill:#000000; fill-opacity:1; font-family:Arial,Helvetica Neue,Helvetica,sans-serif; font-size:48px; text-anchor:middle;" transform="rotate(0, 1442.33, 1492.99)" x="1442.33" y="1492.99">0.6</text>
</g>
<g clip-path="url(#clip3901)">
<text style="fill:#000000; fill-opacity:1; font-family:Arial,Helvetica Neue,Helvetica,sans-serif; font-size:48px; text-anchor:middle;" transform="rotate(0, 1925.62, 1492.99)" x="1925.62" y="1492.99">0.8</text>
</g>
<g clip-path="url(#clip3901)">
<text style="fill:#000000; fill-opacity:1; font-family:Arial,Helvetica Neue,Helvetica,sans-serif; font-size:48px; text-anchor:end;" transform="rotate(0, 153.083, 1296.95)" x="153.083" y="1296.95">-40</text>
</g>
<g clip-path="url(#clip3901)">
<text style="fill:#000000; fill-opacity:1; font-family:Arial,Helvetica Neue,Helvetica,sans-serif; font-size:48px; text-anchor:end;" transform="rotate(0, 153.083, 1028.91)" x="153.083" y="1028.91">-20</text>
</g>
<g clip-path="url(#clip3901)">
<text style="fill:#000000; fill-opacity:1; font-family:Arial,Helvetica Neue,Helvetica,sans-serif; font-size:48px; text-anchor:end;" transform="rotate(0, 153.083, 760.859)" x="153.083" y="760.859">0</text>
</g>
<g clip-path="url(#clip3901)">
<text style="fill:#000000; fill-opacity:1; font-family:Arial,Helvetica Neue,Helvetica,sans-serif; font-size:48px; text-anchor:end;" transform="rotate(0, 153.083, 492.813)" x="153.083" y="492.813">20</text>
</g>
<g clip-path="url(#clip3901)">
<text style="fill:#000000; fill-opacity:1; font-family:Arial,Helvetica Neue,Helvetica,sans-serif; font-size:48px; text-anchor:end;" transform="rotate(0, 153.083, 224.768)" x="153.083" y="224.768">40</text>
</g>
<polyline clip-path="url(#clip3903)" style="stroke:#009af9; stroke-width:4; stroke-opacity:1; fill:none" points="
  234.117,1400.07 273.569,1225.17 313.021,1110.77 352.473,1031.88 391.925,975.186 431.377,933.081 470.829,900.958 510.281,875.893 549.733,855.961 589.185,839.85 
  628.637,826.643 668.089,815.681 707.541,806.482 746.993,798.689 786.445,792.028 825.897,786.291 865.349,781.314 904.801,776.968 944.253,773.151 983.705,769.782 
  1023.16,766.791 1062.61,764.125 1102.06,761.739 1141.51,759.594 1180.97,757.659 1220.42,755.907 1259.87,754.317 1299.32,752.868 1338.77,751.545 1378.23,750.334 
  1417.68,749.221 1457.13,748.197 1496.58,747.253 1536.03,746.38 1575.49,745.572 1614.94,744.822 1654.39,744.124 1693.84,743.475 1733.29,742.869 1772.75,742.303 
  1812.2,741.774 1851.65,741.277 1891.1,740.812 1930.55,740.374 1970.01,739.963 2009.46,739.575 2048.91,739.21 2088.36,738.865 2127.81,738.539 2167.27,738.23 
  
  "/>
<polyline clip-path="url(#clip3903)" style="stroke:#e26f46; stroke-width:4; stroke-opacity:1; fill:none" points="
  234.117,748.489 273.569,748.18 313.021,747.854 352.473,747.509 391.925,747.143 431.377,746.756 470.829,746.344 510.281,745.907 549.733,745.441 589.185,744.945 
  628.637,744.416 668.089,743.85 707.541,743.244 746.993,742.595 786.445,741.897 825.897,741.147 865.349,740.339 904.801,739.466 944.253,738.522 983.705,737.498 
  1023.16,736.385 1062.61,735.174 1102.06,733.85 1141.51,732.402 1180.97,730.811 1220.42,729.06 1259.87,727.125 1299.32,724.98 1338.77,722.594 1378.23,719.928 
  1417.68,716.937 1457.13,713.567 1496.58,709.751 1536.03,705.405 1575.49,700.428 1614.94,694.691 1654.39,688.03 1693.84,680.236 1733.29,671.038 1772.75,660.076 
  1812.2,646.869 1851.65,630.758 1891.1,610.826 1930.55,585.761 1970.01,553.638 2009.46,511.533 2048.91,454.839 2088.36,375.946 2127.81,261.549 2167.27,86.6468 
  
  "/>
<polygon clip-path="url(#clip3901)" points="
1519.11,306.444 2156.14,306.444 2156.14,125.004 1519.11,125.004 
  " fill="#ffffff" fill-rule="evenodd" fill-opacity="1"/>
<polyline clip-path="url(#clip3901)" style="stroke:#000000; stroke-width:4; stroke-opacity:1; fill:none" points="
  1519.11,306.444 2156.14,306.444 2156.14,125.004 1519.11,125.004 1519.11,306.444 
  "/>
<polyline clip-path="url(#clip3901)" style="stroke:#009af9; stroke-width:4; stroke-opacity:1; fill:none" points="
  1542.15,185.484 1680.39,185.484 
  "/>
<g clip-path="url(#clip3901)">
<text style="fill:#000000; fill-opacity:1; font-family:Arial,Helvetica Neue,Helvetica,sans-serif; font-size:48px; text-anchor:start;" transform="rotate(0, 1703.43, 202.984)" x="1703.43" y="202.984">Derivada do bem 1</text>
</g>
<polyline clip-path="url(#clip3901)" style="stroke:#e26f46; stroke-width:4; stroke-opacity:1; fill:none" points="
  1542.15,245.964 1680.39,245.964 
  "/>
<g clip-path="url(#clip3901)">
<text style="fill:#000000; fill-opacity:1; font-family:Arial,Helvetica Neue,Helvetica,sans-serif; font-size:48px; text-anchor:start;" transform="rotate(0, 1703.43, 263.464)" x="1703.43" y="263.464">Derivada do bem 2</text>
</g>
</svg>
