<?xml version="1.0" encoding="utf-8"?>
<svg xmlns="http://www.w3.org/2000/svg" xmlns:xlink="http://www.w3.org/1999/xlink" width="576" height="384" viewBox="0 0 2304 1536">
<defs>
  <clipPath id="clip3100">
    <rect x="0" y="0" width="2000" height="2000"/>
  </clipPath>
</defs>
<defs>
  <clipPath id="clip3101">
    <rect x="0" y="0" width="2304" height="1536"/>
  </clipPath>
</defs>
<polygon clip-path="url(#clip3101)" points="
0,1536 2304,1536 2304,0 0,0 
  " fill="#ffffff" fill-rule="evenodd" fill-opacity="1"/>
<defs>
  <clipPath id="clip3102">
    <rect x="460" y="0" width="1614" height="1536"/>
  </clipPath>
</defs>
<polygon clip-path="url(#clip3101)" points="
161.394,1439.47 2225.26,1439.47 2225.26,47.2441 161.394,47.2441 
  " fill="#ffffff" fill-rule="evenodd" fill-opacity="1"/>
<defs>
  <clipPath id="clip3103">
    <rect x="161" y="47" width="2065" height="1393"/>
  </clipPath>
</defs>
<polyline clip-path="url(#clip3103)" style="stroke:#000000; stroke-width:2; stroke-opacity:0.1; fill:none" points="
  215.903,1439.47 215.903,47.2441 
  "/>
<polyline clip-path="url(#clip3103)" style="stroke:#000000; stroke-width:2; stroke-opacity:0.1; fill:none" points="
  606.092,1439.47 606.092,47.2441 
  "/>
<polyline clip-path="url(#clip3103)" style="stroke:#000000; stroke-width:2; stroke-opacity:0.1; fill:none" points="
  996.281,1439.47 996.281,47.2441 
  "/>
<polyline clip-path="url(#clip3103)" style="stroke:#000000; stroke-width:2; stroke-opacity:0.1; fill:none" points="
  1386.47,1439.47 1386.47,47.2441 
  "/>
<polyline clip-path="url(#clip3103)" style="stroke:#000000; stroke-width:2; stroke-opacity:0.1; fill:none" points="
  1776.66,1439.47 1776.66,47.2441 
  "/>
<polyline clip-path="url(#clip3103)" style="stroke:#000000; stroke-width:2; stroke-opacity:0.1; fill:none" points="
  2166.85,1439.47 2166.85,47.2441 
  "/>
<polyline clip-path="url(#clip3103)" style="stroke:#000000; stroke-width:2; stroke-opacity:0.1; fill:none" points="
  161.394,1273.67 2225.26,1273.67 
  "/>
<polyline clip-path="url(#clip3103)" style="stroke:#000000; stroke-width:2; stroke-opacity:0.1; fill:none" points="
  161.394,1075.83 2225.26,1075.83 
  "/>
<polyline clip-path="url(#clip3103)" style="stroke:#000000; stroke-width:2; stroke-opacity:0.1; fill:none" points="
  161.394,877.994 2225.26,877.994 
  "/>
<polyline clip-path="url(#clip3103)" style="stroke:#000000; stroke-width:2; stroke-opacity:0.1; fill:none" points="
  161.394,680.157 2225.26,680.157 
  "/>
<polyline clip-path="url(#clip3103)" style="stroke:#000000; stroke-width:2; stroke-opacity:0.1; fill:none" points="
  161.394,482.32 2225.26,482.32 
  "/>
<polyline clip-path="url(#clip3103)" style="stroke:#000000; stroke-width:2; stroke-opacity:0.1; fill:none" points="
  161.394,284.484 2225.26,284.484 
  "/>
<polyline clip-path="url(#clip3103)" style="stroke:#000000; stroke-width:2; stroke-opacity:0.1; fill:none" points="
  161.394,86.6468 2225.26,86.6468 
  "/>
<polyline clip-path="url(#clip3101)" style="stroke:#000000; stroke-width:4; stroke-opacity:1; fill:none" points="
  161.394,1439.47 2225.26,1439.47 
  "/>
<polyline clip-path="url(#clip3101)" style="stroke:#000000; stroke-width:4; stroke-opacity:1; fill:none" points="
  161.394,1439.47 161.394,47.2441 
  "/>
<polyline clip-path="url(#clip3101)" style="stroke:#000000; stroke-width:4; stroke-opacity:1; fill:none" points="
  215.903,1439.47 215.903,1418.59 
  "/>
<polyline clip-path="url(#clip3101)" style="stroke:#000000; stroke-width:4; stroke-opacity:1; fill:none" points="
  606.092,1439.47 606.092,1418.59 
  "/>
<polyline clip-path="url(#clip3101)" style="stroke:#000000; stroke-width:4; stroke-opacity:1; fill:none" points="
  996.281,1439.47 996.281,1418.59 
  "/>
<polyline clip-path="url(#clip3101)" style="stroke:#000000; stroke-width:4; stroke-opacity:1; fill:none" points="
  1386.47,1439.47 1386.47,1418.59 
  "/>
<polyline clip-path="url(#clip3101)" style="stroke:#000000; stroke-width:4; stroke-opacity:1; fill:none" points="
  1776.66,1439.47 1776.66,1418.59 
  "/>
<polyline clip-path="url(#clip3101)" style="stroke:#000000; stroke-width:4; stroke-opacity:1; fill:none" points="
  2166.85,1439.47 2166.85,1418.59 
  "/>
<polyline clip-path="url(#clip3101)" style="stroke:#000000; stroke-width:4; stroke-opacity:1; fill:none" points="
  161.394,1273.67 192.352,1273.67 
  "/>
<polyline clip-path="url(#clip3101)" style="stroke:#000000; stroke-width:4; stroke-opacity:1; fill:none" points="
  161.394,1075.83 192.352,1075.83 
  "/>
<polyline clip-path="url(#clip3101)" style="stroke:#000000; stroke-width:4; stroke-opacity:1; fill:none" points="
  161.394,877.994 192.352,877.994 
  "/>
<polyline clip-path="url(#clip3101)" style="stroke:#000000; stroke-width:4; stroke-opacity:1; fill:none" points="
  161.394,680.157 192.352,680.157 
  "/>
<polyline clip-path="url(#clip3101)" style="stroke:#000000; stroke-width:4; stroke-opacity:1; fill:none" points="
  161.394,482.32 192.352,482.32 
  "/>
<polyline clip-path="url(#clip3101)" style="stroke:#000000; stroke-width:4; stroke-opacity:1; fill:none" points="
  161.394,284.484 192.352,284.484 
  "/>
<polyline clip-path="url(#clip3101)" style="stroke:#000000; stroke-width:4; stroke-opacity:1; fill:none" points="
  161.394,86.6468 192.352,86.6468 
  "/>
<g clip-path="url(#clip3101)">
<text style="fill:#000000; fill-opacity:1; font-family:Arial,Helvetica Neue,Helvetica,sans-serif; font-size:48px; text-anchor:middle;" transform="rotate(0, 215.903, 1492.99)" x="215.903" y="1492.99">0</text>
</g>
<g clip-path="url(#clip3101)">
<text style="fill:#000000; fill-opacity:1; font-family:Arial,Helvetica Neue,Helvetica,sans-serif; font-size:48px; text-anchor:middle;" transform="rotate(0, 606.092, 1492.99)" x="606.092" y="1492.99">100</text>
</g>
<g clip-path="url(#clip3101)">
<text style="fill:#000000; fill-opacity:1; font-family:Arial,Helvetica Neue,Helvetica,sans-serif; font-size:48px; text-anchor:middle;" transform="rotate(0, 996.281, 1492.99)" x="996.281" y="1492.99">200</text>
</g>
<g clip-path="url(#clip3101)">
<text style="fill:#000000; fill-opacity:1; font-family:Arial,Helvetica Neue,Helvetica,sans-serif; font-size:48px; text-anchor:middle;" transform="rotate(0, 1386.47, 1492.99)" x="1386.47" y="1492.99">300</text>
</g>
<g clip-path="url(#clip3101)">
<text style="fill:#000000; fill-opacity:1; font-family:Arial,Helvetica Neue,Helvetica,sans-serif; font-size:48px; text-anchor:middle;" transform="rotate(0, 1776.66, 1492.99)" x="1776.66" y="1492.99">400</text>
</g>
<g clip-path="url(#clip3101)">
<text style="fill:#000000; fill-opacity:1; font-family:Arial,Helvetica Neue,Helvetica,sans-serif; font-size:48px; text-anchor:middle;" transform="rotate(0, 2166.85, 1492.99)" x="2166.85" y="1492.99">500</text>
</g>
<g clip-path="url(#clip3101)">
<text style="fill:#000000; fill-opacity:1; font-family:Arial,Helvetica Neue,Helvetica,sans-serif; font-size:48px; text-anchor:end;" transform="rotate(0, 138.354, 1291.17)" x="138.354" y="1291.17">0.4</text>
</g>
<g clip-path="url(#clip3101)">
<text style="fill:#000000; fill-opacity:1; font-family:Arial,Helvetica Neue,Helvetica,sans-serif; font-size:48px; text-anchor:end;" transform="rotate(0, 138.354, 1093.33)" x="138.354" y="1093.33">0.5</text>
</g>
<g clip-path="url(#clip3101)">
<text style="fill:#000000; fill-opacity:1; font-family:Arial,Helvetica Neue,Helvetica,sans-serif; font-size:48px; text-anchor:end;" transform="rotate(0, 138.354, 895.494)" x="138.354" y="895.494">0.6</text>
</g>
<g clip-path="url(#clip3101)">
<text style="fill:#000000; fill-opacity:1; font-family:Arial,Helvetica Neue,Helvetica,sans-serif; font-size:48px; text-anchor:end;" transform="rotate(0, 138.354, 697.657)" x="138.354" y="697.657">0.7</text>
</g>
<g clip-path="url(#clip3101)">
<text style="fill:#000000; fill-opacity:1; font-family:Arial,Helvetica Neue,Helvetica,sans-serif; font-size:48px; text-anchor:end;" transform="rotate(0, 138.354, 499.82)" x="138.354" y="499.82">0.8</text>
</g>
<g clip-path="url(#clip3101)">
<text style="fill:#000000; fill-opacity:1; font-family:Arial,Helvetica Neue,Helvetica,sans-serif; font-size:48px; text-anchor:end;" transform="rotate(0, 138.354, 301.984)" x="138.354" y="301.984">0.9</text>
</g>
<g clip-path="url(#clip3101)">
<text style="fill:#000000; fill-opacity:1; font-family:Arial,Helvetica Neue,Helvetica,sans-serif; font-size:48px; text-anchor:end;" transform="rotate(0, 138.354, 104.147)" x="138.354" y="104.147">1.0</text>
</g>
<polyline clip-path="url(#clip3103)" style="stroke:#009af9; stroke-width:4; stroke-opacity:1; fill:none" points="
  219.805,86.6468 223.707,751.589 227.609,759.616 231.511,767.362 235.413,774.844 239.315,782.078 243.217,789.076 247.119,795.851 251.02,802.414 254.922,808.777 
  258.824,814.948 262.726,820.937 266.628,826.751 270.53,832.4 274.432,837.889 278.334,843.226 282.236,848.416 286.137,853.467 290.039,858.382 293.941,863.168 
  297.843,867.829 301.745,872.37 305.647,876.794 309.549,881.107 313.451,885.312 317.353,889.413 321.254,893.413 325.156,897.316 329.058,901.124 332.96,904.841 
  336.862,908.469 340.764,912.011 344.666,915.47 348.568,918.849 352.47,922.149 356.371,925.373 360.273,928.523 364.175,931.602 368.077,934.61 371.979,937.551 
  375.881,940.426 379.783,943.236 383.685,945.984 387.587,948.671 391.489,951.299 395.39,953.869 399.292,956.383 403.194,958.842 407.096,961.247 410.998,963.6 
  414.9,965.903 418.802,968.156 422.704,970.361 426.606,972.518 430.507,974.629 434.409,976.696 438.311,978.718 442.213,980.698 446.115,982.636 450.017,984.533 
  453.919,986.39 457.821,988.208 461.723,989.988 465.624,991.73 469.526,993.436 473.428,995.107 477.33,996.743 481.232,998.345 485.134,999.914 489.036,1001.45 
  492.938,1002.95 496.84,1004.43 500.741,1005.87 504.643,1007.28 508.545,1008.67 512.447,1010.02 516.349,1011.35 520.251,1012.65 524.153,1013.93 528.055,1015.17 
  531.957,1016.4 535.858,1017.59 539.76,1018.77 543.662,1019.91 547.564,1021.04 551.466,1022.14 555.368,1023.22 559.27,1024.28 563.172,1025.32 567.074,1026.33 
  570.975,1027.33 574.877,1028.3 578.779,1029.26 582.681,1030.19 586.583,1031.11 590.485,1032.01 594.387,1032.89 598.289,1033.75 602.191,1034.59 606.092,1035.42 
  609.994,1036.23 613.896,1037.03 617.798,1037.8 621.7,1038.57 625.602,1039.31 629.504,1040.05 633.406,1040.76 637.308,1041.47 641.209,1042.16 645.111,1042.83 
  649.013,1043.49 652.915,1044.14 656.817,1044.78 660.719,1045.4 664.621,1046.01 668.523,1046.61 672.425,1047.19 676.326,1047.77 680.228,1048.33 684.13,1048.88 
  688.032,1049.42 691.934,1049.95 695.836,1050.47 699.738,1050.97 703.64,1051.47 707.542,1051.96 711.444,1052.44 715.345,1052.91 719.247,1053.36 723.149,1053.81 
  727.051,1054.25 730.953,1054.69 734.855,1055.11 738.757,1055.52 742.659,1055.93 746.561,1056.33 750.462,1056.72 754.364,1057.1 758.266,1057.48 762.168,1057.84 
  766.07,1058.2 769.972,1058.56 773.874,1058.9 777.776,1059.24 781.678,1059.57 785.579,1059.9 789.481,1060.22 793.383,1060.53 797.285,1060.84 801.187,1061.14 
  805.089,1061.43 808.991,1061.72 812.893,1062 816.795,1062.28 820.696,1062.55 824.598,1062.81 828.5,1063.07 832.402,1063.33 836.304,1063.58 840.206,1063.83 
  844.108,1064.07 848.01,1064.3 851.912,1064.53 855.813,1064.76 859.715,1064.98 863.617,1065.2 867.519,1065.41 871.421,1065.62 875.323,1065.82 879.225,1066.02 
  883.127,1066.22 887.029,1066.41 890.93,1066.6 894.832,1066.78 898.734,1066.96 902.636,1067.14 906.538,1067.32 910.44,1067.49 914.342,1067.65 918.244,1067.82 
  922.146,1067.98 926.047,1068.13 929.949,1068.29 933.851,1068.44 937.753,1068.59 941.655,1068.73 945.557,1068.87 949.459,1069.01 953.361,1069.15 957.263,1069.28 
  961.164,1069.41 965.066,1069.54 968.968,1069.67 972.87,1069.79 976.772,1069.91 980.674,1070.03 984.576,1070.15 988.478,1070.26 992.38,1070.37 996.281,1070.48 
  1000.18,1070.59 1004.09,1070.69 1007.99,1070.79 1011.89,1070.9 1015.79,1070.99 1019.69,1071.09 1023.59,1071.19 1027.5,1071.28 1031.4,1071.37 1035.3,1071.46 
  1039.2,1071.55 1043.1,1071.63 1047.01,1071.72 1050.91,1071.8 1054.81,1071.88 1058.71,1071.96 1062.61,1072.04 1066.52,1072.11 1070.42,1072.19 1074.32,1072.26 
  1078.22,1072.33 1082.12,1072.4 1086.02,1072.47 1089.93,1072.54 1093.83,1072.6 1097.73,1072.67 1101.63,1072.73 1105.53,1072.79 1109.44,1072.85 1113.34,1072.91 
  1117.24,1072.97 1121.14,1073.03 1125.04,1073.08 1128.95,1073.14 1132.85,1073.19 1136.75,1073.25 1140.65,1073.3 1144.55,1073.35 1148.46,1073.4 1152.36,1073.45 
  1156.26,1073.49 1160.16,1073.54 1164.06,1073.59 1167.96,1073.63 1171.87,1073.68 1175.77,1073.72 1179.67,1073.76 1183.57,1073.8 1187.47,1073.84 1191.38,1073.88 
  1195.28,1073.92 1199.18,1073.96 1203.08,1074 1206.98,1074.03 1210.89,1074.07 1214.79,1074.1 1218.69,1074.14 1222.59,1074.17 1226.49,1074.21 1230.39,1074.24 
  1234.3,1074.27 1238.2,1074.3 1242.1,1074.33 1246,1074.36 1249.9,1074.39 1253.81,1074.42 1257.71,1074.45 1261.61,1074.48 1265.51,1074.5 1269.41,1074.53 
  1273.32,1074.56 1277.22,1074.58 1281.12,1074.61 1285.02,1074.63 1288.92,1074.65 1292.83,1074.68 1296.73,1074.7 1300.63,1074.72 1304.53,1074.75 1308.43,1074.77 
  1312.33,1074.79 1316.24,1074.81 1320.14,1074.83 1324.04,1074.85 1327.94,1074.87 1331.84,1074.89 1335.75,1074.91 1339.65,1074.93 1343.55,1074.94 1347.45,1074.96 
  1351.35,1074.98 1355.26,1075 1359.16,1075.01 1363.06,1075.03 1366.96,1075.05 1370.86,1075.06 1374.76,1075.08 1378.67,1075.09 1382.57,1075.11 1386.47,1075.12 
  1390.37,1075.14 1394.27,1075.15 1398.18,1075.16 1402.08,1075.18 1405.98,1075.19 1409.88,1075.2 1413.78,1075.21 1417.69,1075.23 1421.59,1075.24 1425.49,1075.25 
  1429.39,1075.26 1433.29,1075.27 1437.2,1075.28 1441.1,1075.3 1445,1075.31 1448.9,1075.32 1452.8,1075.33 1456.7,1075.34 1460.61,1075.35 1464.51,1075.36 
  1468.41,1075.37 1472.31,1075.38 1476.21,1075.38 1480.12,1075.39 1484.02,1075.4 1487.92,1075.41 1491.82,1075.42 1495.72,1075.43 1499.63,1075.44 1503.53,1075.44 
  1507.43,1075.45 1511.33,1075.46 1515.23,1075.47 1519.13,1075.47 1523.04,1075.48 1526.94,1075.49 1530.84,1075.49 1534.74,1075.5 1538.64,1075.51 1542.55,1075.51 
  1546.45,1075.52 1550.35,1075.53 1554.25,1075.53 1558.15,1075.54 1562.06,1075.54 1565.96,1075.55 1569.86,1075.56 1573.76,1075.56 1577.66,1075.57 1581.57,1075.57 
  1585.47,1075.58 1589.37,1075.58 1593.27,1075.59 1597.17,1075.59 1601.07,1075.6 1604.98,1075.6 1608.88,1075.61 1612.78,1075.61 1616.68,1075.62 1620.58,1075.62 
  1624.49,1075.62 1628.39,1075.63 1632.29,1075.63 1636.19,1075.64 1640.09,1075.64 1644,1075.64 1647.9,1075.65 1651.8,1075.65 1655.7,1075.65 1659.6,1075.66 
  1663.5,1075.66 1667.41,1075.66 1671.31,1075.67 1675.21,1075.67 1679.11,1075.67 1683.01,1075.68 1686.92,1075.68 1690.82,1075.68 1694.72,1075.69 1698.62,1075.69 
  1702.52,1075.69 1706.43,1075.7 1710.33,1075.7 1714.23,1075.7 1718.13,1075.7 1722.03,1075.71 1725.93,1075.71 1729.84,1075.71 1733.74,1075.71 1737.64,1075.72 
  1741.54,1075.72 1745.44,1075.72 1749.35,1075.72 1753.25,1075.72 1757.15,1075.73 1761.05,1075.73 1764.95,1075.73 1768.86,1075.73 1772.76,1075.73 1776.66,1075.74 
  1780.56,1075.74 1784.46,1075.74 1788.37,1075.74 1792.27,1075.74 1796.17,1075.75 1800.07,1075.75 1803.97,1075.75 1807.87,1075.75 1811.78,1075.75 1815.68,1075.75 
  1819.58,1075.76 1823.48,1075.76 1827.38,1075.76 1831.29,1075.76 1835.19,1075.76 1839.09,1075.76 1842.99,1075.76 1846.89,1075.77 1850.8,1075.77 1854.7,1075.77 
  1858.6,1075.77 1862.5,1075.77 1866.4,1075.77 1870.3,1075.77 1874.21,1075.77 1878.11,1075.77 1882.01,1075.78 1885.91,1075.78 1889.81,1075.78 1893.72,1075.78 
  1897.62,1075.78 1901.52,1075.78 1905.42,1075.78 1909.32,1075.78 1913.23,1075.78 1917.13,1075.78 1921.03,1075.79 1924.93,1075.79 1928.83,1075.79 1932.74,1075.79 
  1936.64,1075.79 1940.54,1075.79 1944.44,1075.79 1948.34,1075.79 1952.24,1075.79 1956.15,1075.79 1960.05,1075.79 1963.95,1075.79 1967.85,1075.8 1971.75,1075.8 
  1975.66,1075.8 1979.56,1075.8 1983.46,1075.8 1987.36,1075.8 1991.26,1075.8 1995.17,1075.8 1999.07,1075.8 2002.97,1075.8 2006.87,1075.8 2010.77,1075.8 
  2014.67,1075.8 2018.58,1075.8 2022.48,1075.8 2026.38,1075.8 2030.28,1075.81 2034.18,1075.81 2038.09,1075.81 2041.99,1075.81 2045.89,1075.81 2049.79,1075.81 
  2053.69,1075.81 2057.6,1075.81 2061.5,1075.81 2065.4,1075.81 2069.3,1075.81 2073.2,1075.81 2077.11,1075.81 2081.01,1075.81 2084.91,1075.81 2088.81,1075.81 
  2092.71,1075.81 2096.61,1075.81 2100.52,1075.81 2104.42,1075.81 2108.32,1075.81 2112.22,1075.81 2116.12,1075.81 2120.03,1075.81 2123.93,1075.81 2127.83,1075.82 
  2131.73,1075.82 2135.63,1075.82 2139.54,1075.82 2143.44,1075.82 2147.34,1075.82 2151.24,1075.82 2155.14,1075.82 2159.04,1075.82 2162.95,1075.82 2166.85,1075.82 
  
  "/>
<polyline clip-path="url(#clip3103)" style="stroke:#e26f46; stroke-width:4; stroke-opacity:1; fill:none" points="
  219.805,1075.83 223.707,1400.07 227.609,1392.05 231.511,1384.3 235.413,1376.82 239.315,1369.58 243.217,1362.59 247.119,1355.81 251.02,1349.25 254.922,1342.88 
  258.824,1336.71 262.726,1330.72 266.628,1324.91 270.53,1319.26 274.432,1313.77 278.334,1308.44 282.236,1303.24 286.137,1298.19 290.039,1293.28 293.941,1288.49 
  297.843,1283.83 301.745,1279.29 305.647,1274.87 309.549,1270.55 313.451,1266.35 317.353,1262.25 321.254,1258.25 325.156,1254.35 329.058,1250.54 332.96,1246.82 
  336.862,1243.19 340.764,1239.65 344.666,1236.19 348.568,1232.81 352.47,1229.51 356.371,1226.29 360.273,1223.14 364.175,1220.06 368.077,1217.05 371.979,1214.11 
  375.881,1211.24 379.783,1208.42 383.685,1205.68 387.587,1202.99 391.489,1200.36 395.39,1197.79 399.292,1195.28 403.194,1192.82 407.096,1190.41 410.998,1188.06 
  414.9,1185.76 418.802,1183.5 422.704,1181.3 426.606,1179.14 430.507,1177.03 434.409,1174.97 438.311,1172.94 442.213,1170.96 446.115,1169.03 450.017,1167.13 
  453.919,1165.27 457.821,1163.45 461.723,1161.67 465.624,1159.93 469.526,1158.22 473.428,1156.55 477.33,1154.92 481.232,1153.32 485.134,1151.75 489.036,1150.21 
  492.938,1148.71 496.84,1147.23 500.741,1145.79 504.643,1144.38 508.545,1142.99 512.447,1141.64 516.349,1140.31 520.251,1139.01 524.153,1137.74 528.055,1136.49 
  531.957,1135.27 535.858,1134.07 539.76,1132.9 543.662,1131.75 547.564,1130.62 551.466,1129.52 555.368,1128.44 559.27,1127.38 563.172,1126.34 567.074,1125.33 
  570.975,1124.33 574.877,1123.36 578.779,1122.4 582.681,1121.47 586.583,1120.55 590.485,1119.65 594.387,1118.77 598.289,1117.91 602.191,1117.07 606.092,1116.24 
  609.994,1115.43 613.896,1114.63 617.798,1113.86 621.7,1113.09 625.602,1112.35 629.504,1111.61 633.406,1110.9 637.308,1110.19 641.209,1109.5 645.111,1108.83 
  649.013,1108.17 652.915,1107.52 656.817,1106.88 660.719,1106.26 664.621,1105.65 668.523,1105.05 672.425,1104.47 676.326,1103.9 680.228,1103.33 684.13,1102.78 
  688.032,1102.24 691.934,1101.71 695.836,1101.2 699.738,1100.69 703.64,1100.19 707.542,1099.7 711.444,1099.22 715.345,1098.76 719.247,1098.3 723.149,1097.85 
  727.051,1097.41 730.953,1096.97 734.855,1096.55 738.757,1096.14 742.659,1095.73 746.561,1095.33 750.462,1094.94 754.364,1094.56 758.266,1094.18 762.168,1093.82 
  766.07,1093.46 769.972,1093.1 773.874,1092.76 777.776,1092.42 781.678,1092.09 785.579,1091.76 789.481,1091.44 793.383,1091.13 797.285,1090.82 801.187,1090.52 
  805.089,1090.23 808.991,1089.94 812.893,1089.66 816.795,1089.38 820.696,1089.11 824.598,1088.85 828.5,1088.59 832.402,1088.33 836.304,1088.08 840.206,1087.84 
  844.108,1087.6 848.01,1087.36 851.912,1087.13 855.813,1086.9 859.715,1086.68 863.617,1086.46 867.519,1086.25 871.421,1086.04 875.323,1085.84 879.225,1085.64 
  883.127,1085.44 887.029,1085.25 890.93,1085.06 894.832,1084.88 898.734,1084.7 902.636,1084.52 906.538,1084.35 910.44,1084.18 914.342,1084.01 918.244,1083.84 
  922.146,1083.68 926.047,1083.53 929.949,1083.37 933.851,1083.22 937.753,1083.07 941.655,1082.93 945.557,1082.79 949.459,1082.65 953.361,1082.51 957.263,1082.38 
  961.164,1082.25 965.066,1082.12 968.968,1081.99 972.87,1081.87 976.772,1081.75 980.674,1081.63 984.576,1081.51 988.478,1081.4 992.38,1081.29 996.281,1081.18 
  1000.18,1081.07 1004.09,1080.97 1007.99,1080.87 1011.89,1080.77 1015.79,1080.67 1019.69,1080.57 1023.59,1080.47 1027.5,1080.38 1031.4,1080.29 1035.3,1080.2 
  1039.2,1080.11 1043.1,1080.03 1047.01,1079.94 1050.91,1079.86 1054.81,1079.78 1058.71,1079.7 1062.61,1079.63 1066.52,1079.55 1070.42,1079.48 1074.32,1079.4 
  1078.22,1079.33 1082.12,1079.26 1086.02,1079.19 1089.93,1079.12 1093.83,1079.06 1097.73,1078.99 1101.63,1078.93 1105.53,1078.87 1109.44,1078.81 1113.34,1078.75 
  1117.24,1078.69 1121.14,1078.63 1125.04,1078.58 1128.95,1078.52 1132.85,1078.47 1136.75,1078.42 1140.65,1078.36 1144.55,1078.31 1148.46,1078.26 1152.36,1078.21 
  1156.26,1078.17 1160.16,1078.12 1164.06,1078.07 1167.96,1078.03 1171.87,1077.99 1175.77,1077.94 1179.67,1077.9 1183.57,1077.86 1187.47,1077.82 1191.38,1077.78 
  1195.28,1077.74 1199.18,1077.7 1203.08,1077.66 1206.98,1077.63 1210.89,1077.59 1214.79,1077.56 1218.69,1077.52 1222.59,1077.49 1226.49,1077.45 1230.39,1077.42 
  1234.3,1077.39 1238.2,1077.36 1242.1,1077.33 1246,1077.3 1249.9,1077.27 1253.81,1077.24 1257.71,1077.21 1261.61,1077.18 1265.51,1077.16 1269.41,1077.13 
  1273.32,1077.11 1277.22,1077.08 1281.12,1077.05 1285.02,1077.03 1288.92,1077.01 1292.83,1076.98 1296.73,1076.96 1300.63,1076.94 1304.53,1076.91 1308.43,1076.89 
  1312.33,1076.87 1316.24,1076.85 1320.14,1076.83 1324.04,1076.81 1327.94,1076.79 1331.84,1076.77 1335.75,1076.75 1339.65,1076.73 1343.55,1076.72 1347.45,1076.7 
  1351.35,1076.68 1355.26,1076.66 1359.16,1076.65 1363.06,1076.63 1366.96,1076.62 1370.86,1076.6 1374.76,1076.58 1378.67,1076.57 1382.57,1076.55 1386.47,1076.54 
  1390.37,1076.53 1394.27,1076.51 1398.18,1076.5 1402.08,1076.48 1405.98,1076.47 1409.88,1076.46 1413.78,1076.45 1417.69,1076.43 1421.59,1076.42 1425.49,1076.41 
  1429.39,1076.4 1433.29,1076.39 1437.2,1076.38 1441.1,1076.37 1445,1076.35 1448.9,1076.34 1452.8,1076.33 1456.7,1076.32 1460.61,1076.31 1464.51,1076.3 
  1468.41,1076.29 1472.31,1076.29 1476.21,1076.28 1480.12,1076.27 1484.02,1076.26 1487.92,1076.25 1491.82,1076.24 1495.72,1076.23 1499.63,1076.23 1503.53,1076.22 
  1507.43,1076.21 1511.33,1076.2 1515.23,1076.19 1519.13,1076.19 1523.04,1076.18 1526.94,1076.17 1530.84,1076.17 1534.74,1076.16 1538.64,1076.15 1542.55,1076.15 
  1546.45,1076.14 1550.35,1076.13 1554.25,1076.13 1558.15,1076.12 1562.06,1076.12 1565.96,1076.11 1569.86,1076.1 1573.76,1076.1 1577.66,1076.09 1581.57,1076.09 
  1585.47,1076.08 1589.37,1076.08 1593.27,1076.07 1597.17,1076.07 1601.07,1076.06 1604.98,1076.06 1608.88,1076.05 1612.78,1076.05 1616.68,1076.05 1620.58,1076.04 
  1624.49,1076.04 1628.39,1076.03 1632.29,1076.03 1636.19,1076.03 1640.09,1076.02 1644,1076.02 1647.9,1076.01 1651.8,1076.01 1655.7,1076.01 1659.6,1076 
  1663.5,1076 1667.41,1076 1671.31,1075.99 1675.21,1075.99 1679.11,1075.99 1683.01,1075.98 1686.92,1075.98 1690.82,1075.98 1694.72,1075.97 1698.62,1075.97 
  1702.52,1075.97 1706.43,1075.97 1710.33,1075.96 1714.23,1075.96 1718.13,1075.96 1722.03,1075.96 1725.93,1075.95 1729.84,1075.95 1733.74,1075.95 1737.64,1075.95 
  1741.54,1075.94 1745.44,1075.94 1749.35,1075.94 1753.25,1075.94 1757.15,1075.93 1761.05,1075.93 1764.95,1075.93 1768.86,1075.93 1772.76,1075.93 1776.66,1075.92 
  1780.56,1075.92 1784.46,1075.92 1788.37,1075.92 1792.27,1075.92 1796.17,1075.92 1800.07,1075.91 1803.97,1075.91 1807.87,1075.91 1811.78,1075.91 1815.68,1075.91 
  1819.58,1075.91 1823.48,1075.9 1827.38,1075.9 1831.29,1075.9 1835.19,1075.9 1839.09,1075.9 1842.99,1075.9 1846.89,1075.9 1850.8,1075.89 1854.7,1075.89 
  1858.6,1075.89 1862.5,1075.89 1866.4,1075.89 1870.3,1075.89 1874.21,1075.89 1878.11,1075.89 1882.01,1075.88 1885.91,1075.88 1889.81,1075.88 1893.72,1075.88 
  1897.62,1075.88 1901.52,1075.88 1905.42,1075.88 1909.32,1075.88 1913.23,1075.88 1917.13,1075.88 1921.03,1075.87 1924.93,1075.87 1928.83,1075.87 1932.74,1075.87 
  1936.64,1075.87 1940.54,1075.87 1944.44,1075.87 1948.34,1075.87 1952.24,1075.87 1956.15,1075.87 1960.05,1075.87 1963.95,1075.87 1967.85,1075.87 1971.75,1075.86 
  1975.66,1075.86 1979.56,1075.86 1983.46,1075.86 1987.36,1075.86 1991.26,1075.86 1995.17,1075.86 1999.07,1075.86 2002.97,1075.86 2006.87,1075.86 2010.77,1075.86 
  2014.67,1075.86 2018.58,1075.86 2022.48,1075.86 2026.38,1075.86 2030.28,1075.86 2034.18,1075.86 2038.09,1075.85 2041.99,1075.85 2045.89,1075.85 2049.79,1075.85 
  2053.69,1075.85 2057.6,1075.85 2061.5,1075.85 2065.4,1075.85 2069.3,1075.85 2073.2,1075.85 2077.11,1075.85 2081.01,1075.85 2084.91,1075.85 2088.81,1075.85 
  2092.71,1075.85 2096.61,1075.85 2100.52,1075.85 2104.42,1075.85 2108.32,1075.85 2112.22,1075.85 2116.12,1075.85 2120.03,1075.85 2123.93,1075.85 2127.83,1075.85 
  2131.73,1075.85 2135.63,1075.85 2139.54,1075.84 2143.44,1075.84 2147.34,1075.84 2151.24,1075.84 2155.14,1075.84 2159.04,1075.84 2162.95,1075.84 2166.85,1075.84 
  
  "/>
<polygon clip-path="url(#clip3101)" points="
1874.91,306.444 2156.14,306.444 2156.14,125.004 1874.91,125.004 
  " fill="#ffffff" fill-rule="evenodd" fill-opacity="1"/>
<polyline clip-path="url(#clip3101)" style="stroke:#000000; stroke-width:4; stroke-opacity:1; fill:none" points="
  1874.91,306.444 2156.14,306.444 2156.14,125.004 1874.91,125.004 1874.91,306.444 
  "/>
<polyline clip-path="url(#clip3101)" style="stroke:#009af9; stroke-width:4; stroke-opacity:1; fill:none" points="
  1897.95,185.484 2036.19,185.484 
  "/>
<g clip-path="url(#clip3101)">
<text style="fill:#000000; fill-opacity:1; font-family:Arial,Helvetica Neue,Helvetica,sans-serif; font-size:48px; text-anchor:start;" transform="rotate(0, 2059.23, 202.984)" x="2059.23" y="202.984">y1</text>
</g>
<polyline clip-path="url(#clip3101)" style="stroke:#e26f46; stroke-width:4; stroke-opacity:1; fill:none" points="
  1897.95,245.964 2036.19,245.964 
  "/>
<g clip-path="url(#clip3101)">
<text style="fill:#000000; fill-opacity:1; font-family:Arial,Helvetica Neue,Helvetica,sans-serif; font-size:48px; text-anchor:start;" transform="rotate(0, 2059.23, 263.464)" x="2059.23" y="263.464">y2</text>
</g>
</svg>
