<?xml version="1.0" encoding="utf-8"?>
<svg xmlns="http://www.w3.org/2000/svg" xmlns:xlink="http://www.w3.org/1999/xlink" width="576" height="384" viewBox="0 0 2304 1536">
<defs>
  <clipPath id="clip3500">
    <rect x="0" y="0" width="2000" height="2000"/>
  </clipPath>
</defs>
<defs>
  <clipPath id="clip3501">
    <rect x="0" y="0" width="2304" height="1536"/>
  </clipPath>
</defs>
<polygon clip-path="url(#clip3501)" points="
0,1536 2304,1536 2304,0 0,0 
  " fill="#ffffff" fill-rule="evenodd" fill-opacity="1"/>
<defs>
  <clipPath id="clip3502">
    <rect x="460" y="0" width="1614" height="1536"/>
  </clipPath>
</defs>
<polygon clip-path="url(#clip3501)" points="
189.504,1439.47 2225.26,1439.47 2225.26,47.2441 189.504,47.2441 
  " fill="#ffffff" fill-rule="evenodd" fill-opacity="1"/>
<defs>
  <clipPath id="clip3503">
    <rect x="189" y="47" width="2037" height="1393"/>
  </clipPath>
</defs>
<polyline clip-path="url(#clip3503)" style="stroke:#000000; stroke-width:2; stroke-opacity:0.1; fill:none" points="
  243.271,1439.47 243.271,47.2441 
  "/>
<polyline clip-path="url(#clip3503)" style="stroke:#000000; stroke-width:2; stroke-opacity:0.1; fill:none" points="
  628.146,1439.47 628.146,47.2441 
  "/>
<polyline clip-path="url(#clip3503)" style="stroke:#000000; stroke-width:2; stroke-opacity:0.1; fill:none" points="
  1013.02,1439.47 1013.02,47.2441 
  "/>
<polyline clip-path="url(#clip3503)" style="stroke:#000000; stroke-width:2; stroke-opacity:0.1; fill:none" points="
  1397.89,1439.47 1397.89,47.2441 
  "/>
<polyline clip-path="url(#clip3503)" style="stroke:#000000; stroke-width:2; stroke-opacity:0.1; fill:none" points="
  1782.77,1439.47 1782.77,47.2441 
  "/>
<polyline clip-path="url(#clip3503)" style="stroke:#000000; stroke-width:2; stroke-opacity:0.1; fill:none" points="
  2167.64,1439.47 2167.64,47.2441 
  "/>
<polyline clip-path="url(#clip3503)" style="stroke:#000000; stroke-width:2; stroke-opacity:0.1; fill:none" points="
  189.504,1289.2 2225.26,1289.2 
  "/>
<polyline clip-path="url(#clip3503)" style="stroke:#000000; stroke-width:2; stroke-opacity:0.1; fill:none" points="
  189.504,1016.28 2225.26,1016.28 
  "/>
<polyline clip-path="url(#clip3503)" style="stroke:#000000; stroke-width:2; stroke-opacity:0.1; fill:none" points="
  189.504,743.359 2225.26,743.359 
  "/>
<polyline clip-path="url(#clip3503)" style="stroke:#000000; stroke-width:2; stroke-opacity:0.1; fill:none" points="
  189.504,470.44 2225.26,470.44 
  "/>
<polyline clip-path="url(#clip3503)" style="stroke:#000000; stroke-width:2; stroke-opacity:0.1; fill:none" points="
  189.504,197.52 2225.26,197.52 
  "/>
<polyline clip-path="url(#clip3501)" style="stroke:#000000; stroke-width:4; stroke-opacity:1; fill:none" points="
  189.504,1439.47 2225.26,1439.47 
  "/>
<polyline clip-path="url(#clip3501)" style="stroke:#000000; stroke-width:4; stroke-opacity:1; fill:none" points="
  189.504,1439.47 189.504,47.2441 
  "/>
<polyline clip-path="url(#clip3501)" style="stroke:#000000; stroke-width:4; stroke-opacity:1; fill:none" points="
  243.271,1439.47 243.271,1418.59 
  "/>
<polyline clip-path="url(#clip3501)" style="stroke:#000000; stroke-width:4; stroke-opacity:1; fill:none" points="
  628.146,1439.47 628.146,1418.59 
  "/>
<polyline clip-path="url(#clip3501)" style="stroke:#000000; stroke-width:4; stroke-opacity:1; fill:none" points="
  1013.02,1439.47 1013.02,1418.59 
  "/>
<polyline clip-path="url(#clip3501)" style="stroke:#000000; stroke-width:4; stroke-opacity:1; fill:none" points="
  1397.89,1439.47 1397.89,1418.59 
  "/>
<polyline clip-path="url(#clip3501)" style="stroke:#000000; stroke-width:4; stroke-opacity:1; fill:none" points="
  1782.77,1439.47 1782.77,1418.59 
  "/>
<polyline clip-path="url(#clip3501)" style="stroke:#000000; stroke-width:4; stroke-opacity:1; fill:none" points="
  2167.64,1439.47 2167.64,1418.59 
  "/>
<polyline clip-path="url(#clip3501)" style="stroke:#000000; stroke-width:4; stroke-opacity:1; fill:none" points="
  189.504,1289.2 220.04,1289.2 
  "/>
<polyline clip-path="url(#clip3501)" style="stroke:#000000; stroke-width:4; stroke-opacity:1; fill:none" points="
  189.504,1016.28 220.04,1016.28 
  "/>
<polyline clip-path="url(#clip3501)" style="stroke:#000000; stroke-width:4; stroke-opacity:1; fill:none" points="
  189.504,743.359 220.04,743.359 
  "/>
<polyline clip-path="url(#clip3501)" style="stroke:#000000; stroke-width:4; stroke-opacity:1; fill:none" points="
  189.504,470.44 220.04,470.44 
  "/>
<polyline clip-path="url(#clip3501)" style="stroke:#000000; stroke-width:4; stroke-opacity:1; fill:none" points="
  189.504,197.52 220.04,197.52 
  "/>
<g clip-path="url(#clip3501)">
<text style="fill:#000000; fill-opacity:1; font-family:Arial,Helvetica Neue,Helvetica,sans-serif; font-size:48px; text-anchor:middle;" transform="rotate(0, 243.271, 1492.99)" x="243.271" y="1492.99">0</text>
</g>
<g clip-path="url(#clip3501)">
<text style="fill:#000000; fill-opacity:1; font-family:Arial,Helvetica Neue,Helvetica,sans-serif; font-size:48px; text-anchor:middle;" transform="rotate(0, 628.146, 1492.99)" x="628.146" y="1492.99">100</text>
</g>
<g clip-path="url(#clip3501)">
<text style="fill:#000000; fill-opacity:1; font-family:Arial,Helvetica Neue,Helvetica,sans-serif; font-size:48px; text-anchor:middle;" transform="rotate(0, 1013.02, 1492.99)" x="1013.02" y="1492.99">200</text>
</g>
<g clip-path="url(#clip3501)">
<text style="fill:#000000; fill-opacity:1; font-family:Arial,Helvetica Neue,Helvetica,sans-serif; font-size:48px; text-anchor:middle;" transform="rotate(0, 1397.89, 1492.99)" x="1397.89" y="1492.99">300</text>
</g>
<g clip-path="url(#clip3501)">
<text style="fill:#000000; fill-opacity:1; font-family:Arial,Helvetica Neue,Helvetica,sans-serif; font-size:48px; text-anchor:middle;" transform="rotate(0, 1782.77, 1492.99)" x="1782.77" y="1492.99">400</text>
</g>
<g clip-path="url(#clip3501)">
<text style="fill:#000000; fill-opacity:1; font-family:Arial,Helvetica Neue,Helvetica,sans-serif; font-size:48px; text-anchor:middle;" transform="rotate(0, 2167.64, 1492.99)" x="2167.64" y="1492.99">500</text>
</g>
<g clip-path="url(#clip3501)">
<text style="fill:#000000; fill-opacity:1; font-family:Arial,Helvetica Neue,Helvetica,sans-serif; font-size:48px; text-anchor:end;" transform="rotate(0, 166.464, 1306.7)" x="166.464" y="1306.7">-0.5</text>
</g>
<g clip-path="url(#clip3501)">
<text style="fill:#000000; fill-opacity:1; font-family:Arial,Helvetica Neue,Helvetica,sans-serif; font-size:48px; text-anchor:end;" transform="rotate(0, 166.464, 1033.78)" x="166.464" y="1033.78">0.0</text>
</g>
<g clip-path="url(#clip3501)">
<text style="fill:#000000; fill-opacity:1; font-family:Arial,Helvetica Neue,Helvetica,sans-serif; font-size:48px; text-anchor:end;" transform="rotate(0, 166.464, 760.859)" x="166.464" y="760.859">0.5</text>
</g>
<g clip-path="url(#clip3501)">
<text style="fill:#000000; fill-opacity:1; font-family:Arial,Helvetica Neue,Helvetica,sans-serif; font-size:48px; text-anchor:end;" transform="rotate(0, 166.464, 487.94)" x="166.464" y="487.94">1.0</text>
</g>
<g clip-path="url(#clip3501)">
<text style="fill:#000000; fill-opacity:1; font-family:Arial,Helvetica Neue,Helvetica,sans-serif; font-size:48px; text-anchor:end;" transform="rotate(0, 166.464, 215.02)" x="166.464" y="215.02">1.5</text>
</g>
<polyline clip-path="url(#clip3503)" style="stroke:#009af9; stroke-width:4; stroke-opacity:1; fill:none" points="
  247.12,999.904 250.969,86.6468 254.817,1400.07 258.666,86.6468 262.515,1400.07 266.364,86.6468 270.212,1400.07 274.061,86.6468 277.91,1400.07 281.759,86.6468 
  285.607,1400.07 289.456,86.6468 293.305,1400.07 297.154,86.6468 301.002,1400.07 304.851,86.6468 308.7,1400.07 312.549,86.6468 316.397,1400.07 320.246,86.6468 
  324.095,1400.07 327.944,86.6468 331.792,1400.07 335.641,86.6468 339.49,1400.07 343.339,86.6468 347.187,1400.07 351.036,86.6468 354.885,1400.07 358.733,86.6468 
  362.582,1400.07 366.431,86.6468 370.28,1400.07 374.128,86.6468 377.977,1400.07 381.826,86.6468 385.675,1400.07 389.523,86.6468 393.372,1400.07 397.221,86.6468 
  401.07,1400.07 404.918,86.6468 408.767,1400.07 412.616,86.6468 416.465,1400.07 420.313,86.6468 424.162,1400.07 428.011,86.6468 431.86,1400.07 435.708,86.6468 
  439.557,1400.07 443.406,86.6468 447.255,1400.07 451.103,86.6468 454.952,1400.07 458.801,86.6468 462.65,1400.07 466.498,86.6468 470.347,1400.07 474.196,86.6468 
  478.045,1400.07 481.893,86.6468 485.742,1400.07 489.591,86.6468 493.44,1400.07 497.288,86.6468 501.137,1400.07 504.986,86.6468 508.835,1400.07 512.683,86.6468 
  516.532,1400.07 520.381,86.6468 524.23,1400.07 528.078,86.6468 531.927,1400.07 535.776,86.6468 539.625,1400.07 543.473,86.6468 547.322,1400.07 551.171,86.6468 
  555.02,1400.07 558.868,86.6468 562.717,1400.07 566.566,86.6468 570.415,1400.07 574.263,86.6468 578.112,1400.07 581.961,86.6468 585.809,1400.07 589.658,86.6468 
  593.507,1400.07 597.356,86.6468 601.204,1400.07 605.053,86.6468 608.902,1400.07 612.751,86.6468 616.599,1400.07 620.448,86.6468 624.297,1400.07 628.146,86.6468 
  631.994,1400.07 635.843,86.6468 639.692,1400.07 643.541,86.6468 647.389,1400.07 651.238,86.6468 655.087,1400.07 658.936,86.6468 662.784,1400.07 666.633,86.6468 
  670.482,1400.07 674.331,86.6468 678.179,1400.07 682.028,86.6468 685.877,1400.07 689.726,86.6468 693.574,1400.07 697.423,86.6468 701.272,1400.07 705.121,86.6468 
  708.969,1400.07 712.818,86.6468 716.667,1400.07 720.516,86.6468 724.364,1400.07 728.213,86.6468 732.062,1400.07 735.911,86.6468 739.759,1400.07 743.608,86.6468 
  747.457,1400.07 751.306,86.6468 755.154,1400.07 759.003,86.6468 762.852,1400.07 766.701,86.6468 770.549,1400.07 774.398,86.6468 778.247,1400.07 782.096,86.6468 
  785.944,1400.07 789.793,86.6468 793.642,1400.07 797.491,86.6468 801.339,1400.07 805.188,86.6468 809.037,1400.07 812.886,86.6468 816.734,1400.07 820.583,86.6468 
  824.432,1400.07 828.28,86.6468 832.129,1400.07 835.978,86.6468 839.827,1400.07 843.675,86.6468 847.524,1400.07 851.373,86.6468 855.222,1400.07 859.07,86.6468 
  862.919,1400.07 866.768,86.6468 870.617,1400.07 874.465,86.6468 878.314,1400.07 882.163,86.6468 886.012,1400.07 889.86,86.6468 893.709,1400.07 897.558,86.6468 
  901.407,1400.07 905.255,86.6468 909.104,1400.07 912.953,86.6468 916.802,1400.07 920.65,86.6468 924.499,1400.07 928.348,86.6468 932.197,1400.07 936.045,86.6468 
  939.894,1400.07 943.743,86.6468 947.592,1400.07 951.44,86.6468 955.289,1400.07 959.138,86.6468 962.987,1400.07 966.835,86.6468 970.684,1400.07 974.533,86.6468 
  978.382,1400.07 982.23,86.6468 986.079,1400.07 989.928,86.6468 993.777,1400.07 997.625,86.6468 1001.47,1400.07 1005.32,86.6468 1009.17,1400.07 1013.02,86.6468 
  1016.87,1400.07 1020.72,86.6468 1024.57,1400.07 1028.42,86.6468 1032.26,1400.07 1036.11,86.6468 1039.96,1400.07 1043.81,86.6468 1047.66,1400.07 1051.51,86.6468 
  1055.36,1400.07 1059.21,86.6468 1063.05,1400.07 1066.9,86.6468 1070.75,1400.07 1074.6,86.6468 1078.45,1400.07 1082.3,86.6468 1086.15,1400.07 1090,86.6468 
  1093.84,1400.07 1097.69,86.6468 1101.54,1400.07 1105.39,86.6468 1109.24,1400.07 1113.09,86.6468 1116.94,1400.07 1120.79,86.6468 1124.63,1400.07 1128.48,86.6468 
  1132.33,1400.07 1136.18,86.6468 1140.03,1400.07 1143.88,86.6468 1147.73,1400.07 1151.58,86.6468 1155.42,1400.07 1159.27,86.6468 1163.12,1400.07 1166.97,86.6468 
  1170.82,1400.07 1174.67,86.6468 1178.52,1400.07 1182.37,86.6468 1186.21,1400.07 1190.06,86.6468 1193.91,1400.07 1197.76,86.6468 1201.61,1400.07 1205.46,86.6468 
  1209.31,1400.07 1213.16,86.6468 1217,1400.07 1220.85,86.6468 1224.7,1400.07 1228.55,86.6468 1232.4,1400.07 1236.25,86.6468 1240.1,1400.07 1243.95,86.6468 
  1247.79,1400.07 1251.64,86.6468 1255.49,1400.07 1259.34,86.6468 1263.19,1400.07 1267.04,86.6468 1270.89,1400.07 1274.74,86.6468 1278.58,1400.07 1282.43,86.6468 
  1286.28,1400.07 1290.13,86.6468 1293.98,1400.07 1297.83,86.6468 1301.68,1400.07 1305.53,86.6468 1309.37,1400.07 1313.22,86.6468 1317.07,1400.07 1320.92,86.6468 
  1324.77,1400.07 1328.62,86.6468 1332.47,1400.07 1336.31,86.6468 1340.16,1400.07 1344.01,86.6468 1347.86,1400.07 1351.71,86.6468 1355.56,1400.07 1359.41,86.6468 
  1363.26,1400.07 1367.1,86.6468 1370.95,1400.07 1374.8,86.6468 1378.65,1400.07 1382.5,86.6468 1386.35,1400.07 1390.2,86.6468 1394.05,1400.07 1397.89,86.6468 
  1401.74,1400.07 1405.59,86.6468 1409.44,1400.07 1413.29,86.6468 1417.14,1400.07 1420.99,86.6468 1424.84,1400.07 1428.68,86.6468 1432.53,1400.07 1436.38,86.6468 
  1440.23,1400.07 1444.08,86.6468 1447.93,1400.07 1451.78,86.6468 1455.63,1400.07 1459.47,86.6468 1463.32,1400.07 1467.17,86.6468 1471.02,1400.07 1474.87,86.6468 
  1478.72,1400.07 1482.57,86.6468 1486.42,1400.07 1490.26,86.6468 1494.11,1400.07 1497.96,86.6468 1501.81,1400.07 1505.66,86.6468 1509.51,1400.07 1513.36,86.6468 
  1517.21,1400.07 1521.05,86.6468 1524.9,1400.07 1528.75,86.6468 1532.6,1400.07 1536.45,86.6468 1540.3,1400.07 1544.15,86.6468 1548,1400.07 1551.84,86.6468 
  1555.69,1400.07 1559.54,86.6468 1563.39,1400.07 1567.24,86.6468 1571.09,1400.07 1574.94,86.6468 1578.79,1400.07 1582.63,86.6468 1586.48,1400.07 1590.33,86.6468 
  1594.18,1400.07 1598.03,86.6468 1601.88,1400.07 1605.73,86.6468 1609.58,1400.07 1613.42,86.6468 1617.27,1400.07 1621.12,86.6468 1624.97,1400.07 1628.82,86.6468 
  1632.67,1400.07 1636.52,86.6468 1640.37,1400.07 1644.21,86.6468 1648.06,1400.07 1651.91,86.6468 1655.76,1400.07 1659.61,86.6468 1663.46,1400.07 1667.31,86.6468 
  1671.16,1400.07 1675,86.6468 1678.85,1400.07 1682.7,86.6468 1686.55,1400.07 1690.4,86.6468 1694.25,1400.07 1698.1,86.6468 1701.95,1400.07 1705.79,86.6468 
  1709.64,1400.07 1713.49,86.6468 1717.34,1400.07 1721.19,86.6468 1725.04,1400.07 1728.89,86.6468 1732.74,1400.07 1736.58,86.6468 1740.43,1400.07 1744.28,86.6468 
  1748.13,1400.07 1751.98,86.6468 1755.83,1400.07 1759.68,86.6468 1763.53,1400.07 1767.37,86.6468 1771.22,1400.07 1775.07,86.6468 1778.92,1400.07 1782.77,86.6468 
  1786.62,1400.07 1790.47,86.6468 1794.32,1400.07 1798.16,86.6468 1802.01,1400.07 1805.86,86.6468 1809.71,1400.07 1813.56,86.6468 1817.41,1400.07 1821.26,86.6468 
  1825.11,1400.07 1828.95,86.6468 1832.8,1400.07 1836.65,86.6468 1840.5,1400.07 1844.35,86.6468 1848.2,1400.07 1852.05,86.6468 1855.9,1400.07 1859.74,86.6468 
  1863.59,1400.07 1867.44,86.6468 1871.29,1400.07 1875.14,86.6468 1878.99,1400.07 1882.84,86.6468 1886.69,1400.07 1890.53,86.6468 1894.38,1400.07 1898.23,86.6468 
  1902.08,1400.07 1905.93,86.6468 1909.78,1400.07 1913.63,86.6468 1917.48,1400.07 1921.32,86.6468 1925.17,1400.07 1929.02,86.6468 1932.87,1400.07 1936.72,86.6468 
  1940.57,1400.07 1944.42,86.6468 1948.27,1400.07 1952.11,86.6468 1955.96,1400.07 1959.81,86.6468 1963.66,1400.07 1967.51,86.6468 1971.36,1400.07 1975.21,86.6468 
  1979.06,1400.07 1982.9,86.6468 1986.75,1400.07 1990.6,86.6468 1994.45,1400.07 1998.3,86.6468 2002.15,1400.07 2006,86.6468 2009.85,1400.07 2013.69,86.6468 
  2017.54,1400.07 2021.39,86.6468 2025.24,1400.07 2029.09,86.6468 2032.94,1400.07 2036.79,86.6468 2040.64,1400.07 2044.48,86.6468 2048.33,1400.07 2052.18,86.6468 
  2056.03,1400.07 2059.88,86.6468 2063.73,1400.07 2067.58,86.6468 2071.43,1400.07 2075.27,86.6468 2079.12,1400.07 2082.97,86.6468 2086.82,1400.07 2090.67,86.6468 
  2094.52,1400.07 2098.37,86.6468 2102.22,1400.07 2106.06,86.6468 2109.91,1400.07 2113.76,86.6468 2117.61,1400.07 2121.46,86.6468 2125.31,1400.07 2129.16,86.6468 
  2133.01,1400.07 2136.85,86.6468 2140.7,1400.07 2144.55,86.6468 2148.4,1400.07 2152.25,86.6468 2156.1,1400.07 2159.95,86.6468 2163.8,1400.07 2167.64,86.6468 
  
  "/>
<polyline clip-path="url(#clip3503)" style="stroke:#e26f46; stroke-width:4; stroke-opacity:1; fill:none" points="
  247.12,988.987 250.969,1400.07 254.817,86.6468 258.666,1400.07 262.515,86.6468 266.364,1400.07 270.212,86.6468 274.061,1400.07 277.91,86.6468 281.759,1400.07 
  285.607,86.6468 289.456,1400.07 293.305,86.6468 297.154,1400.07 301.002,86.6468 304.851,1400.07 308.7,86.6468 312.549,1400.07 316.397,86.6468 320.246,1400.07 
  324.095,86.6468 327.944,1400.07 331.792,86.6468 335.641,1400.07 339.49,86.6468 343.339,1400.07 347.187,86.6468 351.036,1400.07 354.885,86.6468 358.733,1400.07 
  362.582,86.6468 366.431,1400.07 370.28,86.6468 374.128,1400.07 377.977,86.6468 381.826,1400.07 385.675,86.6468 389.523,1400.07 393.372,86.6468 397.221,1400.07 
  401.07,86.6468 404.918,1400.07 408.767,86.6468 412.616,1400.07 416.465,86.6468 420.313,1400.07 424.162,86.6468 428.011,1400.07 431.86,86.6468 435.708,1400.07 
  439.557,86.6468 443.406,1400.07 447.255,86.6468 451.103,1400.07 454.952,86.6468 458.801,1400.07 462.65,86.6468 466.498,1400.07 470.347,86.6468 474.196,1400.07 
  478.045,86.6468 481.893,1400.07 485.742,86.6468 489.591,1400.07 493.44,86.6468 497.288,1400.07 501.137,86.6468 504.986,1400.07 508.835,86.6468 512.683,1400.07 
  516.532,86.6468 520.381,1400.07 524.23,86.6468 528.078,1400.07 531.927,86.6468 535.776,1400.07 539.625,86.6468 543.473,1400.07 547.322,86.6468 551.171,1400.07 
  555.02,86.6468 558.868,1400.07 562.717,86.6468 566.566,1400.07 570.415,86.6468 574.263,1400.07 578.112,86.6468 581.961,1400.07 585.809,86.6468 589.658,1400.07 
  593.507,86.6468 597.356,1400.07 601.204,86.6468 605.053,1400.07 608.902,86.6468 612.751,1400.07 616.599,86.6468 620.448,1400.07 624.297,86.6468 628.146,1400.07 
  631.994,86.6468 635.843,1400.07 639.692,86.6468 643.541,1400.07 647.389,86.6468 651.238,1400.07 655.087,86.6468 658.936,1400.07 662.784,86.6468 666.633,1400.07 
  670.482,86.6468 674.331,1400.07 678.179,86.6468 682.028,1400.07 685.877,86.6468 689.726,1400.07 693.574,86.6468 697.423,1400.07 701.272,86.6468 705.121,1400.07 
  708.969,86.6468 712.818,1400.07 716.667,86.6468 720.516,1400.07 724.364,86.6468 728.213,1400.07 732.062,86.6468 735.911,1400.07 739.759,86.6468 743.608,1400.07 
  747.457,86.6468 751.306,1400.07 755.154,86.6468 759.003,1400.07 762.852,86.6468 766.701,1400.07 770.549,86.6468 774.398,1400.07 778.247,86.6468 782.096,1400.07 
  785.944,86.6468 789.793,1400.07 793.642,86.6468 797.491,1400.07 801.339,86.6468 805.188,1400.07 809.037,86.6468 812.886,1400.07 816.734,86.6468 820.583,1400.07 
  824.432,86.6468 828.28,1400.07 832.129,86.6468 835.978,1400.07 839.827,86.6468 843.675,1400.07 847.524,86.6468 851.373,1400.07 855.222,86.6468 859.07,1400.07 
  862.919,86.6468 866.768,1400.07 870.617,86.6468 874.465,1400.07 878.314,86.6468 882.163,1400.07 886.012,86.6468 889.86,1400.07 893.709,86.6468 897.558,1400.07 
  901.407,86.6468 905.255,1400.07 909.104,86.6468 912.953,1400.07 916.802,86.6468 920.65,1400.07 924.499,86.6468 928.348,1400.07 932.197,86.6468 936.045,1400.07 
  939.894,86.6468 943.743,1400.07 947.592,86.6468 951.44,1400.07 955.289,86.6468 959.138,1400.07 962.987,86.6468 966.835,1400.07 970.684,86.6468 974.533,1400.07 
  978.382,86.6468 982.23,1400.07 986.079,86.6468 989.928,1400.07 993.777,86.6468 997.625,1400.07 1001.47,86.6468 1005.32,1400.07 1009.17,86.6468 1013.02,1400.07 
  1016.87,86.6468 1020.72,1400.07 1024.57,86.6468 1028.42,1400.07 1032.26,86.6468 1036.11,1400.07 1039.96,86.6468 1043.81,1400.07 1047.66,86.6468 1051.51,1400.07 
  1055.36,86.6468 1059.21,1400.07 1063.05,86.6468 1066.9,1400.07 1070.75,86.6468 1074.6,1400.07 1078.45,86.6468 1082.3,1400.07 1086.15,86.6468 1090,1400.07 
  1093.84,86.6468 1097.69,1400.07 1101.54,86.6468 1105.39,1400.07 1109.24,86.6468 1113.09,1400.07 1116.94,86.6468 1120.79,1400.07 1124.63,86.6468 1128.48,1400.07 
  1132.33,86.6468 1136.18,1400.07 1140.03,86.6468 1143.88,1400.07 1147.73,86.6468 1151.58,1400.07 1155.42,86.6468 1159.27,1400.07 1163.12,86.6468 1166.97,1400.07 
  1170.82,86.6468 1174.67,1400.07 1178.52,86.6468 1182.37,1400.07 1186.21,86.6468 1190.06,1400.07 1193.91,86.6468 1197.76,1400.07 1201.61,86.6468 1205.46,1400.07 
  1209.31,86.6468 1213.16,1400.07 1217,86.6468 1220.85,1400.07 1224.7,86.6468 1228.55,1400.07 1232.4,86.6468 1236.25,1400.07 1240.1,86.6468 1243.95,1400.07 
  1247.79,86.6468 1251.64,1400.07 1255.49,86.6468 1259.34,1400.07 1263.19,86.6468 1267.04,1400.07 1270.89,86.6468 1274.74,1400.07 1278.58,86.6468 1282.43,1400.07 
  1286.28,86.6468 1290.13,1400.07 1293.98,86.6468 1297.83,1400.07 1301.68,86.6468 1305.53,1400.07 1309.37,86.6468 1313.22,1400.07 1317.07,86.6468 1320.92,1400.07 
  1324.77,86.6468 1328.62,1400.07 1332.47,86.6468 1336.31,1400.07 1340.16,86.6468 1344.01,1400.07 1347.86,86.6468 1351.71,1400.07 1355.56,86.6468 1359.41,1400.07 
  1363.26,86.6468 1367.1,1400.07 1370.95,86.6468 1374.8,1400.07 1378.65,86.6468 1382.5,1400.07 1386.35,86.6468 1390.2,1400.07 1394.05,86.6468 1397.89,1400.07 
  1401.74,86.6468 1405.59,1400.07 1409.44,86.6468 1413.29,1400.07 1417.14,86.6468 1420.99,1400.07 1424.84,86.6468 1428.68,1400.07 1432.53,86.6468 1436.38,1400.07 
  1440.23,86.6468 1444.08,1400.07 1447.93,86.6468 1451.78,1400.07 1455.63,86.6468 1459.47,1400.07 1463.32,86.6468 1467.17,1400.07 1471.02,86.6468 1474.87,1400.07 
  1478.72,86.6468 1482.57,1400.07 1486.42,86.6468 1490.26,1400.07 1494.11,86.6468 1497.96,1400.07 1501.81,86.6468 1505.66,1400.07 1509.51,86.6468 1513.36,1400.07 
  1517.21,86.6468 1521.05,1400.07 1524.9,86.6468 1528.75,1400.07 1532.6,86.6468 1536.45,1400.07 1540.3,86.6468 1544.15,1400.07 1548,86.6468 1551.84,1400.07 
  1555.69,86.6468 1559.54,1400.07 1563.39,86.6468 1567.24,1400.07 1571.09,86.6468 1574.94,1400.07 1578.79,86.6468 1582.63,1400.07 1586.48,86.6468 1590.33,1400.07 
  1594.18,86.6468 1598.03,1400.07 1601.88,86.6468 1605.73,1400.07 1609.58,86.6468 1613.42,1400.07 1617.27,86.6468 1621.12,1400.07 1624.97,86.6468 1628.82,1400.07 
  1632.67,86.6468 1636.52,1400.07 1640.37,86.6468 1644.21,1400.07 1648.06,86.6468 1651.91,1400.07 1655.76,86.6468 1659.61,1400.07 1663.46,86.6468 1667.31,1400.07 
  1671.16,86.6468 1675,1400.07 1678.85,86.6468 1682.7,1400.07 1686.55,86.6468 1690.4,1400.07 1694.25,86.6468 1698.1,1400.07 1701.95,86.6468 1705.79,1400.07 
  1709.64,86.6468 1713.49,1400.07 1717.34,86.6468 1721.19,1400.07 1725.04,86.6468 1728.89,1400.07 1732.74,86.6468 1736.58,1400.07 1740.43,86.6468 1744.28,1400.07 
  1748.13,86.6468 1751.98,1400.07 1755.83,86.6468 1759.68,1400.07 1763.53,86.6468 1767.37,1400.07 1771.22,86.6468 1775.07,1400.07 1778.92,86.6468 1782.77,1400.07 
  1786.62,86.6468 1790.47,1400.07 1794.32,86.6468 1798.16,1400.07 1802.01,86.6468 1805.86,1400.07 1809.71,86.6468 1813.56,1400.07 1817.41,86.6468 1821.26,1400.07 
  1825.11,86.6468 1828.95,1400.07 1832.8,86.6468 1836.65,1400.07 1840.5,86.6468 1844.35,1400.07 1848.2,86.6468 1852.05,1400.07 1855.9,86.6468 1859.74,1400.07 
  1863.59,86.6468 1867.44,1400.07 1871.29,86.6468 1875.14,1400.07 1878.99,86.6468 1882.84,1400.07 1886.69,86.6468 1890.53,1400.07 1894.38,86.6468 1898.23,1400.07 
  1902.08,86.6468 1905.93,1400.07 1909.78,86.6468 1913.63,1400.07 1917.48,86.6468 1921.32,1400.07 1925.17,86.6468 1929.02,1400.07 1932.87,86.6468 1936.72,1400.07 
  1940.57,86.6468 1944.42,1400.07 1948.27,86.6468 1952.11,1400.07 1955.96,86.6468 1959.81,1400.07 1963.66,86.6468 1967.51,1400.07 1971.36,86.6468 1975.21,1400.07 
  1979.06,86.6468 1982.9,1400.07 1986.75,86.6468 1990.6,1400.07 1994.45,86.6468 1998.3,1400.07 2002.15,86.6468 2006,1400.07 2009.85,86.6468 2013.69,1400.07 
  2017.54,86.6468 2021.39,1400.07 2025.24,86.6468 2029.09,1400.07 2032.94,86.6468 2036.79,1400.07 2040.64,86.6468 2044.48,1400.07 2048.33,86.6468 2052.18,1400.07 
  2056.03,86.6468 2059.88,1400.07 2063.73,86.6468 2067.58,1400.07 2071.43,86.6468 2075.27,1400.07 2079.12,86.6468 2082.97,1400.07 2086.82,86.6468 2090.67,1400.07 
  2094.52,86.6468 2098.37,1400.07 2102.22,86.6468 2106.06,1400.07 2109.91,86.6468 2113.76,1400.07 2117.61,86.6468 2121.46,1400.07 2125.31,86.6468 2129.16,1400.07 
  2133.01,86.6468 2136.85,1400.07 2140.7,86.6468 2144.55,1400.07 2148.4,86.6468 2152.25,1400.07 2156.1,86.6468 2159.95,1400.07 2163.8,86.6468 2167.64,1400.07 
  
  "/>
<polygon clip-path="url(#clip3501)" points="
1874.91,306.444 2156.14,306.444 2156.14,125.004 1874.91,125.004 
  " fill="#ffffff" fill-rule="evenodd" fill-opacity="1"/>
<polyline clip-path="url(#clip3501)" style="stroke:#000000; stroke-width:4; stroke-opacity:1; fill:none" points="
  1874.91,306.444 2156.14,306.444 2156.14,125.004 1874.91,125.004 1874.91,306.444 
  "/>
<polyline clip-path="url(#clip3501)" style="stroke:#009af9; stroke-width:4; stroke-opacity:1; fill:none" points="
  1897.95,185.484 2036.19,185.484 
  "/>
<g clip-path="url(#clip3501)">
<text style="fill:#000000; fill-opacity:1; font-family:Arial,Helvetica Neue,Helvetica,sans-serif; font-size:48px; text-anchor:start;" transform="rotate(0, 2059.23, 202.984)" x="2059.23" y="202.984">y1</text>
</g>
<polyline clip-path="url(#clip3501)" style="stroke:#e26f46; stroke-width:4; stroke-opacity:1; fill:none" points="
  1897.95,245.964 2036.19,245.964 
  "/>
<g clip-path="url(#clip3501)">
<text style="fill:#000000; fill-opacity:1; font-family:Arial,Helvetica Neue,Helvetica,sans-serif; font-size:48px; text-anchor:start;" transform="rotate(0, 2059.23, 263.464)" x="2059.23" y="263.464">y2</text>
</g>
</svg>
