<?xml version="1.0" encoding="utf-8"?>
<svg xmlns="http://www.w3.org/2000/svg" xmlns:xlink="http://www.w3.org/1999/xlink" width="576" height="384" viewBox="0 0 2304 1536">
<defs>
  <clipPath id="clip3700">
    <rect x="0" y="0" width="2000" height="2000"/>
  </clipPath>
</defs>
<defs>
  <clipPath id="clip3701">
    <rect x="0" y="0" width="2304" height="1536"/>
  </clipPath>
</defs>
<polygon clip-path="url(#clip3701)" points="
0,1536 2304,1536 2304,0 0,0 
  " fill="#ffffff" fill-rule="evenodd" fill-opacity="1"/>
<defs>
  <clipPath id="clip3702">
    <rect x="460" y="0" width="1614" height="1536"/>
  </clipPath>
</defs>
<polygon clip-path="url(#clip3701)" points="
189.504,1439.47 2225.26,1439.47 2225.26,47.2441 189.504,47.2441 
  " fill="#ffffff" fill-rule="evenodd" fill-opacity="1"/>
<defs>
  <clipPath id="clip3703">
    <rect x="189" y="47" width="2037" height="1393"/>
  </clipPath>
</defs>
<polyline clip-path="url(#clip3703)" style="stroke:#000000; stroke-width:2; stroke-opacity:0.1; fill:none" points="
  487.185,1439.47 487.185,47.2441 
  "/>
<polyline clip-path="url(#clip3703)" style="stroke:#000000; stroke-width:2; stroke-opacity:0.1; fill:none" points="
  967.316,1439.47 967.316,47.2441 
  "/>
<polyline clip-path="url(#clip3703)" style="stroke:#000000; stroke-width:2; stroke-opacity:0.1; fill:none" points="
  1447.45,1439.47 1447.45,47.2441 
  "/>
<polyline clip-path="url(#clip3703)" style="stroke:#000000; stroke-width:2; stroke-opacity:0.1; fill:none" points="
  1927.58,1439.47 1927.58,47.2441 
  "/>
<polyline clip-path="url(#clip3703)" style="stroke:#000000; stroke-width:2; stroke-opacity:0.1; fill:none" points="
  189.504,1404.15 2225.26,1404.15 
  "/>
<polyline clip-path="url(#clip3703)" style="stroke:#000000; stroke-width:2; stroke-opacity:0.1; fill:none" points="
  189.504,1073.76 2225.26,1073.76 
  "/>
<polyline clip-path="url(#clip3703)" style="stroke:#000000; stroke-width:2; stroke-opacity:0.1; fill:none" points="
  189.504,743.359 2225.26,743.359 
  "/>
<polyline clip-path="url(#clip3703)" style="stroke:#000000; stroke-width:2; stroke-opacity:0.1; fill:none" points="
  189.504,412.964 2225.26,412.964 
  "/>
<polyline clip-path="url(#clip3703)" style="stroke:#000000; stroke-width:2; stroke-opacity:0.1; fill:none" points="
  189.504,82.5679 2225.26,82.5679 
  "/>
<polyline clip-path="url(#clip3701)" style="stroke:#000000; stroke-width:4; stroke-opacity:1; fill:none" points="
  189.504,1439.47 2225.26,1439.47 
  "/>
<polyline clip-path="url(#clip3701)" style="stroke:#000000; stroke-width:4; stroke-opacity:1; fill:none" points="
  189.504,1439.47 189.504,47.2441 
  "/>
<polyline clip-path="url(#clip3701)" style="stroke:#000000; stroke-width:4; stroke-opacity:1; fill:none" points="
  487.185,1439.47 487.185,1418.59 
  "/>
<polyline clip-path="url(#clip3701)" style="stroke:#000000; stroke-width:4; stroke-opacity:1; fill:none" points="
  967.316,1439.47 967.316,1418.59 
  "/>
<polyline clip-path="url(#clip3701)" style="stroke:#000000; stroke-width:4; stroke-opacity:1; fill:none" points="
  1447.45,1439.47 1447.45,1418.59 
  "/>
<polyline clip-path="url(#clip3701)" style="stroke:#000000; stroke-width:4; stroke-opacity:1; fill:none" points="
  1927.58,1439.47 1927.58,1418.59 
  "/>
<polyline clip-path="url(#clip3701)" style="stroke:#000000; stroke-width:4; stroke-opacity:1; fill:none" points="
  189.504,1404.15 220.04,1404.15 
  "/>
<polyline clip-path="url(#clip3701)" style="stroke:#000000; stroke-width:4; stroke-opacity:1; fill:none" points="
  189.504,1073.76 220.04,1073.76 
  "/>
<polyline clip-path="url(#clip3701)" style="stroke:#000000; stroke-width:4; stroke-opacity:1; fill:none" points="
  189.504,743.359 220.04,743.359 
  "/>
<polyline clip-path="url(#clip3701)" style="stroke:#000000; stroke-width:4; stroke-opacity:1; fill:none" points="
  189.504,412.964 220.04,412.964 
  "/>
<polyline clip-path="url(#clip3701)" style="stroke:#000000; stroke-width:4; stroke-opacity:1; fill:none" points="
  189.504,82.5679 220.04,82.5679 
  "/>
<g clip-path="url(#clip3701)">
<text style="fill:#000000; fill-opacity:1; font-family:Arial,Helvetica Neue,Helvetica,sans-serif; font-size:48px; text-anchor:middle;" transform="rotate(0, 487.185, 1492.99)" x="487.185" y="1492.99">0.2</text>
</g>
<g clip-path="url(#clip3701)">
<text style="fill:#000000; fill-opacity:1; font-family:Arial,Helvetica Neue,Helvetica,sans-serif; font-size:48px; text-anchor:middle;" transform="rotate(0, 967.316, 1492.99)" x="967.316" y="1492.99">0.4</text>
</g>
<g clip-path="url(#clip3701)">
<text style="fill:#000000; fill-opacity:1; font-family:Arial,Helvetica Neue,Helvetica,sans-serif; font-size:48px; text-anchor:middle;" transform="rotate(0, 1447.45, 1492.99)" x="1447.45" y="1492.99">0.6</text>
</g>
<g clip-path="url(#clip3701)">
<text style="fill:#000000; fill-opacity:1; font-family:Arial,Helvetica Neue,Helvetica,sans-serif; font-size:48px; text-anchor:middle;" transform="rotate(0, 1927.58, 1492.99)" x="1927.58" y="1492.99">0.8</text>
</g>
<g clip-path="url(#clip3701)">
<text style="fill:#000000; fill-opacity:1; font-family:Arial,Helvetica Neue,Helvetica,sans-serif; font-size:48px; text-anchor:end;" transform="rotate(0, 166.464, 1421.65)" x="166.464" y="1421.65">-1.0</text>
</g>
<g clip-path="url(#clip3701)">
<text style="fill:#000000; fill-opacity:1; font-family:Arial,Helvetica Neue,Helvetica,sans-serif; font-size:48px; text-anchor:end;" transform="rotate(0, 166.464, 1091.26)" x="166.464" y="1091.26">-0.5</text>
</g>
<g clip-path="url(#clip3701)">
<text style="fill:#000000; fill-opacity:1; font-family:Arial,Helvetica Neue,Helvetica,sans-serif; font-size:48px; text-anchor:end;" transform="rotate(0, 166.464, 760.859)" x="166.464" y="760.859">0.0</text>
</g>
<g clip-path="url(#clip3701)">
<text style="fill:#000000; fill-opacity:1; font-family:Arial,Helvetica Neue,Helvetica,sans-serif; font-size:48px; text-anchor:end;" transform="rotate(0, 166.464, 430.464)" x="166.464" y="430.464">0.5</text>
</g>
<g clip-path="url(#clip3701)">
<text style="fill:#000000; fill-opacity:1; font-family:Arial,Helvetica Neue,Helvetica,sans-serif; font-size:48px; text-anchor:end;" transform="rotate(0, 166.464, 100.068)" x="166.464" y="100.068">1.0</text>
</g>
<polyline clip-path="url(#clip3703)" style="stroke:#009af9; stroke-width:4; stroke-opacity:1; fill:none" points="
  247.12,412.964 286.314,326.729 325.509,270.327 364.703,231.429 403.897,203.476 443.092,182.717 482.286,166.879 521.48,154.521 560.675,144.693 599.869,136.75 
  639.064,130.238 678.258,124.833 717.452,120.298 756.647,116.456 795.841,113.172 835.035,110.343 874.23,107.889 913.424,105.746 952.619,103.865 991.813,102.203 
  1031.01,100.729 1070.2,99.4143 1109.4,98.2376 1148.59,97.1801 1187.78,96.2261 1226.98,95.3625 1266.17,94.5784 1305.37,93.8642 1344.56,93.2118 1383.76,92.6144 
  1422.95,92.0659 1462.15,91.5611 1501.34,91.0955 1540.53,90.6651 1579.73,90.2666 1618.92,89.8967 1658.12,89.5529 1697.31,89.2327 1736.51,88.934 1775.7,88.655 
  1814.89,88.3939 1854.09,88.1493 1893.28,87.9198 1932.48,87.7041 1971.67,87.5012 2010.87,87.3101 2050.06,87.1299 2089.26,86.9598 2128.45,86.799 2167.64,86.6468 
  
  "/>
<polyline clip-path="url(#clip3703)" style="stroke:#e26f46; stroke-width:4; stroke-opacity:1; fill:none" points="
  247.12,1400.07 286.314,1399.92 325.509,1399.76 364.703,1399.59 403.897,1399.41 443.092,1399.22 482.286,1399.01 521.48,1398.8 560.675,1398.57 599.869,1398.32 
  639.064,1398.06 678.258,1397.78 717.452,1397.49 756.647,1397.17 795.841,1396.82 835.035,1396.45 874.23,1396.05 913.424,1395.62 952.619,1395.16 991.813,1394.65 
  1031.01,1394.1 1070.2,1393.51 1109.4,1392.85 1148.59,1392.14 1187.78,1391.36 1226.98,1390.49 1266.17,1389.54 1305.37,1388.48 1344.56,1387.3 1383.76,1385.99 
  1422.95,1384.52 1462.15,1382.85 1501.34,1380.97 1540.53,1378.83 1579.73,1376.38 1618.92,1373.55 1658.12,1370.26 1697.31,1366.42 1736.51,1361.89 1775.7,1356.48 
  1814.89,1349.97 1854.09,1342.03 1893.28,1332.2 1932.48,1319.84 1971.67,1304 2010.87,1283.24 2050.06,1255.29 2089.26,1216.39 2128.45,1159.99 2167.64,1073.76 
  
  "/>
<polygon clip-path="url(#clip3701)" points="
1519.11,306.444 2156.14,306.444 2156.14,125.004 1519.11,125.004 
  " fill="#ffffff" fill-rule="evenodd" fill-opacity="1"/>
<polyline clip-path="url(#clip3701)" style="stroke:#000000; stroke-width:4; stroke-opacity:1; fill:none" points="
  1519.11,306.444 2156.14,306.444 2156.14,125.004 1519.11,125.004 1519.11,306.444 
  "/>
<polyline clip-path="url(#clip3701)" style="stroke:#009af9; stroke-width:4; stroke-opacity:1; fill:none" points="
  1542.15,185.484 1680.39,185.484 
  "/>
<g clip-path="url(#clip3701)">
<text style="fill:#000000; fill-opacity:1; font-family:Arial,Helvetica Neue,Helvetica,sans-serif; font-size:48px; text-anchor:start;" transform="rotate(0, 1703.43, 202.984)" x="1703.43" y="202.984">Derivada do bem 1</text>
</g>
<polyline clip-path="url(#clip3701)" style="stroke:#e26f46; stroke-width:4; stroke-opacity:1; fill:none" points="
  1542.15,245.964 1680.39,245.964 
  "/>
<g clip-path="url(#clip3701)">
<text style="fill:#000000; fill-opacity:1; font-family:Arial,Helvetica Neue,Helvetica,sans-serif; font-size:48px; text-anchor:start;" transform="rotate(0, 1703.43, 263.464)" x="1703.43" y="263.464">Derivada do bem 2</text>
</g>
</svg>
