<?xml version="1.0" encoding="utf-8"?>
<svg xmlns="http://www.w3.org/2000/svg" xmlns:xlink="http://www.w3.org/1999/xlink" width="600" height="400" viewBox="0 0 600 400">
<defs>
  <clipPath id="clip3700">
    <rect x="0" y="0" width="600" height="400"/>
  </clipPath>
</defs>
<polygon clip-path="url(#clip3700)" points="
0,400 600,400 600,0 0,0 
  " fill="#ffffff" fill-opacity="1"/>
<defs>
  <clipPath id="clip3701">
    <rect x="120" y="0" width="421" height="400"/>
  </clipPath>
</defs>
<polygon clip-path="url(#clip3700)" points="
34.9291,377.168 580.315,377.168 580.315,11.811 34.9291,11.811 
  " fill="#ffffff" fill-opacity="1"/>
<defs>
  <clipPath id="clip3702">
    <rect x="34" y="11" width="546" height="366"/>
  </clipPath>
</defs>
<polyline clip-path="url(#clip3702)" style="stroke:#000000; stroke-width:0.5; stroke-opacity:0.1; fill:none" points="
  50.3646,377.168 50.3646,11.811 
  "/>
<polyline clip-path="url(#clip3702)" style="stroke:#000000; stroke-width:0.5; stroke-opacity:0.1; fill:none" points="
  136.117,377.168 136.117,11.811 
  "/>
<polyline clip-path="url(#clip3702)" style="stroke:#000000; stroke-width:0.5; stroke-opacity:0.1; fill:none" points="
  221.87,377.168 221.87,11.811 
  "/>
<polyline clip-path="url(#clip3702)" style="stroke:#000000; stroke-width:0.5; stroke-opacity:0.1; fill:none" points="
  307.622,377.168 307.622,11.811 
  "/>
<polyline clip-path="url(#clip3702)" style="stroke:#000000; stroke-width:0.5; stroke-opacity:0.1; fill:none" points="
  393.375,377.168 393.375,11.811 
  "/>
<polyline clip-path="url(#clip3702)" style="stroke:#000000; stroke-width:0.5; stroke-opacity:0.1; fill:none" points="
  479.127,377.168 479.127,11.811 
  "/>
<polyline clip-path="url(#clip3702)" style="stroke:#000000; stroke-width:0.5; stroke-opacity:0.1; fill:none" points="
  564.88,377.168 564.88,11.811 
  "/>
<polyline clip-path="url(#clip3702)" style="stroke:#000000; stroke-width:0.5; stroke-opacity:0.1; fill:none" points="
  34.9291,333.064 580.315,333.064 
  "/>
<polyline clip-path="url(#clip3702)" style="stroke:#000000; stroke-width:0.5; stroke-opacity:0.1; fill:none" points="
  34.9291,253.702 580.315,253.702 
  "/>
<polyline clip-path="url(#clip3702)" style="stroke:#000000; stroke-width:0.5; stroke-opacity:0.1; fill:none" points="
  34.9291,174.34 580.315,174.34 
  "/>
<polyline clip-path="url(#clip3702)" style="stroke:#000000; stroke-width:0.5; stroke-opacity:0.1; fill:none" points="
  34.9291,94.9782 580.315,94.9782 
  "/>
<polyline clip-path="url(#clip3702)" style="stroke:#000000; stroke-width:0.5; stroke-opacity:0.1; fill:none" points="
  34.9291,15.6163 580.315,15.6163 
  "/>
<polyline clip-path="url(#clip3700)" style="stroke:#000000; stroke-width:1; stroke-opacity:1; fill:none" points="
  34.9291,377.168 580.315,377.168 
  "/>
<polyline clip-path="url(#clip3700)" style="stroke:#000000; stroke-width:1; stroke-opacity:1; fill:none" points="
  34.9291,377.168 34.9291,11.811 
  "/>
<polyline clip-path="url(#clip3700)" style="stroke:#000000; stroke-width:1; stroke-opacity:1; fill:none" points="
  50.3646,377.168 50.3646,371.688 
  "/>
<polyline clip-path="url(#clip3700)" style="stroke:#000000; stroke-width:1; stroke-opacity:1; fill:none" points="
  136.117,377.168 136.117,371.688 
  "/>
<polyline clip-path="url(#clip3700)" style="stroke:#000000; stroke-width:1; stroke-opacity:1; fill:none" points="
  221.87,377.168 221.87,371.688 
  "/>
<polyline clip-path="url(#clip3700)" style="stroke:#000000; stroke-width:1; stroke-opacity:1; fill:none" points="
  307.622,377.168 307.622,371.688 
  "/>
<polyline clip-path="url(#clip3700)" style="stroke:#000000; stroke-width:1; stroke-opacity:1; fill:none" points="
  393.375,377.168 393.375,371.688 
  "/>
<polyline clip-path="url(#clip3700)" style="stroke:#000000; stroke-width:1; stroke-opacity:1; fill:none" points="
  479.127,377.168 479.127,371.688 
  "/>
<polyline clip-path="url(#clip3700)" style="stroke:#000000; stroke-width:1; stroke-opacity:1; fill:none" points="
  564.88,377.168 564.88,371.688 
  "/>
<polyline clip-path="url(#clip3700)" style="stroke:#000000; stroke-width:1; stroke-opacity:1; fill:none" points="
  34.9291,333.064 43.1099,333.064 
  "/>
<polyline clip-path="url(#clip3700)" style="stroke:#000000; stroke-width:1; stroke-opacity:1; fill:none" points="
  34.9291,253.702 43.1099,253.702 
  "/>
<polyline clip-path="url(#clip3700)" style="stroke:#000000; stroke-width:1; stroke-opacity:1; fill:none" points="
  34.9291,174.34 43.1099,174.34 
  "/>
<polyline clip-path="url(#clip3700)" style="stroke:#000000; stroke-width:1; stroke-opacity:1; fill:none" points="
  34.9291,94.9782 43.1099,94.9782 
  "/>
<polyline clip-path="url(#clip3700)" style="stroke:#000000; stroke-width:1; stroke-opacity:1; fill:none" points="
  34.9291,15.6163 43.1099,15.6163 
  "/>
<g clip-path="url(#clip3700)">
<text style="fill:#000000; fill-opacity:1; font-family:Arial,Helvetica Neue,Helvetica,sans-serif; font-size:12; text-anchor:middle;" transform="rotate(0, 50.3646, 390.968)" x="50.3646" y="390.968">-3</text>
</g>
<g clip-path="url(#clip3700)">
<text style="fill:#000000; fill-opacity:1; font-family:Arial,Helvetica Neue,Helvetica,sans-serif; font-size:12; text-anchor:middle;" transform="rotate(0, 136.117, 390.968)" x="136.117" y="390.968">-2</text>
</g>
<g clip-path="url(#clip3700)">
<text style="fill:#000000; fill-opacity:1; font-family:Arial,Helvetica Neue,Helvetica,sans-serif; font-size:12; text-anchor:middle;" transform="rotate(0, 221.87, 390.968)" x="221.87" y="390.968">-1</text>
</g>
<g clip-path="url(#clip3700)">
<text style="fill:#000000; fill-opacity:1; font-family:Arial,Helvetica Neue,Helvetica,sans-serif; font-size:12; text-anchor:middle;" transform="rotate(0, 307.622, 390.968)" x="307.622" y="390.968">0</text>
</g>
<g clip-path="url(#clip3700)">
<text style="fill:#000000; fill-opacity:1; font-family:Arial,Helvetica Neue,Helvetica,sans-serif; font-size:12; text-anchor:middle;" transform="rotate(0, 393.375, 390.968)" x="393.375" y="390.968">1</text>
</g>
<g clip-path="url(#clip3700)">
<text style="fill:#000000; fill-opacity:1; font-family:Arial,Helvetica Neue,Helvetica,sans-serif; font-size:12; text-anchor:middle;" transform="rotate(0, 479.127, 390.968)" x="479.127" y="390.968">2</text>
</g>
<g clip-path="url(#clip3700)">
<text style="fill:#000000; fill-opacity:1; font-family:Arial,Helvetica Neue,Helvetica,sans-serif; font-size:12; text-anchor:middle;" transform="rotate(0, 564.88, 390.968)" x="564.88" y="390.968">3</text>
</g>
<g clip-path="url(#clip3700)">
<text style="fill:#000000; fill-opacity:1; font-family:Arial,Helvetica Neue,Helvetica,sans-serif; font-size:12; text-anchor:end;" transform="rotate(0, 28.9291, 337.564)" x="28.9291" y="337.564">0</text>
</g>
<g clip-path="url(#clip3700)">
<text style="fill:#000000; fill-opacity:1; font-family:Arial,Helvetica Neue,Helvetica,sans-serif; font-size:12; text-anchor:end;" transform="rotate(0, 28.9291, 258.202)" x="28.9291" y="258.202">10</text>
</g>
<g clip-path="url(#clip3700)">
<text style="fill:#000000; fill-opacity:1; font-family:Arial,Helvetica Neue,Helvetica,sans-serif; font-size:12; text-anchor:end;" transform="rotate(0, 28.9291, 178.84)" x="28.9291" y="178.84">20</text>
</g>
<g clip-path="url(#clip3700)">
<text style="fill:#000000; fill-opacity:1; font-family:Arial,Helvetica Neue,Helvetica,sans-serif; font-size:12; text-anchor:end;" transform="rotate(0, 28.9291, 99.4782)" x="28.9291" y="99.4782">30</text>
</g>
<g clip-path="url(#clip3700)">
<text style="fill:#000000; fill-opacity:1; font-family:Arial,Helvetica Neue,Helvetica,sans-serif; font-size:12; text-anchor:end;" transform="rotate(0, 28.9291, 20.1163)" x="28.9291" y="20.1163">40</text>
</g>
<circle clip-path="url(#clip3702)" style="fill:#000000; stroke:none; fill-opacity:1" cx="50.3646" cy="333.029" r="4"/>
<circle clip-path="url(#clip3702)" style="fill:#009af9; stroke:none; fill-opacity:1" cx="50.3646" cy="333.029" r="3"/>
<circle clip-path="url(#clip3702)" style="fill:#000000; stroke:none; fill-opacity:1" cx="87.1157" cy="333.016" r="4"/>
<circle clip-path="url(#clip3702)" style="fill:#009af9; stroke:none; fill-opacity:1" cx="87.1157" cy="333.016" r="3"/>
<circle clip-path="url(#clip3702)" style="fill:#000000; stroke:none; fill-opacity:1" cx="123.867" cy="332.995" r="4"/>
<circle clip-path="url(#clip3702)" style="fill:#009af9; stroke:none; fill-opacity:1" cx="123.867" cy="332.995" r="3"/>
<circle clip-path="url(#clip3702)" style="fill:#000000; stroke:none; fill-opacity:1" cx="160.618" cy="332.957" r="4"/>
<circle clip-path="url(#clip3702)" style="fill:#009af9; stroke:none; fill-opacity:1" cx="160.618" cy="332.957" r="3"/>
<circle clip-path="url(#clip3702)" style="fill:#000000; stroke:none; fill-opacity:1" cx="197.369" cy="332.876" r="4"/>
<circle clip-path="url(#clip3702)" style="fill:#009af9; stroke:none; fill-opacity:1" cx="197.369" cy="332.876" r="3"/>
<circle clip-path="url(#clip3702)" style="fill:#000000; stroke:none; fill-opacity:1" cx="234.12" cy="332.654" r="4"/>
<circle clip-path="url(#clip3702)" style="fill:#009af9; stroke:none; fill-opacity:1" cx="234.12" cy="332.654" r="3"/>
<circle clip-path="url(#clip3702)" style="fill:#000000; stroke:none; fill-opacity:1" cx="270.871" cy="331.645" r="4"/>
<circle clip-path="url(#clip3702)" style="fill:#009af9; stroke:none; fill-opacity:1" cx="270.871" cy="331.645" r="3"/>
<circle clip-path="url(#clip3702)" style="fill:#000000; stroke:none; fill-opacity:1" cx="307.622" cy="325.128" r="4"/>
<circle clip-path="url(#clip3702)" style="fill:#009af9; stroke:none; fill-opacity:1" cx="307.622" cy="325.128" r="3"/>
<circle clip-path="url(#clip3702)" style="fill:#000000; stroke:none; fill-opacity:1" cx="344.373" cy="331.645" r="4"/>
<circle clip-path="url(#clip3702)" style="fill:#009af9; stroke:none; fill-opacity:1" cx="344.373" cy="331.645" r="3"/>
<circle clip-path="url(#clip3702)" style="fill:#000000; stroke:none; fill-opacity:1" cx="381.124" cy="332.654" r="4"/>
<circle clip-path="url(#clip3702)" style="fill:#009af9; stroke:none; fill-opacity:1" cx="381.124" cy="332.654" r="3"/>
<circle clip-path="url(#clip3702)" style="fill:#000000; stroke:none; fill-opacity:1" cx="417.875" cy="332.876" r="4"/>
<circle clip-path="url(#clip3702)" style="fill:#009af9; stroke:none; fill-opacity:1" cx="417.875" cy="332.876" r="3"/>
<circle clip-path="url(#clip3702)" style="fill:#000000; stroke:none; fill-opacity:1" cx="454.626" cy="332.957" r="4"/>
<circle clip-path="url(#clip3702)" style="fill:#009af9; stroke:none; fill-opacity:1" cx="454.626" cy="332.957" r="3"/>
<circle clip-path="url(#clip3702)" style="fill:#000000; stroke:none; fill-opacity:1" cx="491.377" cy="332.995" r="4"/>
<circle clip-path="url(#clip3702)" style="fill:#009af9; stroke:none; fill-opacity:1" cx="491.377" cy="332.995" r="3"/>
<circle clip-path="url(#clip3702)" style="fill:#000000; stroke:none; fill-opacity:1" cx="528.128" cy="333.016" r="4"/>
<circle clip-path="url(#clip3702)" style="fill:#009af9; stroke:none; fill-opacity:1" cx="528.128" cy="333.016" r="3"/>
<circle clip-path="url(#clip3702)" style="fill:#000000; stroke:none; fill-opacity:1" cx="564.88" cy="333.029" r="4"/>
<circle clip-path="url(#clip3702)" style="fill:#009af9; stroke:none; fill-opacity:1" cx="564.88" cy="333.029" r="3"/>
<polyline clip-path="url(#clip3702)" style="stroke:#e26f46; stroke-width:2; stroke-opacity:1; fill:none" points="
  50.3646,333.029 55.5617,77.6577 60.7588,22.1513 65.9559,63.9795 71.1531,141.563 76.3502,220.866 81.5473,285.651 86.7444,330.571 91.9415,356.392 97.1387,366.828 
  102.336,366.541 107.533,359.976 112.73,350.771 117.927,341.542 123.124,333.903 128.321,328.619 133.519,325.806 138.716,325.152 143.913,326.104 149.11,328.032 
  154.307,330.338 159.504,332.536 164.701,334.286 169.898,335.404 175.095,335.845 180.293,335.677 185.49,335.046 190.687,334.14 195.884,333.149 201.081,332.248 
  206.278,331.568 211.475,331.188 216.672,331.132 221.87,331.372 227.067,331.839 232.264,332.433 237.461,333.039 242.658,333.544 247.855,333.849 253.052,333.88 
  258.249,333.595 263.447,332.991 268.644,332.1 273.841,330.985 279.038,329.738 284.235,328.464 289.432,327.275 294.629,326.275 299.826,325.553 305.023,325.176 
  310.221,325.176 315.418,325.553 320.615,326.275 325.812,327.275 331.009,328.464 336.206,329.738 341.403,330.985 346.6,332.1 351.798,332.991 356.995,333.595 
  362.192,333.88 367.389,333.849 372.586,333.544 377.783,333.039 382.98,332.433 388.177,331.839 393.375,331.372 398.572,331.132 403.769,331.188 408.966,331.568 
  414.163,332.248 419.36,333.149 424.557,334.14 429.754,335.046 434.952,335.677 440.149,335.845 445.346,335.404 450.543,334.286 455.74,332.536 460.937,330.338 
  466.134,328.032 471.331,326.104 476.528,325.152 481.726,325.806 486.923,328.619 492.12,333.903 497.317,341.542 502.514,350.771 507.711,359.976 512.908,366.541 
  518.105,366.828 523.303,356.392 528.5,330.571 533.697,285.651 538.894,220.866 544.091,141.563 549.288,63.9795 554.485,22.1513 559.682,77.6577 564.88,333.029 
  
  "/>
<polyline clip-path="url(#clip3702)" style="stroke:#3da44d; stroke-width:2; stroke-opacity:1; fill:none" stroke-dasharray="1, 2" points="
  50.3646,333.029 55.5617,333.027 60.7588,333.026 65.9559,333.024 71.1531,333.022 76.3502,333.02 81.5473,333.018 86.7444,333.016 91.9415,333.014 97.1387,333.011 
  102.336,333.009 107.533,333.006 112.73,333.003 117.927,332.999 123.124,332.996 128.321,332.992 133.519,332.987 138.716,332.983 143.913,332.978 149.11,332.972 
  154.307,332.966 159.504,332.959 164.701,332.951 169.898,332.943 175.095,332.933 180.293,332.922 185.49,332.91 190.687,332.897 195.884,332.881 201.081,332.863 
  206.278,332.843 211.475,332.819 216.672,332.791 221.87,332.759 227.067,332.72 232.264,332.673 237.461,332.616 242.658,332.547 247.855,332.46 253.052,332.35 
  258.249,332.209 263.447,332.024 268.644,331.777 273.841,331.437 279.038,330.963 284.235,330.288 289.432,329.329 294.629,328.021 299.826,326.487 305.023,325.306 
  310.221,325.306 315.418,326.487 320.615,328.021 325.812,329.329 331.009,330.288 336.206,330.963 341.403,331.437 346.6,331.777 351.798,332.024 356.995,332.209 
  362.192,332.35 367.389,332.46 372.586,332.547 377.783,332.616 382.98,332.673 388.177,332.72 393.375,332.759 398.572,332.791 403.769,332.819 408.966,332.843 
  414.163,332.863 419.36,332.881 424.557,332.897 429.754,332.91 434.952,332.922 440.149,332.933 445.346,332.943 450.543,332.951 455.74,332.959 460.937,332.966 
  466.134,332.972 471.331,332.978 476.528,332.983 481.726,332.987 486.923,332.992 492.12,332.996 497.317,332.999 502.514,333.003 507.711,333.006 512.908,333.009 
  518.105,333.011 523.303,333.014 528.5,333.016 533.697,333.018 538.894,333.02 544.091,333.022 549.288,333.024 554.485,333.026 559.682,333.027 564.88,333.029 
  
  "/>
<polygon clip-path="url(#clip3700)" points="
368.539,93.171 562.315,93.171 562.315,32.691 368.539,32.691 
  " fill="#ffffff" fill-opacity="1"/>
<polyline clip-path="url(#clip3700)" style="stroke:#000000; stroke-width:1; stroke-opacity:1; fill:none" points="
  368.539,93.171 562.315,93.171 562.315,32.691 368.539,32.691 368.539,93.171 
  "/>
<circle clip-path="url(#clip3700)" style="fill:#000000; stroke:none; fill-opacity:1" cx="395.539" cy="47.811" r="6"/>
<circle clip-path="url(#clip3700)" style="fill:#009af9; stroke:none; fill-opacity:1" cx="395.539" cy="47.811" r="5"/>
<g clip-path="url(#clip3700)">
<text style="fill:#000000; fill-opacity:1; font-family:Arial,Helvetica Neue,Helvetica,sans-serif; font-size:12; text-anchor:start;" transform="rotate(0, 416.539, 52.311)" x="416.539" y="52.311">Pontos para interpolação</text>
</g>
<polyline clip-path="url(#clip3700)" style="stroke:#e26f46; stroke-width:2; stroke-opacity:1; fill:none" points="
  374.539,62.931 410.539,62.931 
  "/>
<g clip-path="url(#clip3700)">
<text style="fill:#000000; fill-opacity:1; font-family:Arial,Helvetica Neue,Helvetica,sans-serif; font-size:12; text-anchor:start;" transform="rotate(0, 416.539, 67.431)" x="416.539" y="67.431">Polinômio interpolador</text>
</g>
<polyline clip-path="url(#clip3700)" style="stroke:#3da44d; stroke-width:2; stroke-opacity:1; fill:none" stroke-dasharray="1, 2" points="
  374.539,78.051 410.539,78.051 
  "/>
<g clip-path="url(#clip3700)">
<text style="fill:#000000; fill-opacity:1; font-family:Arial,Helvetica Neue,Helvetica,sans-serif; font-size:12; text-anchor:start;" transform="rotate(0, 416.539, 82.551)" x="416.539" y="82.551">Função verdadeira</text>
</g>
</svg>
