<?xml version="1.0" encoding="utf-8"?>
<svg xmlns="http://www.w3.org/2000/svg" xmlns:xlink="http://www.w3.org/1999/xlink" width="600" height="400" viewBox="0 0 600 400">
<defs>
  <clipPath id="clip6700">
    <rect x="0" y="0" width="600" height="400"/>
  </clipPath>
</defs>
<polygon clip-path="url(#clip6700)" points="
0,400 600,400 600,0 0,0 
  " fill="#ffffff" fill-opacity="1"/>
<defs>
  <clipPath id="clip6701">
    <rect x="120" y="0" width="421" height="400"/>
  </clipPath>
</defs>
<polygon clip-path="url(#clip6700)" points="
43.4095,377.168 580.315,377.168 580.315,11.811 43.4095,11.811 
  " fill="#ffffff" fill-opacity="1"/>
<defs>
  <clipPath id="clip6702">
    <rect x="43" y="11" width="538" height="366"/>
  </clipPath>
</defs>
<polyline clip-path="url(#clip6702)" style="stroke:#000000; stroke-width:0.5; stroke-opacity:0.1; fill:none" points="
  58.6049,377.168 58.6049,11.811 
  "/>
<polyline clip-path="url(#clip6702)" style="stroke:#000000; stroke-width:0.5; stroke-opacity:0.1; fill:none" points="
  143.024,377.168 143.024,11.811 
  "/>
<polyline clip-path="url(#clip6702)" style="stroke:#000000; stroke-width:0.5; stroke-opacity:0.1; fill:none" points="
  227.443,377.168 227.443,11.811 
  "/>
<polyline clip-path="url(#clip6702)" style="stroke:#000000; stroke-width:0.5; stroke-opacity:0.1; fill:none" points="
  311.862,377.168 311.862,11.811 
  "/>
<polyline clip-path="url(#clip6702)" style="stroke:#000000; stroke-width:0.5; stroke-opacity:0.1; fill:none" points="
  396.281,377.168 396.281,11.811 
  "/>
<polyline clip-path="url(#clip6702)" style="stroke:#000000; stroke-width:0.5; stroke-opacity:0.1; fill:none" points="
  480.7,377.168 480.7,11.811 
  "/>
<polyline clip-path="url(#clip6702)" style="stroke:#000000; stroke-width:0.5; stroke-opacity:0.1; fill:none" points="
  565.12,377.168 565.12,11.811 
  "/>
<polyline clip-path="url(#clip6702)" style="stroke:#000000; stroke-width:0.5; stroke-opacity:0.1; fill:none" points="
  43.4095,368.36 580.315,368.36 
  "/>
<polyline clip-path="url(#clip6702)" style="stroke:#000000; stroke-width:0.5; stroke-opacity:0.1; fill:none" points="
  43.4095,281.808 580.315,281.808 
  "/>
<polyline clip-path="url(#clip6702)" style="stroke:#000000; stroke-width:0.5; stroke-opacity:0.1; fill:none" points="
  43.4095,195.256 580.315,195.256 
  "/>
<polyline clip-path="url(#clip6702)" style="stroke:#000000; stroke-width:0.5; stroke-opacity:0.1; fill:none" points="
  43.4095,108.703 580.315,108.703 
  "/>
<polyline clip-path="url(#clip6702)" style="stroke:#000000; stroke-width:0.5; stroke-opacity:0.1; fill:none" points="
  43.4095,22.1513 580.315,22.1513 
  "/>
<polyline clip-path="url(#clip6700)" style="stroke:#000000; stroke-width:1; stroke-opacity:1; fill:none" points="
  43.4095,377.168 580.315,377.168 
  "/>
<polyline clip-path="url(#clip6700)" style="stroke:#000000; stroke-width:1; stroke-opacity:1; fill:none" points="
  43.4095,377.168 43.4095,11.811 
  "/>
<polyline clip-path="url(#clip6700)" style="stroke:#000000; stroke-width:1; stroke-opacity:1; fill:none" points="
  58.6049,377.168 58.6049,371.688 
  "/>
<polyline clip-path="url(#clip6700)" style="stroke:#000000; stroke-width:1; stroke-opacity:1; fill:none" points="
  143.024,377.168 143.024,371.688 
  "/>
<polyline clip-path="url(#clip6700)" style="stroke:#000000; stroke-width:1; stroke-opacity:1; fill:none" points="
  227.443,377.168 227.443,371.688 
  "/>
<polyline clip-path="url(#clip6700)" style="stroke:#000000; stroke-width:1; stroke-opacity:1; fill:none" points="
  311.862,377.168 311.862,371.688 
  "/>
<polyline clip-path="url(#clip6700)" style="stroke:#000000; stroke-width:1; stroke-opacity:1; fill:none" points="
  396.281,377.168 396.281,371.688 
  "/>
<polyline clip-path="url(#clip6700)" style="stroke:#000000; stroke-width:1; stroke-opacity:1; fill:none" points="
  480.7,377.168 480.7,371.688 
  "/>
<polyline clip-path="url(#clip6700)" style="stroke:#000000; stroke-width:1; stroke-opacity:1; fill:none" points="
  565.12,377.168 565.12,371.688 
  "/>
<polyline clip-path="url(#clip6700)" style="stroke:#000000; stroke-width:1; stroke-opacity:1; fill:none" points="
  43.4095,368.36 51.463,368.36 
  "/>
<polyline clip-path="url(#clip6700)" style="stroke:#000000; stroke-width:1; stroke-opacity:1; fill:none" points="
  43.4095,281.808 51.463,281.808 
  "/>
<polyline clip-path="url(#clip6700)" style="stroke:#000000; stroke-width:1; stroke-opacity:1; fill:none" points="
  43.4095,195.256 51.463,195.256 
  "/>
<polyline clip-path="url(#clip6700)" style="stroke:#000000; stroke-width:1; stroke-opacity:1; fill:none" points="
  43.4095,108.703 51.463,108.703 
  "/>
<polyline clip-path="url(#clip6700)" style="stroke:#000000; stroke-width:1; stroke-opacity:1; fill:none" points="
  43.4095,22.1513 51.463,22.1513 
  "/>
<g clip-path="url(#clip6700)">
<text style="fill:#000000; fill-opacity:1; font-family:Arial,Helvetica Neue,Helvetica,sans-serif; font-size:12; text-anchor:middle;" transform="rotate(0, 58.6049, 390.968)" x="58.6049" y="390.968">-3</text>
</g>
<g clip-path="url(#clip6700)">
<text style="fill:#000000; fill-opacity:1; font-family:Arial,Helvetica Neue,Helvetica,sans-serif; font-size:12; text-anchor:middle;" transform="rotate(0, 143.024, 390.968)" x="143.024" y="390.968">-2</text>
</g>
<g clip-path="url(#clip6700)">
<text style="fill:#000000; fill-opacity:1; font-family:Arial,Helvetica Neue,Helvetica,sans-serif; font-size:12; text-anchor:middle;" transform="rotate(0, 227.443, 390.968)" x="227.443" y="390.968">-1</text>
</g>
<g clip-path="url(#clip6700)">
<text style="fill:#000000; fill-opacity:1; font-family:Arial,Helvetica Neue,Helvetica,sans-serif; font-size:12; text-anchor:middle;" transform="rotate(0, 311.862, 390.968)" x="311.862" y="390.968">0</text>
</g>
<g clip-path="url(#clip6700)">
<text style="fill:#000000; fill-opacity:1; font-family:Arial,Helvetica Neue,Helvetica,sans-serif; font-size:12; text-anchor:middle;" transform="rotate(0, 396.281, 390.968)" x="396.281" y="390.968">1</text>
</g>
<g clip-path="url(#clip6700)">
<text style="fill:#000000; fill-opacity:1; font-family:Arial,Helvetica Neue,Helvetica,sans-serif; font-size:12; text-anchor:middle;" transform="rotate(0, 480.7, 390.968)" x="480.7" y="390.968">2</text>
</g>
<g clip-path="url(#clip6700)">
<text style="fill:#000000; fill-opacity:1; font-family:Arial,Helvetica Neue,Helvetica,sans-serif; font-size:12; text-anchor:middle;" transform="rotate(0, 565.12, 390.968)" x="565.12" y="390.968">3</text>
</g>
<g clip-path="url(#clip6700)">
<text style="fill:#000000; fill-opacity:1; font-family:Arial,Helvetica Neue,Helvetica,sans-serif; font-size:12; text-anchor:end;" transform="rotate(0, 37.4095, 372.86)" x="37.4095" y="372.86">0.00</text>
</g>
<g clip-path="url(#clip6700)">
<text style="fill:#000000; fill-opacity:1; font-family:Arial,Helvetica Neue,Helvetica,sans-serif; font-size:12; text-anchor:end;" transform="rotate(0, 37.4095, 286.308)" x="37.4095" y="286.308">0.25</text>
</g>
<g clip-path="url(#clip6700)">
<text style="fill:#000000; fill-opacity:1; font-family:Arial,Helvetica Neue,Helvetica,sans-serif; font-size:12; text-anchor:end;" transform="rotate(0, 37.4095, 199.756)" x="37.4095" y="199.756">0.50</text>
</g>
<g clip-path="url(#clip6700)">
<text style="fill:#000000; fill-opacity:1; font-family:Arial,Helvetica Neue,Helvetica,sans-serif; font-size:12; text-anchor:end;" transform="rotate(0, 37.4095, 113.203)" x="37.4095" y="113.203">0.75</text>
</g>
<g clip-path="url(#clip6700)">
<text style="fill:#000000; fill-opacity:1; font-family:Arial,Helvetica Neue,Helvetica,sans-serif; font-size:12; text-anchor:end;" transform="rotate(0, 37.4095, 26.6513)" x="37.4095" y="26.6513">1.00</text>
</g>
<circle clip-path="url(#clip6702)" style="fill:#000000; stroke:none; fill-opacity:1" cx="58.6049" cy="366.828" r="4"/>
<circle clip-path="url(#clip6702)" style="fill:#009af9; stroke:none; fill-opacity:1" cx="58.6049" cy="366.828" r="3"/>
<circle clip-path="url(#clip6702)" style="fill:#000000; stroke:none; fill-opacity:1" cx="94.7845" cy="366.278" r="4"/>
<circle clip-path="url(#clip6702)" style="fill:#009af9; stroke:none; fill-opacity:1" cx="94.7845" cy="366.278" r="3"/>
<circle clip-path="url(#clip6702)" style="fill:#000000; stroke:none; fill-opacity:1" cx="130.964" cy="365.37" r="4"/>
<circle clip-path="url(#clip6702)" style="fill:#009af9; stroke:none; fill-opacity:1" cx="130.964" cy="365.37" r="3"/>
<circle clip-path="url(#clip6702)" style="fill:#000000; stroke:none; fill-opacity:1" cx="167.144" cy="363.711" r="4"/>
<circle clip-path="url(#clip6702)" style="fill:#009af9; stroke:none; fill-opacity:1" cx="167.144" cy="363.711" r="3"/>
<circle clip-path="url(#clip6702)" style="fill:#000000; stroke:none; fill-opacity:1" cx="203.323" cy="360.18" r="4"/>
<circle clip-path="url(#clip6702)" style="fill:#009af9; stroke:none; fill-opacity:1" cx="203.323" cy="360.18" r="3"/>
<circle clip-path="url(#clip6702)" style="fill:#000000; stroke:none; fill-opacity:1" cx="239.503" cy="350.484" r="4"/>
<circle clip-path="url(#clip6702)" style="fill:#009af9; stroke:none; fill-opacity:1" cx="239.503" cy="350.484" r="3"/>
<circle clip-path="url(#clip6702)" style="fill:#000000; stroke:none; fill-opacity:1" cx="275.683" cy="306.447" r="4"/>
<circle clip-path="url(#clip6702)" style="fill:#009af9; stroke:none; fill-opacity:1" cx="275.683" cy="306.447" r="3"/>
<circle clip-path="url(#clip6702)" style="fill:#000000; stroke:none; fill-opacity:1" cx="311.862" cy="22.1513" r="4"/>
<circle clip-path="url(#clip6702)" style="fill:#009af9; stroke:none; fill-opacity:1" cx="311.862" cy="22.1513" r="3"/>
<circle clip-path="url(#clip6702)" style="fill:#000000; stroke:none; fill-opacity:1" cx="348.042" cy="306.447" r="4"/>
<circle clip-path="url(#clip6702)" style="fill:#009af9; stroke:none; fill-opacity:1" cx="348.042" cy="306.447" r="3"/>
<circle clip-path="url(#clip6702)" style="fill:#000000; stroke:none; fill-opacity:1" cx="384.221" cy="350.484" r="4"/>
<circle clip-path="url(#clip6702)" style="fill:#009af9; stroke:none; fill-opacity:1" cx="384.221" cy="350.484" r="3"/>
<circle clip-path="url(#clip6702)" style="fill:#000000; stroke:none; fill-opacity:1" cx="420.401" cy="360.18" r="4"/>
<circle clip-path="url(#clip6702)" style="fill:#009af9; stroke:none; fill-opacity:1" cx="420.401" cy="360.18" r="3"/>
<circle clip-path="url(#clip6702)" style="fill:#000000; stroke:none; fill-opacity:1" cx="456.581" cy="363.711" r="4"/>
<circle clip-path="url(#clip6702)" style="fill:#009af9; stroke:none; fill-opacity:1" cx="456.581" cy="363.711" r="3"/>
<circle clip-path="url(#clip6702)" style="fill:#000000; stroke:none; fill-opacity:1" cx="492.76" cy="365.37" r="4"/>
<circle clip-path="url(#clip6702)" style="fill:#009af9; stroke:none; fill-opacity:1" cx="492.76" cy="365.37" r="3"/>
<circle clip-path="url(#clip6702)" style="fill:#000000; stroke:none; fill-opacity:1" cx="528.94" cy="366.278" r="4"/>
<circle clip-path="url(#clip6702)" style="fill:#009af9; stroke:none; fill-opacity:1" cx="528.94" cy="366.278" r="3"/>
<circle clip-path="url(#clip6702)" style="fill:#000000; stroke:none; fill-opacity:1" cx="565.12" cy="366.828" r="4"/>
<circle clip-path="url(#clip6702)" style="fill:#009af9; stroke:none; fill-opacity:1" cx="565.12" cy="366.828" r="3"/>
<polyline clip-path="url(#clip6702)" style="stroke:#e26f46; stroke-width:2; stroke-opacity:1; fill:none" stroke-dasharray="1, 2" points="
  58.6049,366.828 63.7212,366.764 68.8375,366.697 73.9538,366.625 79.0701,366.548 84.1864,366.466 89.3027,366.379 94.4191,366.285 99.5354,366.184 104.652,366.076 
  109.768,365.96 114.884,365.835 120.001,365.699 125.117,365.553 130.233,365.394 135.35,365.221 140.466,365.032 145.582,364.827 150.698,364.601 155.815,364.354 
  160.931,364.081 166.047,363.779 171.164,363.445 176.28,363.073 181.396,362.657 186.513,362.191 191.629,361.665 196.745,361.069 201.862,360.391 206.978,359.615 
  212.094,358.721 217.21,357.683 222.327,356.472 227.443,355.044 232.559,353.347 237.676,351.311 242.792,348.839 247.908,345.802 253.025,342.02 258.141,337.237 
  263.257,331.083 268.374,323.012 273.49,312.205 278.606,297.411 283.723,276.716 288.839,247.287 293.955,205.429 299.071,148.394 304.188,81.4336 309.304,29.9208 
  314.42,29.9208 319.537,81.4336 324.653,148.394 329.769,205.429 334.886,247.287 340.002,276.716 345.118,297.411 350.235,312.205 355.351,323.012 360.467,331.083 
  365.583,337.237 370.7,342.02 375.816,345.802 380.932,348.839 386.049,351.311 391.165,353.347 396.281,355.044 401.398,356.472 406.514,357.683 411.63,358.721 
  416.747,359.615 421.863,360.391 426.979,361.069 432.095,361.665 437.212,362.191 442.328,362.657 447.444,363.073 452.561,363.445 457.677,363.779 462.793,364.081 
  467.91,364.354 473.026,364.601 478.142,364.827 483.259,365.032 488.375,365.221 493.491,365.394 498.607,365.553 503.724,365.699 508.84,365.835 513.956,365.96 
  519.073,366.076 524.189,366.184 529.305,366.285 534.422,366.379 539.538,366.466 544.654,366.548 549.771,366.625 554.887,366.697 560.003,366.764 565.12,366.828 
  
  "/>
<polyline clip-path="url(#clip6702)" style="stroke:#3da44d; stroke-width:2; stroke-opacity:1; fill:none" stroke-dasharray="8, 5" points="
  58.6049,366.828 63.7212,366.75 68.8375,366.672 73.9538,366.595 79.0701,366.517 84.1864,366.439 89.3027,366.361 94.4191,366.283 99.5354,366.159 104.652,366.03 
  109.768,365.902 114.884,365.773 120.001,365.645 125.117,365.517 130.233,365.388 135.35,365.169 140.466,364.934 145.582,364.699 150.698,364.465 155.815,364.23 
  160.931,363.996 166.047,363.761 171.164,363.318 176.28,362.819 181.396,362.32 186.513,361.821 191.629,361.321 196.745,360.822 201.862,360.323 206.978,359.201 
  212.094,357.83 217.21,356.458 222.327,355.087 227.443,353.716 232.559,352.345 237.676,350.974 242.792,346.48 247.908,340.253 253.025,334.025 258.141,327.798 
  263.257,321.57 268.374,315.343 273.49,309.115 278.606,283.473 283.723,243.27 288.839,203.066 293.955,162.863 299.071,122.66 304.188,82.4564 309.304,42.253 
  314.42,42.253 319.537,82.4564 324.653,122.66 329.769,162.863 334.886,203.066 340.002,243.27 345.118,283.473 350.235,309.115 355.351,315.343 360.467,321.57 
  365.583,327.798 370.7,334.025 375.816,340.253 380.932,346.48 386.049,350.974 391.165,352.345 396.281,353.716 401.398,355.087 406.514,356.458 411.63,357.83 
  416.747,359.201 421.863,360.323 426.979,360.822 432.095,361.321 437.212,361.821 442.328,362.32 447.444,362.819 452.561,363.318 457.677,363.761 462.793,363.996 
  467.91,364.23 473.026,364.465 478.142,364.699 483.259,364.934 488.375,365.169 493.491,365.388 498.607,365.517 503.724,365.645 508.84,365.773 513.956,365.902 
  519.073,366.03 524.189,366.159 529.305,366.283 534.422,366.361 539.538,366.439 544.654,366.517 549.771,366.595 554.887,366.672 560.003,366.75 565.12,366.828 
  
  "/>
<polygon clip-path="url(#clip6700)" points="
368.539,93.171 562.315,93.171 562.315,32.691 368.539,32.691 
  " fill="#ffffff" fill-opacity="1"/>
<polyline clip-path="url(#clip6700)" style="stroke:#000000; stroke-width:1; stroke-opacity:1; fill:none" points="
  368.539,93.171 562.315,93.171 562.315,32.691 368.539,32.691 368.539,93.171 
  "/>
<circle clip-path="url(#clip6700)" style="fill:#000000; stroke:none; fill-opacity:1" cx="395.539" cy="47.811" r="6"/>
<circle clip-path="url(#clip6700)" style="fill:#009af9; stroke:none; fill-opacity:1" cx="395.539" cy="47.811" r="5"/>
<g clip-path="url(#clip6700)">
<text style="fill:#000000; fill-opacity:1; font-family:Arial,Helvetica Neue,Helvetica,sans-serif; font-size:12; text-anchor:start;" transform="rotate(0, 416.539, 52.311)" x="416.539" y="52.311">Pontos para interpolação</text>
</g>
<polyline clip-path="url(#clip6700)" style="stroke:#e26f46; stroke-width:2; stroke-opacity:1; fill:none" stroke-dasharray="1, 2" points="
  374.539,62.931 410.539,62.931 
  "/>
<g clip-path="url(#clip6700)">
<text style="fill:#000000; fill-opacity:1; font-family:Arial,Helvetica Neue,Helvetica,sans-serif; font-size:12; text-anchor:start;" transform="rotate(0, 416.539, 67.431)" x="416.539" y="67.431">Função verdadeira</text>
</g>
<polyline clip-path="url(#clip6700)" style="stroke:#3da44d; stroke-width:2; stroke-opacity:1; fill:none" stroke-dasharray="8, 5" points="
  374.539,78.051 410.539,78.051 
  "/>
<g clip-path="url(#clip6700)">
<text style="fill:#000000; fill-opacity:1; font-family:Arial,Helvetica Neue,Helvetica,sans-serif; font-size:12; text-anchor:start;" transform="rotate(0, 416.539, 82.551)" x="416.539" y="82.551">Aproximação Linear</text>
</g>
</svg>
