<?xml version="1.0" encoding="utf-8"?>
<svg xmlns="http://www.w3.org/2000/svg" xmlns:xlink="http://www.w3.org/1999/xlink" width="600" height="400" viewBox="0 0 600 400">
<defs>
  <clipPath id="clip1900">
    <rect x="0" y="0" width="600" height="400"/>
  </clipPath>
</defs>
<polygon clip-path="url(#clip1900)" points="
0,400 600,400 600,0 0,0 
  " fill="#ffffff" fill-opacity="1"/>
<defs>
  <clipPath id="clip1901">
    <rect x="120" y="0" width="421" height="400"/>
  </clipPath>
</defs>
<polygon clip-path="url(#clip1900)" points="
47.376,375.869 580.315,375.869 580.315,11.811 47.376,11.811 
  " fill="#ffffff" fill-opacity="1"/>
<defs>
  <clipPath id="clip1902">
    <rect x="47" y="11" width="534" height="365"/>
  </clipPath>
</defs>
<polyline clip-path="url(#clip1902)" style="stroke:#000000; stroke-width:0.5; stroke-opacity:0.1; fill:none" points="
  62.4592,375.869 62.4592,11.811 
  "/>
<polyline clip-path="url(#clip1902)" style="stroke:#000000; stroke-width:0.5; stroke-opacity:0.1; fill:none" points="
  146.255,375.869 146.255,11.811 
  "/>
<polyline clip-path="url(#clip1902)" style="stroke:#000000; stroke-width:0.5; stroke-opacity:0.1; fill:none" points="
  230.05,375.869 230.05,11.811 
  "/>
<polyline clip-path="url(#clip1902)" style="stroke:#000000; stroke-width:0.5; stroke-opacity:0.1; fill:none" points="
  313.845,375.869 313.845,11.811 
  "/>
<polyline clip-path="url(#clip1902)" style="stroke:#000000; stroke-width:0.5; stroke-opacity:0.1; fill:none" points="
  397.641,375.869 397.641,11.811 
  "/>
<polyline clip-path="url(#clip1902)" style="stroke:#000000; stroke-width:0.5; stroke-opacity:0.1; fill:none" points="
  481.436,375.869 481.436,11.811 
  "/>
<polyline clip-path="url(#clip1902)" style="stroke:#000000; stroke-width:0.5; stroke-opacity:0.1; fill:none" points="
  565.232,375.869 565.232,11.811 
  "/>
<polyline clip-path="url(#clip1902)" style="stroke:#000000; stroke-width:0.5; stroke-opacity:0.1; fill:none" points="
  47.376,365.574 580.315,365.574 
  "/>
<polyline clip-path="url(#clip1902)" style="stroke:#000000; stroke-width:0.5; stroke-opacity:0.1; fill:none" points="
  47.376,279.709 580.315,279.709 
  "/>
<polyline clip-path="url(#clip1902)" style="stroke:#000000; stroke-width:0.5; stroke-opacity:0.1; fill:none" points="
  47.376,193.844 580.315,193.844 
  "/>
<polyline clip-path="url(#clip1902)" style="stroke:#000000; stroke-width:0.5; stroke-opacity:0.1; fill:none" points="
  47.376,107.979 580.315,107.979 
  "/>
<polyline clip-path="url(#clip1902)" style="stroke:#000000; stroke-width:0.5; stroke-opacity:0.1; fill:none" points="
  47.376,22.1145 580.315,22.1145 
  "/>
<polyline clip-path="url(#clip1900)" style="stroke:#000000; stroke-width:1; stroke-opacity:1; fill:none" points="
  47.376,375.869 580.315,375.869 
  "/>
<polyline clip-path="url(#clip1900)" style="stroke:#000000; stroke-width:1; stroke-opacity:1; fill:none" points="
  47.376,375.869 47.376,11.811 
  "/>
<polyline clip-path="url(#clip1900)" style="stroke:#000000; stroke-width:1; stroke-opacity:1; fill:none" points="
  62.4592,375.869 62.4592,370.408 
  "/>
<polyline clip-path="url(#clip1900)" style="stroke:#000000; stroke-width:1; stroke-opacity:1; fill:none" points="
  146.255,375.869 146.255,370.408 
  "/>
<polyline clip-path="url(#clip1900)" style="stroke:#000000; stroke-width:1; stroke-opacity:1; fill:none" points="
  230.05,375.869 230.05,370.408 
  "/>
<polyline clip-path="url(#clip1900)" style="stroke:#000000; stroke-width:1; stroke-opacity:1; fill:none" points="
  313.845,375.869 313.845,370.408 
  "/>
<polyline clip-path="url(#clip1900)" style="stroke:#000000; stroke-width:1; stroke-opacity:1; fill:none" points="
  397.641,375.869 397.641,370.408 
  "/>
<polyline clip-path="url(#clip1900)" style="stroke:#000000; stroke-width:1; stroke-opacity:1; fill:none" points="
  481.436,375.869 481.436,370.408 
  "/>
<polyline clip-path="url(#clip1900)" style="stroke:#000000; stroke-width:1; stroke-opacity:1; fill:none" points="
  565.232,375.869 565.232,370.408 
  "/>
<polyline clip-path="url(#clip1900)" style="stroke:#000000; stroke-width:1; stroke-opacity:1; fill:none" points="
  47.376,365.574 55.3701,365.574 
  "/>
<polyline clip-path="url(#clip1900)" style="stroke:#000000; stroke-width:1; stroke-opacity:1; fill:none" points="
  47.376,279.709 55.3701,279.709 
  "/>
<polyline clip-path="url(#clip1900)" style="stroke:#000000; stroke-width:1; stroke-opacity:1; fill:none" points="
  47.376,193.844 55.3701,193.844 
  "/>
<polyline clip-path="url(#clip1900)" style="stroke:#000000; stroke-width:1; stroke-opacity:1; fill:none" points="
  47.376,107.979 55.3701,107.979 
  "/>
<polyline clip-path="url(#clip1900)" style="stroke:#000000; stroke-width:1; stroke-opacity:1; fill:none" points="
  47.376,22.1145 55.3701,22.1145 
  "/>
<g clip-path="url(#clip1900)">
<text style="fill:#000000; fill-opacity:1; font-family:Arial,Helvetica Neue,Helvetica,sans-serif; font-size:12; text-anchor:middle;" transform="rotate(0, 62.4592, 389.669)" x="62.4592" y="389.669">0</text>
</g>
<g clip-path="url(#clip1900)">
<text style="fill:#000000; fill-opacity:1; font-family:Arial,Helvetica Neue,Helvetica,sans-serif; font-size:12; text-anchor:middle;" transform="rotate(0, 146.255, 389.669)" x="146.255" y="389.669">1</text>
</g>
<g clip-path="url(#clip1900)">
<text style="fill:#000000; fill-opacity:1; font-family:Arial,Helvetica Neue,Helvetica,sans-serif; font-size:12; text-anchor:middle;" transform="rotate(0, 230.05, 389.669)" x="230.05" y="389.669">2</text>
</g>
<g clip-path="url(#clip1900)">
<text style="fill:#000000; fill-opacity:1; font-family:Arial,Helvetica Neue,Helvetica,sans-serif; font-size:12; text-anchor:middle;" transform="rotate(0, 313.845, 389.669)" x="313.845" y="389.669">3</text>
</g>
<g clip-path="url(#clip1900)">
<text style="fill:#000000; fill-opacity:1; font-family:Arial,Helvetica Neue,Helvetica,sans-serif; font-size:12; text-anchor:middle;" transform="rotate(0, 397.641, 389.669)" x="397.641" y="389.669">4</text>
</g>
<g clip-path="url(#clip1900)">
<text style="fill:#000000; fill-opacity:1; font-family:Arial,Helvetica Neue,Helvetica,sans-serif; font-size:12; text-anchor:middle;" transform="rotate(0, 481.436, 389.669)" x="481.436" y="389.669">5</text>
</g>
<g clip-path="url(#clip1900)">
<text style="fill:#000000; fill-opacity:1; font-family:Arial,Helvetica Neue,Helvetica,sans-serif; font-size:12; text-anchor:middle;" transform="rotate(0, 565.232, 389.669)" x="565.232" y="389.669">6</text>
</g>
<g clip-path="url(#clip1900)">
<text style="fill:#000000; fill-opacity:1; font-family:Arial,Helvetica Neue,Helvetica,sans-serif; font-size:12; text-anchor:end;" transform="rotate(0, 41.376, 370.074)" x="41.376" y="370.074">-1.0</text>
</g>
<g clip-path="url(#clip1900)">
<text style="fill:#000000; fill-opacity:1; font-family:Arial,Helvetica Neue,Helvetica,sans-serif; font-size:12; text-anchor:end;" transform="rotate(0, 41.376, 284.209)" x="41.376" y="284.209">-0.5</text>
</g>
<g clip-path="url(#clip1900)">
<text style="fill:#000000; fill-opacity:1; font-family:Arial,Helvetica Neue,Helvetica,sans-serif; font-size:12; text-anchor:end;" transform="rotate(0, 41.376, 198.344)" x="41.376" y="198.344">0.0</text>
</g>
<g clip-path="url(#clip1900)">
<text style="fill:#000000; fill-opacity:1; font-family:Arial,Helvetica Neue,Helvetica,sans-serif; font-size:12; text-anchor:end;" transform="rotate(0, 41.376, 112.479)" x="41.376" y="112.479">0.5</text>
</g>
<g clip-path="url(#clip1900)">
<text style="fill:#000000; fill-opacity:1; font-family:Arial,Helvetica Neue,Helvetica,sans-serif; font-size:12; text-anchor:end;" transform="rotate(0, 41.376, 26.6145)" x="41.376" y="26.6145">1.0</text>
</g>
<circle clip-path="url(#clip1902)" style="fill:#000000; stroke:none; fill-opacity:1" cx="62.4592" cy="22.1145" r="4"/>
<circle clip-path="url(#clip1902)" style="fill:#009af9; stroke:none; fill-opacity:1" cx="62.4592" cy="22.1145" r="3"/>
<circle clip-path="url(#clip1902)" style="fill:#000000; stroke:none; fill-opacity:1" cx="118.323" cy="58.884" r="4"/>
<circle clip-path="url(#clip1902)" style="fill:#009af9; stroke:none; fill-opacity:1" cx="118.323" cy="58.884" r="3"/>
<circle clip-path="url(#clip1902)" style="fill:#000000; stroke:none; fill-opacity:1" cx="174.186" cy="153.447" r="4"/>
<circle clip-path="url(#clip1902)" style="fill:#009af9; stroke:none; fill-opacity:1" cx="174.186" cy="153.447" r="3"/>
<circle clip-path="url(#clip1902)" style="fill:#000000; stroke:none; fill-opacity:1" cx="230.05" cy="265.309" r="4"/>
<circle clip-path="url(#clip1902)" style="fill:#009af9; stroke:none; fill-opacity:1" cx="230.05" cy="265.309" r="3"/>
<circle clip-path="url(#clip1902)" style="fill:#000000; stroke:none; fill-opacity:1" cx="285.914" cy="346.568" r="4"/>
<circle clip-path="url(#clip1902)" style="fill:#009af9; stroke:none; fill-opacity:1" cx="285.914" cy="346.568" r="3"/>
<circle clip-path="url(#clip1902)" style="fill:#000000; stroke:none; fill-opacity:1" cx="341.777" cy="362.427" r="4"/>
<circle clip-path="url(#clip1902)" style="fill:#009af9; stroke:none; fill-opacity:1" cx="341.777" cy="362.427" r="3"/>
<circle clip-path="url(#clip1902)" style="fill:#000000; stroke:none; fill-opacity:1" cx="397.641" cy="306.094" r="4"/>
<circle clip-path="url(#clip1902)" style="fill:#009af9; stroke:none; fill-opacity:1" cx="397.641" cy="306.094" r="3"/>
<circle clip-path="url(#clip1902)" style="fill:#000000; stroke:none; fill-opacity:1" cx="453.505" cy="201.693" r="4"/>
<circle clip-path="url(#clip1902)" style="fill:#009af9; stroke:none; fill-opacity:1" cx="453.505" cy="201.693" r="3"/>
<circle clip-path="url(#clip1902)" style="fill:#000000; stroke:none; fill-opacity:1" cx="509.368" cy="93.9312" r="4"/>
<circle clip-path="url(#clip1902)" style="fill:#009af9; stroke:none; fill-opacity:1" cx="509.368" cy="93.9312" r="3"/>
<circle clip-path="url(#clip1902)" style="fill:#000000; stroke:none; fill-opacity:1" cx="565.232" cy="28.9545" r="4"/>
<circle clip-path="url(#clip1902)" style="fill:#009af9; stroke:none; fill-opacity:1" cx="565.232" cy="28.9545" r="3"/>
<polyline clip-path="url(#clip1902)" style="stroke:#e26f46; stroke-width:2; stroke-opacity:1; fill:none" stroke-dasharray="8, 5" points="
  62.4592,22.1145 67.5377,22.4137 72.6162,23.3501 77.6947,24.9179 82.7733,27.1095 87.8518,29.9154 92.9303,33.3245 98.0088,37.3233 103.087,41.8967 108.166,47.0277 
  113.244,52.6971 118.323,58.884 123.401,65.5658 128.48,72.718 133.558,80.3143 138.637,88.3269 143.715,96.7267 148.794,105.483 153.872,114.563 158.951,123.935 
  164.029,133.563 169.108,143.412 174.186,153.447 179.265,163.63 184.343,173.924 189.422,184.292 194.5,194.695 199.579,205.094 204.658,215.453 209.736,225.732 
  214.815,235.895 219.893,245.903 224.972,255.719 230.05,265.309 235.129,274.636 240.207,283.666 245.286,292.367 250.364,300.705 255.443,308.652 260.521,316.176 
  265.6,323.252 270.678,329.852 275.757,335.952 280.835,341.531 285.914,346.568 290.992,351.043 296.071,354.942 301.149,358.249 306.228,360.952 311.306,363.042 
  316.385,364.511 321.463,365.353 326.542,365.565 331.62,365.146 336.699,364.099 341.777,362.427 346.856,360.135 351.934,357.233 357.013,353.731 362.091,349.641 
  367.17,344.98 372.248,339.764 377.327,334.011 382.405,327.744 387.484,320.986 392.562,313.76 397.641,306.094 402.719,298.016 407.798,289.555 412.876,280.743 
  417.955,271.611 423.033,262.195 428.112,252.527 433.191,242.644 438.269,232.582 443.348,222.378 448.426,212.069 453.505,201.693 458.583,191.289 463.662,180.894 
  468.74,170.547 473.819,160.285 478.897,150.147 483.976,140.168 489.054,130.387 494.133,120.838 499.211,111.557 504.29,102.577 509.368,93.9312 514.447,85.6519 
  519.525,77.769 524.604,70.3117 529.682,63.3075 534.761,56.7824 539.839,50.761 544.918,45.2662 549.996,40.3193 555.075,35.9399 560.153,32.1461 565.232,28.9545 
  
  "/>
<polyline clip-path="url(#clip1902)" style="stroke:#3da44d; stroke-width:2; stroke-opacity:1; fill:none" stroke-dasharray="1, 2" points="
  62.4592,22.1145 67.5377,22.4298 72.6162,23.3746 77.6947,24.9452 82.7733,27.1361 87.8518,29.9391 92.9303,33.344 98.0088,37.3382 103.087,41.9071 108.166,47.0339 
  113.244,52.6998 118.323,58.884 123.401,65.5638 128.48,72.7146 133.558,80.3101 138.637,88.3226 143.715,96.7225 148.794,105.479 153.872,114.56 158.951,123.932 
  164.029,133.561 169.108,143.411 174.186,153.447 179.265,163.631 184.343,173.925 189.422,184.293 194.5,194.696 199.579,205.096 204.658,215.454 209.736,225.733 
  214.815,235.895 219.893,245.903 224.972,255.72 230.05,265.309 235.129,274.636 240.207,283.666 245.286,292.366 250.364,300.705 255.443,308.651 260.521,316.176 
  265.6,323.251 270.678,329.851 275.757,335.952 280.835,341.531 285.914,346.568 290.992,351.044 296.071,354.942 301.149,358.249 306.228,360.953 311.306,363.043 
  316.385,364.511 321.463,365.353 326.542,365.565 331.62,365.147 336.699,364.099 341.777,362.427 346.856,360.135 351.934,357.232 357.013,353.73 362.091,349.641 
  367.17,344.979 372.248,339.763 377.327,334.011 382.405,327.744 387.484,320.985 392.562,313.76 397.641,306.094 402.719,298.016 407.798,289.556 412.876,280.744 
  417.955,271.613 423.033,262.196 428.112,252.528 433.191,242.645 438.269,232.583 443.348,222.379 448.426,212.069 453.505,201.693 458.583,191.288 463.662,180.893 
  468.74,170.544 473.819,160.282 478.897,150.143 483.976,140.164 489.054,130.382 494.133,120.833 499.211,111.553 504.29,102.575 509.368,93.9312 514.447,85.6548 
  519.525,77.7757 524.604,70.3228 529.682,63.3234 534.761,56.8033 539.839,50.7865 544.918,45.2949 549.996,40.3488 555.075,35.9663 560.153,32.1636 565.232,28.9545 
  
  "/>
<polygon clip-path="url(#clip1900)" points="
368.539,93.171 562.315,93.171 562.315,32.691 368.539,32.691 
  " fill="#ffffff" fill-opacity="1"/>
<polyline clip-path="url(#clip1900)" style="stroke:#000000; stroke-width:1; stroke-opacity:1; fill:none" points="
  368.539,93.171 562.315,93.171 562.315,32.691 368.539,32.691 368.539,93.171 
  "/>
<circle clip-path="url(#clip1900)" style="fill:#000000; stroke:none; fill-opacity:1" cx="395.539" cy="47.811" r="6"/>
<circle clip-path="url(#clip1900)" style="fill:#009af9; stroke:none; fill-opacity:1" cx="395.539" cy="47.811" r="5"/>
<g clip-path="url(#clip1900)">
<text style="fill:#000000; fill-opacity:1; font-family:Arial,Helvetica Neue,Helvetica,sans-serif; font-size:12; text-anchor:start;" transform="rotate(0, 416.539, 52.311)" x="416.539" y="52.311">Pontos para interpolação</text>
</g>
<polyline clip-path="url(#clip1900)" style="stroke:#e26f46; stroke-width:2; stroke-opacity:1; fill:none" stroke-dasharray="8, 5" points="
  374.539,62.931 410.539,62.931 
  "/>
<g clip-path="url(#clip1900)">
<text style="fill:#000000; fill-opacity:1; font-family:Arial,Helvetica Neue,Helvetica,sans-serif; font-size:12; text-anchor:start;" transform="rotate(0, 416.539, 67.431)" x="416.539" y="67.431">Polinômio interpolador</text>
</g>
<polyline clip-path="url(#clip1900)" style="stroke:#3da44d; stroke-width:2; stroke-opacity:1; fill:none" stroke-dasharray="1, 2" points="
  374.539,78.051 410.539,78.051 
  "/>
<g clip-path="url(#clip1900)">
<text style="fill:#000000; fill-opacity:1; font-family:Arial,Helvetica Neue,Helvetica,sans-serif; font-size:12; text-anchor:start;" transform="rotate(0, 416.539, 82.551)" x="416.539" y="82.551">Função verdadeira</text>
</g>
</svg>
