<?xml version="1.0" encoding="utf-8"?>
<svg xmlns="http://www.w3.org/2000/svg" xmlns:xlink="http://www.w3.org/1999/xlink" width="576" height="384" viewBox="0 0 2304 1536">
<defs>
  <clipPath id="clip3400">
    <rect x="0" y="0" width="2000" height="2000"/>
  </clipPath>
</defs>
<defs>
  <clipPath id="clip3401">
    <rect x="0" y="0" width="2304" height="1536"/>
  </clipPath>
</defs>
<polygon clip-path="url(#clip3401)" points="
0,1536 2304,1536 2304,0 0,0 
  " fill="#ffffff" fill-rule="evenodd" fill-opacity="1"/>
<defs>
  <clipPath id="clip3402">
    <rect x="460" y="0" width="1614" height="1536"/>
  </clipPath>
</defs>
<polygon clip-path="url(#clip3401)" points="
149.361,1439.47 2225.26,1439.47 2225.26,47.2441 149.361,47.2441 
  " fill="#ffffff" fill-rule="evenodd" fill-opacity="1"/>
<defs>
  <clipPath id="clip3403">
    <rect x="149" y="47" width="2077" height="1393"/>
  </clipPath>
</defs>
<polyline clip-path="url(#clip3403)" style="stroke:#000000; stroke-width:2; stroke-opacity:0.1; fill:none" points="
  204.188,1439.47 204.188,47.2441 
  "/>
<polyline clip-path="url(#clip3403)" style="stroke:#000000; stroke-width:2; stroke-opacity:0.1; fill:none" points="
  596.652,1439.47 596.652,47.2441 
  "/>
<polyline clip-path="url(#clip3403)" style="stroke:#000000; stroke-width:2; stroke-opacity:0.1; fill:none" points="
  989.116,1439.47 989.116,47.2441 
  "/>
<polyline clip-path="url(#clip3403)" style="stroke:#000000; stroke-width:2; stroke-opacity:0.1; fill:none" points="
  1381.58,1439.47 1381.58,47.2441 
  "/>
<polyline clip-path="url(#clip3403)" style="stroke:#000000; stroke-width:2; stroke-opacity:0.1; fill:none" points="
  1774.04,1439.47 1774.04,47.2441 
  "/>
<polyline clip-path="url(#clip3403)" style="stroke:#000000; stroke-width:2; stroke-opacity:0.1; fill:none" points="
  2166.51,1439.47 2166.51,47.2441 
  "/>
<polyline clip-path="url(#clip3403)" style="stroke:#000000; stroke-width:2; stroke-opacity:0.1; fill:none" points="
  149.361,1438.34 2225.26,1438.34 
  "/>
<polyline clip-path="url(#clip3403)" style="stroke:#000000; stroke-width:2; stroke-opacity:0.1; fill:none" points="
  149.361,1235.79 2225.26,1235.79 
  "/>
<polyline clip-path="url(#clip3403)" style="stroke:#000000; stroke-width:2; stroke-opacity:0.1; fill:none" points="
  149.361,1033.24 2225.26,1033.24 
  "/>
<polyline clip-path="url(#clip3403)" style="stroke:#000000; stroke-width:2; stroke-opacity:0.1; fill:none" points="
  149.361,830.693 2225.26,830.693 
  "/>
<polyline clip-path="url(#clip3403)" style="stroke:#000000; stroke-width:2; stroke-opacity:0.1; fill:none" points="
  149.361,628.145 2225.26,628.145 
  "/>
<polyline clip-path="url(#clip3403)" style="stroke:#000000; stroke-width:2; stroke-opacity:0.1; fill:none" points="
  149.361,425.597 2225.26,425.597 
  "/>
<polyline clip-path="url(#clip3403)" style="stroke:#000000; stroke-width:2; stroke-opacity:0.1; fill:none" points="
  149.361,223.049 2225.26,223.049 
  "/>
<polyline clip-path="url(#clip3401)" style="stroke:#000000; stroke-width:4; stroke-opacity:1; fill:none" points="
  149.361,1439.47 2225.26,1439.47 
  "/>
<polyline clip-path="url(#clip3401)" style="stroke:#000000; stroke-width:4; stroke-opacity:1; fill:none" points="
  149.361,1439.47 149.361,47.2441 
  "/>
<polyline clip-path="url(#clip3401)" style="stroke:#000000; stroke-width:4; stroke-opacity:1; fill:none" points="
  204.188,1439.47 204.188,1418.59 
  "/>
<polyline clip-path="url(#clip3401)" style="stroke:#000000; stroke-width:4; stroke-opacity:1; fill:none" points="
  596.652,1439.47 596.652,1418.59 
  "/>
<polyline clip-path="url(#clip3401)" style="stroke:#000000; stroke-width:4; stroke-opacity:1; fill:none" points="
  989.116,1439.47 989.116,1418.59 
  "/>
<polyline clip-path="url(#clip3401)" style="stroke:#000000; stroke-width:4; stroke-opacity:1; fill:none" points="
  1381.58,1439.47 1381.58,1418.59 
  "/>
<polyline clip-path="url(#clip3401)" style="stroke:#000000; stroke-width:4; stroke-opacity:1; fill:none" points="
  1774.04,1439.47 1774.04,1418.59 
  "/>
<polyline clip-path="url(#clip3401)" style="stroke:#000000; stroke-width:4; stroke-opacity:1; fill:none" points="
  2166.51,1439.47 2166.51,1418.59 
  "/>
<polyline clip-path="url(#clip3401)" style="stroke:#000000; stroke-width:4; stroke-opacity:1; fill:none" points="
  149.361,1438.34 180.499,1438.34 
  "/>
<polyline clip-path="url(#clip3401)" style="stroke:#000000; stroke-width:4; stroke-opacity:1; fill:none" points="
  149.361,1235.79 180.499,1235.79 
  "/>
<polyline clip-path="url(#clip3401)" style="stroke:#000000; stroke-width:4; stroke-opacity:1; fill:none" points="
  149.361,1033.24 180.499,1033.24 
  "/>
<polyline clip-path="url(#clip3401)" style="stroke:#000000; stroke-width:4; stroke-opacity:1; fill:none" points="
  149.361,830.693 180.499,830.693 
  "/>
<polyline clip-path="url(#clip3401)" style="stroke:#000000; stroke-width:4; stroke-opacity:1; fill:none" points="
  149.361,628.145 180.499,628.145 
  "/>
<polyline clip-path="url(#clip3401)" style="stroke:#000000; stroke-width:4; stroke-opacity:1; fill:none" points="
  149.361,425.597 180.499,425.597 
  "/>
<polyline clip-path="url(#clip3401)" style="stroke:#000000; stroke-width:4; stroke-opacity:1; fill:none" points="
  149.361,223.049 180.499,223.049 
  "/>
<g clip-path="url(#clip3401)">
<text style="fill:#000000; fill-opacity:1; font-family:Arial,Helvetica Neue,Helvetica,sans-serif; font-size:48px; text-anchor:middle;" transform="rotate(0, 204.188, 1492.99)" x="204.188" y="1492.99">0</text>
</g>
<g clip-path="url(#clip3401)">
<text style="fill:#000000; fill-opacity:1; font-family:Arial,Helvetica Neue,Helvetica,sans-serif; font-size:48px; text-anchor:middle;" transform="rotate(0, 596.652, 1492.99)" x="596.652" y="1492.99">100</text>
</g>
<g clip-path="url(#clip3401)">
<text style="fill:#000000; fill-opacity:1; font-family:Arial,Helvetica Neue,Helvetica,sans-serif; font-size:48px; text-anchor:middle;" transform="rotate(0, 989.116, 1492.99)" x="989.116" y="1492.99">200</text>
</g>
<g clip-path="url(#clip3401)">
<text style="fill:#000000; fill-opacity:1; font-family:Arial,Helvetica Neue,Helvetica,sans-serif; font-size:48px; text-anchor:middle;" transform="rotate(0, 1381.58, 1492.99)" x="1381.58" y="1492.99">300</text>
</g>
<g clip-path="url(#clip3401)">
<text style="fill:#000000; fill-opacity:1; font-family:Arial,Helvetica Neue,Helvetica,sans-serif; font-size:48px; text-anchor:middle;" transform="rotate(0, 1774.04, 1492.99)" x="1774.04" y="1492.99">400</text>
</g>
<g clip-path="url(#clip3401)">
<text style="fill:#000000; fill-opacity:1; font-family:Arial,Helvetica Neue,Helvetica,sans-serif; font-size:48px; text-anchor:middle;" transform="rotate(0, 2166.51, 1492.99)" x="2166.51" y="1492.99">500</text>
</g>
<g clip-path="url(#clip3401)">
<text style="fill:#000000; fill-opacity:1; font-family:Arial,Helvetica Neue,Helvetica,sans-serif; font-size:48px; text-anchor:end;" transform="rotate(0, 126.321, 1455.84)" x="126.321" y="1455.84">-3</text>
</g>
<g clip-path="url(#clip3401)">
<text style="fill:#000000; fill-opacity:1; font-family:Arial,Helvetica Neue,Helvetica,sans-serif; font-size:48px; text-anchor:end;" transform="rotate(0, 126.321, 1253.29)" x="126.321" y="1253.29">-2</text>
</g>
<g clip-path="url(#clip3401)">
<text style="fill:#000000; fill-opacity:1; font-family:Arial,Helvetica Neue,Helvetica,sans-serif; font-size:48px; text-anchor:end;" transform="rotate(0, 126.321, 1050.74)" x="126.321" y="1050.74">-1</text>
</g>
<g clip-path="url(#clip3401)">
<text style="fill:#000000; fill-opacity:1; font-family:Arial,Helvetica Neue,Helvetica,sans-serif; font-size:48px; text-anchor:end;" transform="rotate(0, 126.321, 848.193)" x="126.321" y="848.193">0</text>
</g>
<g clip-path="url(#clip3401)">
<text style="fill:#000000; fill-opacity:1; font-family:Arial,Helvetica Neue,Helvetica,sans-serif; font-size:48px; text-anchor:end;" transform="rotate(0, 126.321, 645.645)" x="126.321" y="645.645">1</text>
</g>
<g clip-path="url(#clip3401)">
<text style="fill:#000000; fill-opacity:1; font-family:Arial,Helvetica Neue,Helvetica,sans-serif; font-size:48px; text-anchor:end;" transform="rotate(0, 126.321, 443.097)" x="126.321" y="443.097">2</text>
</g>
<g clip-path="url(#clip3401)">
<text style="fill:#000000; fill-opacity:1; font-family:Arial,Helvetica Neue,Helvetica,sans-serif; font-size:48px; text-anchor:end;" transform="rotate(0, 126.321, 240.549)" x="126.321" y="240.549">3</text>
</g>
<polyline clip-path="url(#clip3403)" style="stroke:#009af9; stroke-width:4; stroke-opacity:1; fill:none" points="
  208.112,581.755 212.037,1173.06 215.962,1077.59 219.886,852.805 223.811,820.342 227.736,1126.71 231.66,949.309 235.585,829.559 239.51,593.931 243.434,788.83 
  247.359,789.452 251.284,617.895 255.208,956.698 259.133,1091.03 263.057,833.54 266.982,1151.32 270.907,954.556 274.831,863.944 278.756,582.735 282.681,862.862 
  286.605,618.294 290.53,794.412 294.455,857.228 298.379,752.399 302.304,727.128 306.228,824.655 310.153,897.263 314.078,988.657 318.002,1130.34 321.927,775.702 
  325.852,437.582 329.776,731.452 333.701,976.419 337.626,889.008 341.55,1166.9 345.475,1140.07 349.4,920.38 353.324,945.738 357.249,1062.4 361.173,963.011 
  365.098,664.287 369.023,864.187 372.947,731.299 376.872,1271.13 380.797,794.172 384.721,848.625 388.646,850.893 392.571,786.45 396.495,1175.72 400.42,906.384 
  404.344,701.54 408.269,968.65 412.194,935.853 416.118,771.573 420.043,798.558 423.968,987.14 427.892,1007.55 431.817,884.495 435.742,899.85 439.666,779.187 
  443.591,915.385 447.516,753.47 451.44,86.6468 455.365,777.562 459.289,606.22 463.214,612.727 467.139,767.683 471.063,1009.71 474.988,971.056 478.913,545.487 
  482.837,680.236 486.762,541.425 490.687,866.596 494.611,649.445 498.536,316.367 502.46,1044.31 506.385,673.803 510.31,912.771 514.234,883.193 518.159,1167.76 
  522.084,966.898 526.008,1046.47 529.933,711.341 533.858,631.806 537.782,985.889 541.707,1341.33 545.632,421.012 549.556,586.701 553.481,729.083 557.405,971.565 
  561.33,1031.3 565.255,674.683 569.179,1004.85 573.104,819.353 577.029,1006.95 580.953,802.123 584.878,802.064 588.803,719.573 592.727,660.597 596.652,1013.9 
  600.577,902.162 604.501,867.688 608.426,1144 612.35,792.041 616.275,446.832 620.2,651.913 624.124,729.481 628.049,881.101 631.974,956.057 635.898,589.441 
  639.823,659.037 643.748,1065.67 647.672,1111.71 651.597,914.728 655.521,700.381 659.446,622.149 663.371,892.519 667.295,644.104 671.22,871.904 675.145,899.35 
  679.069,937.811 682.994,795.086 686.919,646.503 690.843,838.99 694.768,1110.29 698.693,732.046 702.617,621.365 706.542,637.081 710.466,875.125 714.391,854.375 
  718.316,663.004 722.24,928.009 726.165,413.317 730.09,675.376 734.014,637.963 737.939,865.578 741.864,516.46 745.788,663.698 749.713,474.282 753.637,817.114 
  757.562,409.4 761.487,896.559 765.411,1000.85 769.336,1071.65 773.261,811.461 777.185,1027.18 781.11,920.039 785.035,833.419 788.959,900.427 792.884,967.688 
  796.809,806.853 800.733,611.639 804.658,1096.62 808.582,1103.35 812.507,644.973 816.432,596.893 820.356,991.187 824.281,987.354 828.206,830.629 832.13,847.49 
  836.055,925.698 839.98,550.187 843.904,600.06 847.829,952.38 851.753,613.373 855.678,1012.6 859.603,912.423 863.527,843.281 867.452,597.745 871.377,564.754 
  875.301,1113.99 879.226,664.29 883.151,1139.05 887.075,771.686 891,616.517 894.925,936.94 898.849,1082.39 902.774,794.659 906.698,1119.32 910.623,654.493 
  914.548,1044.38 918.472,847.905 922.397,601.906 926.322,889.849 930.246,761.196 934.171,372.211 938.096,552.086 942.02,774.762 945.945,694.808 949.869,712.351 
  953.794,835.494 957.719,514.407 961.643,1209.98 965.568,785.686 969.493,535.584 973.417,1088.48 977.342,614.696 981.267,634.861 985.191,1143.52 989.116,676.557 
  993.041,560.625 996.965,1020.59 1000.89,897.466 1004.81,805.217 1008.74,873.617 1012.66,1062.43 1016.59,874.877 1020.51,1033.54 1024.44,866.294 1028.36,789.471 
  1032.29,514.3 1036.21,1220.09 1040.14,718.612 1044.06,1004 1047.99,690.301 1051.91,820.11 1055.83,1036.19 1059.76,1081.6 1063.68,698.455 1067.61,650.486 
  1071.53,973.278 1075.46,492.164 1079.38,994.158 1083.31,845.94 1087.23,709.355 1091.16,1006.66 1095.08,1041.61 1099.01,1034.88 1102.93,696.746 1106.86,824.703 
  1110.78,677.339 1114.7,967.908 1118.63,1022.27 1122.55,686.195 1126.48,909.413 1130.4,937.295 1134.33,826.619 1138.25,870.591 1142.18,389.86 1146.1,459.857 
  1150.03,775.768 1153.95,1097.51 1157.88,983.085 1161.8,1000.27 1165.72,725.627 1169.65,435.329 1173.57,1023.84 1177.5,1157.82 1181.42,682.73 1185.35,649.435 
  1189.27,802.527 1193.2,492.072 1197.12,724.083 1201.05,543.715 1204.97,853.249 1208.9,834.164 1212.82,1025.01 1216.75,870.934 1220.67,843.984 1224.59,575.695 
  1228.52,847.462 1232.44,1116.25 1236.37,565.717 1240.29,817.479 1244.22,784.204 1248.14,657.35 1252.07,990.806 1255.99,695.336 1259.92,661.793 1263.84,1385.38 
  1267.77,1062.84 1271.69,993.962 1275.61,709.272 1279.54,1106.4 1283.46,845.733 1287.39,671.722 1291.31,967.415 1295.24,715.363 1299.16,866.677 1303.09,611.817 
  1307.01,827.817 1310.94,525.1 1314.86,1125.43 1318.79,638.832 1322.71,1071.06 1326.63,888.772 1330.56,888.169 1334.48,1190.54 1338.41,974.838 1342.33,604.393 
  1346.26,662.347 1350.18,930.82 1354.11,925.605 1358.03,956.446 1361.96,872.373 1365.88,732.505 1369.81,684.882 1373.73,1119.98 1377.66,854.413 1381.58,971.19 
  1385.5,921.875 1389.43,828.247 1393.35,991.878 1397.28,617.731 1401.2,795.299 1405.13,794.085 1409.05,722.369 1412.98,846.04 1416.9,564.847 1420.83,1018.36 
  1424.75,404.12 1428.68,700.819 1432.6,559.104 1436.52,860.981 1440.45,929.622 1444.37,478.171 1448.3,613.442 1452.22,644.359 1456.15,782.865 1460.07,547.863 
  1464,1188.71 1467.92,748.485 1471.85,992.263 1475.77,737.636 1479.7,844.296 1483.62,1034.5 1487.55,879.538 1491.47,868.312 1495.39,1030.79 1499.32,836.185 
  1503.24,863.948 1507.17,1148.1 1511.09,906.536 1515.02,795.335 1518.94,1071.25 1522.87,1079.13 1526.79,349.905 1530.72,664.074 1534.64,967.319 1538.57,892.562 
  1542.49,953.472 1546.41,940.701 1550.34,812.202 1554.26,892.272 1558.19,727.239 1562.11,1106.2 1566.04,729.564 1569.96,1041.74 1573.89,1189.69 1577.81,947.238 
  1581.74,646.974 1585.66,874.358 1589.59,734.652 1593.51,948.575 1597.44,903.52 1601.36,552.672 1605.28,878.095 1609.21,713.431 1613.13,758.12 1617.06,791.057 
  1620.98,948.892 1624.91,683.264 1628.83,1095.58 1632.76,942.583 1636.68,981.288 1640.61,1137.36 1644.53,869.507 1648.46,957.396 1652.38,728.567 1656.3,852.727 
  1660.23,1002.01 1664.15,665.555 1668.08,1066.14 1672,653.276 1675.93,1349.95 1679.85,901.618 1683.78,816.782 1687.7,655.476 1691.63,749.605 1695.55,587.181 
  1699.48,468.257 1703.4,683.48 1707.33,587.106 1711.25,869.397 1715.17,942.846 1719.1,1139.94 1723.02,602.41 1726.95,945.657 1730.87,929.532 1734.8,1000.43 
  1738.72,920.387 1742.65,739.097 1746.57,790.778 1750.5,671.293 1754.42,844.128 1758.35,987.388 1762.27,844.064 1766.19,503.09 1770.12,681.948 1774.04,1246.82 
  1777.97,664.938 1781.89,826.281 1785.82,990.543 1789.74,721.298 1793.67,994.473 1797.59,506.935 1801.52,1338.25 1805.44,1012.89 1809.37,903.51 1813.29,1079.8 
  1817.21,328.985 1821.14,471.985 1825.06,1108.26 1828.99,727.775 1832.91,859.512 1836.84,812.359 1840.76,780.395 1844.69,549.162 1848.61,679.088 1852.54,1170.13 
  1856.46,1099.66 1860.39,900.524 1864.31,1058.03 1868.24,1036.48 1872.16,1017.38 1876.08,818.187 1880.01,599.318 1883.93,934.454 1887.86,803.758 1891.78,271.654 
  1895.71,696.094 1899.63,860.555 1903.56,926.019 1907.48,952.646 1911.41,1021.5 1915.33,740.09 1919.26,938.788 1923.18,1149.11 1927.1,1084.92 1931.03,1278.09 
  1934.95,899.539 1938.88,542.187 1942.8,915.135 1946.73,605.629 1950.65,710.605 1954.58,699.279 1958.5,630.859 1962.43,1036.7 1966.35,1400.07 1970.28,757.059 
  1974.2,654.413 1978.13,635.645 1982.05,896.128 1985.97,834.501 1989.9,652.139 1993.82,383.468 1997.75,1004.53 2001.67,786.04 2005.6,1019.49 2009.52,871.268 
  2013.45,978.683 2017.37,1127.03 2021.3,902.439 2025.22,705.227 2029.15,628.253 2033.07,647.506 2036.99,908.11 2040.92,783.227 2044.84,494.754 2048.77,797.132 
  2052.69,734.387 2056.62,659.222 2060.54,1080.94 2064.47,861.793 2068.39,916.052 2072.32,721.233 2076.24,801.694 2080.17,887.451 2084.09,660.212 2088.02,799.497 
  2091.94,816.115 2095.86,941.956 2099.79,683.57 2103.71,677.481 2107.64,683.127 2111.56,971.007 2115.49,686.432 2119.41,941.439 2123.34,618.431 2127.26,435.696 
  2131.19,759.168 2135.11,879.042 2139.04,1173.98 2142.96,966.642 2146.88,817.402 2150.81,835.35 2154.73,516.4 2158.66,607.905 2162.58,724.595 2166.51,416.269 
  
  "/>
<polygon clip-path="url(#clip3401)" points="
1874.91,245.964 2156.14,245.964 2156.14,125.004 1874.91,125.004 
  " fill="#ffffff" fill-rule="evenodd" fill-opacity="1"/>
<polyline clip-path="url(#clip3401)" style="stroke:#000000; stroke-width:4; stroke-opacity:1; fill:none" points="
  1874.91,245.964 2156.14,245.964 2156.14,125.004 1874.91,125.004 1874.91,245.964 
  "/>
<polyline clip-path="url(#clip3401)" style="stroke:#009af9; stroke-width:4; stroke-opacity:1; fill:none" points="
  1897.95,185.484 2036.19,185.484 
  "/>
<g clip-path="url(#clip3401)">
<text style="fill:#000000; fill-opacity:1; font-family:Arial,Helvetica Neue,Helvetica,sans-serif; font-size:48px; text-anchor:start;" transform="rotate(0, 2059.23, 202.984)" x="2059.23" y="202.984">y1</text>
</g>
</svg>
