<?xml version="1.0" encoding="utf-8"?>
<svg xmlns="http://www.w3.org/2000/svg" xmlns:xlink="http://www.w3.org/1999/xlink" width="576" height="384" viewBox="0 0 2304 1536">
<defs>
  <clipPath id="clip3800">
    <rect x="0" y="0" width="2000" height="2000"/>
  </clipPath>
</defs>
<defs>
  <clipPath id="clip3801">
    <rect x="0" y="0" width="2304" height="1536"/>
  </clipPath>
</defs>
<polygon clip-path="url(#clip3801)" points="
0,1536 2304,1536 2304,0 0,0 
  " fill="#ffffff" fill-rule="evenodd" fill-opacity="1"/>
<defs>
  <clipPath id="clip3802">
    <rect x="460" y="0" width="1614" height="1536"/>
  </clipPath>
</defs>
<polygon clip-path="url(#clip3801)" points="
176.123,1439.47 2225.26,1439.47 2225.26,47.2441 176.123,47.2441 
  " fill="#ffffff" fill-rule="evenodd" fill-opacity="1"/>
<defs>
  <clipPath id="clip3803">
    <rect x="176" y="47" width="2050" height="1393"/>
  </clipPath>
</defs>
<polyline clip-path="url(#clip3803)" style="stroke:#000000; stroke-width:2; stroke-opacity:0.1; fill:none" points="
  224.403,1439.47 224.403,47.2441 
  "/>
<polyline clip-path="url(#clip3803)" style="stroke:#000000; stroke-width:2; stroke-opacity:0.1; fill:none" points="
  710.119,1439.47 710.119,47.2441 
  "/>
<polyline clip-path="url(#clip3803)" style="stroke:#000000; stroke-width:2; stroke-opacity:0.1; fill:none" points="
  1195.83,1439.47 1195.83,47.2441 
  "/>
<polyline clip-path="url(#clip3803)" style="stroke:#000000; stroke-width:2; stroke-opacity:0.1; fill:none" points="
  1681.55,1439.47 1681.55,47.2441 
  "/>
<polyline clip-path="url(#clip3803)" style="stroke:#000000; stroke-width:2; stroke-opacity:0.1; fill:none" points="
  2167.27,1439.47 2167.27,47.2441 
  "/>
<polyline clip-path="url(#clip3803)" style="stroke:#000000; stroke-width:2; stroke-opacity:0.1; fill:none" points="
  176.123,1324.09 2225.26,1324.09 
  "/>
<polyline clip-path="url(#clip3803)" style="stroke:#000000; stroke-width:2; stroke-opacity:0.1; fill:none" points="
  176.123,1137.33 2225.26,1137.33 
  "/>
<polyline clip-path="url(#clip3803)" style="stroke:#000000; stroke-width:2; stroke-opacity:0.1; fill:none" points="
  176.123,950.577 2225.26,950.577 
  "/>
<polyline clip-path="url(#clip3803)" style="stroke:#000000; stroke-width:2; stroke-opacity:0.1; fill:none" points="
  176.123,763.823 2225.26,763.823 
  "/>
<polyline clip-path="url(#clip3803)" style="stroke:#000000; stroke-width:2; stroke-opacity:0.1; fill:none" points="
  176.123,577.069 2225.26,577.069 
  "/>
<polyline clip-path="url(#clip3803)" style="stroke:#000000; stroke-width:2; stroke-opacity:0.1; fill:none" points="
  176.123,390.314 2225.26,390.314 
  "/>
<polyline clip-path="url(#clip3803)" style="stroke:#000000; stroke-width:2; stroke-opacity:0.1; fill:none" points="
  176.123,203.56 2225.26,203.56 
  "/>
<polyline clip-path="url(#clip3801)" style="stroke:#000000; stroke-width:4; stroke-opacity:1; fill:none" points="
  176.123,1439.47 2225.26,1439.47 
  "/>
<polyline clip-path="url(#clip3801)" style="stroke:#000000; stroke-width:4; stroke-opacity:1; fill:none" points="
  176.123,1439.47 176.123,47.2441 
  "/>
<polyline clip-path="url(#clip3801)" style="stroke:#000000; stroke-width:4; stroke-opacity:1; fill:none" points="
  224.403,1439.47 224.403,1418.59 
  "/>
<polyline clip-path="url(#clip3801)" style="stroke:#000000; stroke-width:4; stroke-opacity:1; fill:none" points="
  710.119,1439.47 710.119,1418.59 
  "/>
<polyline clip-path="url(#clip3801)" style="stroke:#000000; stroke-width:4; stroke-opacity:1; fill:none" points="
  1195.83,1439.47 1195.83,1418.59 
  "/>
<polyline clip-path="url(#clip3801)" style="stroke:#000000; stroke-width:4; stroke-opacity:1; fill:none" points="
  1681.55,1439.47 1681.55,1418.59 
  "/>
<polyline clip-path="url(#clip3801)" style="stroke:#000000; stroke-width:4; stroke-opacity:1; fill:none" points="
  2167.27,1439.47 2167.27,1418.59 
  "/>
<polyline clip-path="url(#clip3801)" style="stroke:#000000; stroke-width:4; stroke-opacity:1; fill:none" points="
  176.123,1324.09 206.86,1324.09 
  "/>
<polyline clip-path="url(#clip3801)" style="stroke:#000000; stroke-width:4; stroke-opacity:1; fill:none" points="
  176.123,1137.33 206.86,1137.33 
  "/>
<polyline clip-path="url(#clip3801)" style="stroke:#000000; stroke-width:4; stroke-opacity:1; fill:none" points="
  176.123,950.577 206.86,950.577 
  "/>
<polyline clip-path="url(#clip3801)" style="stroke:#000000; stroke-width:4; stroke-opacity:1; fill:none" points="
  176.123,763.823 206.86,763.823 
  "/>
<polyline clip-path="url(#clip3801)" style="stroke:#000000; stroke-width:4; stroke-opacity:1; fill:none" points="
  176.123,577.069 206.86,577.069 
  "/>
<polyline clip-path="url(#clip3801)" style="stroke:#000000; stroke-width:4; stroke-opacity:1; fill:none" points="
  176.123,390.314 206.86,390.314 
  "/>
<polyline clip-path="url(#clip3801)" style="stroke:#000000; stroke-width:4; stroke-opacity:1; fill:none" points="
  176.123,203.56 206.86,203.56 
  "/>
<g clip-path="url(#clip3801)">
<text style="fill:#000000; fill-opacity:1; font-family:Arial,Helvetica Neue,Helvetica,sans-serif; font-size:48px; text-anchor:middle;" transform="rotate(0, 224.403, 1492.99)" x="224.403" y="1492.99">0</text>
</g>
<g clip-path="url(#clip3801)">
<text style="fill:#000000; fill-opacity:1; font-family:Arial,Helvetica Neue,Helvetica,sans-serif; font-size:48px; text-anchor:middle;" transform="rotate(0, 710.119, 1492.99)" x="710.119" y="1492.99">50</text>
</g>
<g clip-path="url(#clip3801)">
<text style="fill:#000000; fill-opacity:1; font-family:Arial,Helvetica Neue,Helvetica,sans-serif; font-size:48px; text-anchor:middle;" transform="rotate(0, 1195.83, 1492.99)" x="1195.83" y="1492.99">100</text>
</g>
<g clip-path="url(#clip3801)">
<text style="fill:#000000; fill-opacity:1; font-family:Arial,Helvetica Neue,Helvetica,sans-serif; font-size:48px; text-anchor:middle;" transform="rotate(0, 1681.55, 1492.99)" x="1681.55" y="1492.99">150</text>
</g>
<g clip-path="url(#clip3801)">
<text style="fill:#000000; fill-opacity:1; font-family:Arial,Helvetica Neue,Helvetica,sans-serif; font-size:48px; text-anchor:middle;" transform="rotate(0, 2167.27, 1492.99)" x="2167.27" y="1492.99">200</text>
</g>
<g clip-path="url(#clip3801)">
<text style="fill:#000000; fill-opacity:1; font-family:Arial,Helvetica Neue,Helvetica,sans-serif; font-size:48px; text-anchor:end;" transform="rotate(0, 153.083, 1341.59)" x="153.083" y="1341.59">-12</text>
</g>
<g clip-path="url(#clip3801)">
<text style="fill:#000000; fill-opacity:1; font-family:Arial,Helvetica Neue,Helvetica,sans-serif; font-size:48px; text-anchor:end;" transform="rotate(0, 153.083, 1154.83)" x="153.083" y="1154.83">-10</text>
</g>
<g clip-path="url(#clip3801)">
<text style="fill:#000000; fill-opacity:1; font-family:Arial,Helvetica Neue,Helvetica,sans-serif; font-size:48px; text-anchor:end;" transform="rotate(0, 153.083, 968.077)" x="153.083" y="968.077">-8</text>
</g>
<g clip-path="url(#clip3801)">
<text style="fill:#000000; fill-opacity:1; font-family:Arial,Helvetica Neue,Helvetica,sans-serif; font-size:48px; text-anchor:end;" transform="rotate(0, 153.083, 781.323)" x="153.083" y="781.323">-6</text>
</g>
<g clip-path="url(#clip3801)">
<text style="fill:#000000; fill-opacity:1; font-family:Arial,Helvetica Neue,Helvetica,sans-serif; font-size:48px; text-anchor:end;" transform="rotate(0, 153.083, 594.569)" x="153.083" y="594.569">-4</text>
</g>
<g clip-path="url(#clip3801)">
<text style="fill:#000000; fill-opacity:1; font-family:Arial,Helvetica Neue,Helvetica,sans-serif; font-size:48px; text-anchor:end;" transform="rotate(0, 153.083, 407.814)" x="153.083" y="407.814">-2</text>
</g>
<g clip-path="url(#clip3801)">
<text style="fill:#000000; fill-opacity:1; font-family:Arial,Helvetica Neue,Helvetica,sans-serif; font-size:48px; text-anchor:end;" transform="rotate(0, 153.083, 221.06)" x="153.083" y="221.06">0</text>
</g>
<polyline clip-path="url(#clip3803)" style="stroke:#009af9; stroke-width:4; stroke-opacity:1; fill:none" points="
  234.117,370.227 243.832,307.051 253.546,228.3 263.26,286.25 272.975,234.546 282.689,108.193 292.403,323.699 302.118,263.73 311.832,383.21 321.546,407.531 
  331.261,270.984 340.975,331.83 350.689,232.977 360.403,280.806 370.118,244.56 379.832,163.256 389.546,149.974 399.261,86.6468 408.975,358.253 418.689,265.88 
  428.404,403.37 438.118,468.628 447.832,345.939 457.547,286.683 467.261,472.093 476.975,488.085 486.689,451.559 496.404,303.561 506.118,632.405 515.832,646.927 
  525.547,515.953 535.261,429.662 544.975,487.407 554.69,500.954 564.404,356.797 574.118,591.089 583.833,411.016 593.547,466.919 603.261,406.692 612.976,526.846 
  622.69,669.064 632.404,494.445 642.118,502.567 651.833,583.134 661.547,456.372 671.261,620.962 680.976,669.123 690.69,782.284 700.404,584.03 710.119,374.57 
  719.833,462.893 729.547,450.458 739.262,625.499 748.976,489.545 758.69,491.604 768.405,161.836 778.119,568.103 787.833,373.879 797.547,438.369 807.262,520.946 
  816.976,552.996 826.69,555.149 836.405,430.791 846.119,389.409 855.833,334.206 865.548,320.363 875.262,453.897 884.976,310.862 894.691,461.593 904.405,353.381 
  914.119,402.378 923.834,390.315 933.548,384.302 943.262,311.381 952.976,385.058 962.691,420.836 972.405,182.476 982.119,335.788 991.834,444.315 1001.55,323.724 
  1011.26,396.765 1020.98,537.268 1030.69,325.087 1040.41,282.838 1050.12,381.159 1059.83,391.471 1069.55,368.942 1079.26,388.098 1088.98,631.239 1098.69,618.605 
  1108.41,435.126 1118.12,561.455 1127.83,522.611 1137.55,484.986 1147.26,676.363 1156.98,527.137 1166.69,516.386 1176.41,572.441 1186.12,475.004 1195.83,506.455 
  1205.55,508.097 1215.26,239.511 1224.98,333.992 1234.69,308.16 1244.41,366.967 1254.12,474.863 1263.83,258.965 1273.55,269.528 1283.26,226.574 1292.98,273.039 
  1302.69,420.38 1312.41,448.625 1322.12,515.582 1331.83,432.836 1341.55,342.024 1351.26,272.348 1360.98,545.166 1370.69,333.411 1380.41,566.665 1390.12,658.037 
  1399.83,421.002 1409.55,308.858 1419.26,471.075 1428.98,397.35 1438.69,324.563 1448.41,336.34 1458.12,545.738 1467.83,242.111 1477.55,392.244 1487.26,699.208 
  1496.98,531.881 1506.69,451.698 1516.41,486.311 1526.12,388.353 1535.84,289.823 1545.55,573.546 1555.26,504.17 1564.98,501.816 1574.69,423.219 1584.41,559.808 
  1594.12,488.339 1603.84,570.709 1613.55,679.784 1623.26,582.983 1632.98,643.177 1642.69,557.999 1652.41,853.966 1662.12,712.092 1671.84,687.948 1681.55,776.395 
  1691.26,578.373 1700.98,738.178 1710.69,625.63 1720.41,753.883 1730.12,688.787 1739.84,532.019 1749.55,504.147 1759.26,556.188 1768.98,641.085 1778.69,521.471 
  1788.41,449.763 1798.12,651.902 1807.84,573.994 1817.55,657.181 1827.26,562.956 1836.98,542.828 1846.69,612.999 1856.41,300.248 1866.12,507.88 1875.84,549.833 
  1885.55,505.364 1895.26,371.13 1904.98,224.408 1914.69,214.758 1924.41,375.124 1934.12,348.318 1943.84,178.535 1953.55,318.206 1963.26,369.766 1972.98,215.014 
  1982.69,255.767 1992.41,343.843 2002.12,213.649 2011.84,233.463 2021.55,244.406 2031.27,336.709 2040.98,280.603 2050.69,445.37 2060.41,416.599 2070.12,287.278 
  2079.84,421.438 2089.55,334.691 2099.27,485.033 2108.98,382.799 2118.69,378.047 2128.41,384.187 2138.12,469.762 2147.84,458.504 2157.55,438.826 2167.27,610.997 
  
  "/>
<polyline clip-path="url(#clip3803)" style="stroke:#e26f46; stroke-width:4; stroke-opacity:1; fill:none" points="
  234.117,476.002 243.832,349.426 253.546,344.702 263.26,410.921 272.975,391.499 282.689,295.184 292.403,375.746 302.118,335.771 311.832,515.781 321.546,411.162 
  331.261,598.678 340.975,492.744 350.689,369.786 360.403,93.9131 370.118,170.888 379.832,189.314 389.546,167.42 399.261,134.503 408.975,351.533 418.689,400.325 
  428.404,566.873 438.118,668.062 447.832,542.25 457.547,622.123 467.261,685.512 476.975,610.729 486.689,564.282 496.404,535.996 506.118,707.944 515.832,911.124 
  525.547,651.709 535.261,898.753 544.975,972.988 554.69,859.929 564.404,589.17 574.118,857.571 583.833,822.165 593.547,716.197 603.261,883.511 612.976,744.842 
  622.69,759.674 632.404,763.228 642.118,819.943 651.833,1204.06 661.547,981.825 671.261,1028.4 680.976,985.468 690.69,1077.92 700.404,866.767 710.119,886.661 
  719.833,721.278 729.547,866.703 739.262,963.541 748.976,849.8 758.69,909.316 768.405,785.342 778.119,842.523 787.833,655.768 797.547,529.276 807.262,458.773 
  816.976,691.27 826.69,746.276 836.405,643.367 846.119,686.319 855.833,435.55 865.548,517.961 875.262,577.806 884.976,459.636 894.691,519.077 904.405,383.979 
  914.119,524.438 923.834,535.259 933.548,384.544 943.262,451.05 952.976,647.172 962.691,578.229 972.405,585.891 982.119,467.517 991.834,788.771 1001.55,728.611 
  1011.26,656.249 1020.98,495.242 1030.69,606.605 1040.41,468.854 1050.12,703.622 1059.83,410.802 1069.55,576.783 1079.26,827.336 1088.98,708.994 1098.69,811.422 
  1108.41,848.534 1118.12,881.899 1127.83,771.97 1137.55,914.238 1147.26,874.805 1156.98,750.183 1166.69,901.44 1176.41,812.913 1186.12,964.808 1195.83,790.369 
  1205.55,948.385 1215.26,676.434 1224.98,707.08 1234.69,565.998 1244.41,400.718 1254.12,621.032 1263.83,558.894 1273.55,244.285 1283.26,149.065 1292.98,444.362 
  1302.69,427.836 1312.41,424.02 1322.12,612.67 1331.83,475.605 1341.55,562.016 1351.26,711.514 1360.98,572.754 1370.69,559.098 1380.41,750.536 1390.12,530.174 
  1399.83,452.543 1409.55,599.318 1419.26,751.746 1428.98,701.512 1438.69,565.801 1448.41,250.99 1458.12,378.876 1467.83,876.605 1477.55,730.532 1487.26,867.128 
  1496.98,663.829 1506.69,789.445 1516.41,546.59 1526.12,523.046 1535.84,852.516 1545.55,588.236 1555.26,628.42 1564.98,662.997 1574.69,669.801 1584.41,1051.93 
  1594.12,1057.61 1603.84,1043.87 1613.55,1043.85 1623.26,1104.53 1632.98,1071.87 1642.69,1224.19 1652.41,1400.07 1662.12,1055.69 1671.84,1181.27 1681.55,1349.37 
  1691.26,1239.46 1700.98,1317.51 1710.69,1048.53 1720.41,1172.39 1730.12,726.979 1739.84,867.476 1749.55,1024.14 1759.26,893.932 1768.98,828.877 1778.69,888.589 
  1788.41,919.586 1798.12,854.351 1807.84,676.873 1817.55,724.987 1827.26,845.625 1836.98,618.205 1846.69,917.375 1856.41,798.604 1866.12,841.199 1875.84,821.229 
  1885.55,732.459 1895.26,667.621 1904.98,461.489 1914.69,391.76 1924.41,534.719 1934.12,374.646 1943.84,274.081 1953.55,287.055 1963.26,317.474 1972.98,144.657 
  1982.69,170.482 1992.41,221.613 2002.12,358.121 2011.84,515.144 2021.55,572.388 2031.27,523.836 2040.98,387.494 2050.69,214.941 2060.41,473.081 2070.12,329.994 
  2079.84,547.857 2089.55,392.799 2099.27,581.801 2108.98,513.605 2118.69,424.003 2128.41,575.89 2138.12,467.78 2147.84,658.281 2157.55,697.251 2167.27,753.648 
  
  "/>
<polygon clip-path="url(#clip3801)" points="
1874.91,306.444 2156.14,306.444 2156.14,125.004 1874.91,125.004 
  " fill="#ffffff" fill-rule="evenodd" fill-opacity="1"/>
<polyline clip-path="url(#clip3801)" style="stroke:#000000; stroke-width:4; stroke-opacity:1; fill:none" points="
  1874.91,306.444 2156.14,306.444 2156.14,125.004 1874.91,125.004 1874.91,306.444 
  "/>
<polyline clip-path="url(#clip3801)" style="stroke:#009af9; stroke-width:4; stroke-opacity:1; fill:none" points="
  1897.95,185.484 2036.19,185.484 
  "/>
<g clip-path="url(#clip3801)">
<text style="fill:#000000; fill-opacity:1; font-family:Arial,Helvetica Neue,Helvetica,sans-serif; font-size:48px; text-anchor:start;" transform="rotate(0, 2059.23, 202.984)" x="2059.23" y="202.984">y1</text>
</g>
<polyline clip-path="url(#clip3801)" style="stroke:#e26f46; stroke-width:4; stroke-opacity:1; fill:none" points="
  1897.95,245.964 2036.19,245.964 
  "/>
<g clip-path="url(#clip3801)">
<text style="fill:#000000; fill-opacity:1; font-family:Arial,Helvetica Neue,Helvetica,sans-serif; font-size:48px; text-anchor:start;" transform="rotate(0, 2059.23, 263.464)" x="2059.23" y="263.464">y2</text>
</g>
</svg>
