<?xml version="1.0" encoding="utf-8"?>
<svg xmlns="http://www.w3.org/2000/svg" xmlns:xlink="http://www.w3.org/1999/xlink" width="600" height="400" viewBox="0 0 600 400">
<defs>
  <clipPath id="clip8500">
    <rect x="0" y="0" width="600" height="400"/>
  </clipPath>
</defs>
<polygon clip-path="url(#clip8500)" points="
0,400 600,400 600,0 0,0 
  " fill="#ffffff" fill-opacity="1"/>
<defs>
  <clipPath id="clip8501">
    <rect x="120" y="0" width="421" height="400"/>
  </clipPath>
</defs>
<polygon clip-path="url(#clip8500)" points="
43.6942,377.168 580.315,377.168 580.315,11.811 43.6942,11.811 
  " fill="#ffffff" fill-opacity="1"/>
<defs>
  <clipPath id="clip8502">
    <rect x="43" y="11" width="538" height="366"/>
  </clipPath>
</defs>
<polyline clip-path="url(#clip8502)" style="stroke:#000000; stroke-width:0.5; stroke-opacity:0.1; fill:none" points="
  58.8815,377.168 58.8815,11.811 
  "/>
<polyline clip-path="url(#clip8502)" style="stroke:#000000; stroke-width:0.5; stroke-opacity:0.1; fill:none" points="
  143.256,377.168 143.256,11.811 
  "/>
<polyline clip-path="url(#clip8502)" style="stroke:#000000; stroke-width:0.5; stroke-opacity:0.1; fill:none" points="
  227.63,377.168 227.63,11.811 
  "/>
<polyline clip-path="url(#clip8502)" style="stroke:#000000; stroke-width:0.5; stroke-opacity:0.1; fill:none" points="
  312.005,377.168 312.005,11.811 
  "/>
<polyline clip-path="url(#clip8502)" style="stroke:#000000; stroke-width:0.5; stroke-opacity:0.1; fill:none" points="
  396.379,377.168 396.379,11.811 
  "/>
<polyline clip-path="url(#clip8502)" style="stroke:#000000; stroke-width:0.5; stroke-opacity:0.1; fill:none" points="
  480.753,377.168 480.753,11.811 
  "/>
<polyline clip-path="url(#clip8502)" style="stroke:#000000; stroke-width:0.5; stroke-opacity:0.1; fill:none" points="
  565.128,377.168 565.128,11.811 
  "/>
<polyline clip-path="url(#clip8502)" style="stroke:#000000; stroke-width:0.5; stroke-opacity:0.1; fill:none" points="
  43.6942,366.836 580.315,366.836 
  "/>
<polyline clip-path="url(#clip8502)" style="stroke:#000000; stroke-width:0.5; stroke-opacity:0.1; fill:none" points="
  43.6942,280.665 580.315,280.665 
  "/>
<polyline clip-path="url(#clip8502)" style="stroke:#000000; stroke-width:0.5; stroke-opacity:0.1; fill:none" points="
  43.6942,194.494 580.315,194.494 
  "/>
<polyline clip-path="url(#clip8502)" style="stroke:#000000; stroke-width:0.5; stroke-opacity:0.1; fill:none" points="
  43.6942,108.323 580.315,108.323 
  "/>
<polyline clip-path="url(#clip8502)" style="stroke:#000000; stroke-width:0.5; stroke-opacity:0.1; fill:none" points="
  43.6942,22.1513 580.315,22.1513 
  "/>
<polyline clip-path="url(#clip8500)" style="stroke:#000000; stroke-width:1; stroke-opacity:1; fill:none" points="
  43.6942,377.168 580.315,377.168 
  "/>
<polyline clip-path="url(#clip8500)" style="stroke:#000000; stroke-width:1; stroke-opacity:1; fill:none" points="
  43.6942,377.168 43.6942,11.811 
  "/>
<polyline clip-path="url(#clip8500)" style="stroke:#000000; stroke-width:1; stroke-opacity:1; fill:none" points="
  58.8815,377.168 58.8815,371.688 
  "/>
<polyline clip-path="url(#clip8500)" style="stroke:#000000; stroke-width:1; stroke-opacity:1; fill:none" points="
  143.256,377.168 143.256,371.688 
  "/>
<polyline clip-path="url(#clip8500)" style="stroke:#000000; stroke-width:1; stroke-opacity:1; fill:none" points="
  227.63,377.168 227.63,371.688 
  "/>
<polyline clip-path="url(#clip8500)" style="stroke:#000000; stroke-width:1; stroke-opacity:1; fill:none" points="
  312.005,377.168 312.005,371.688 
  "/>
<polyline clip-path="url(#clip8500)" style="stroke:#000000; stroke-width:1; stroke-opacity:1; fill:none" points="
  396.379,377.168 396.379,371.688 
  "/>
<polyline clip-path="url(#clip8500)" style="stroke:#000000; stroke-width:1; stroke-opacity:1; fill:none" points="
  480.753,377.168 480.753,371.688 
  "/>
<polyline clip-path="url(#clip8500)" style="stroke:#000000; stroke-width:1; stroke-opacity:1; fill:none" points="
  565.128,377.168 565.128,371.688 
  "/>
<polyline clip-path="url(#clip8500)" style="stroke:#000000; stroke-width:1; stroke-opacity:1; fill:none" points="
  43.6942,366.836 51.7435,366.836 
  "/>
<polyline clip-path="url(#clip8500)" style="stroke:#000000; stroke-width:1; stroke-opacity:1; fill:none" points="
  43.6942,280.665 51.7435,280.665 
  "/>
<polyline clip-path="url(#clip8500)" style="stroke:#000000; stroke-width:1; stroke-opacity:1; fill:none" points="
  43.6942,194.494 51.7435,194.494 
  "/>
<polyline clip-path="url(#clip8500)" style="stroke:#000000; stroke-width:1; stroke-opacity:1; fill:none" points="
  43.6942,108.323 51.7435,108.323 
  "/>
<polyline clip-path="url(#clip8500)" style="stroke:#000000; stroke-width:1; stroke-opacity:1; fill:none" points="
  43.6942,22.1513 51.7435,22.1513 
  "/>
<g clip-path="url(#clip8500)">
<text style="fill:#000000; fill-opacity:1; font-family:Arial,Helvetica Neue,Helvetica,sans-serif; font-size:12; text-anchor:middle;" transform="rotate(0, 58.8815, 390.968)" x="58.8815" y="390.968">0</text>
</g>
<g clip-path="url(#clip8500)">
<text style="fill:#000000; fill-opacity:1; font-family:Arial,Helvetica Neue,Helvetica,sans-serif; font-size:12; text-anchor:middle;" transform="rotate(0, 143.256, 390.968)" x="143.256" y="390.968">1</text>
</g>
<g clip-path="url(#clip8500)">
<text style="fill:#000000; fill-opacity:1; font-family:Arial,Helvetica Neue,Helvetica,sans-serif; font-size:12; text-anchor:middle;" transform="rotate(0, 227.63, 390.968)" x="227.63" y="390.968">2</text>
</g>
<g clip-path="url(#clip8500)">
<text style="fill:#000000; fill-opacity:1; font-family:Arial,Helvetica Neue,Helvetica,sans-serif; font-size:12; text-anchor:middle;" transform="rotate(0, 312.005, 390.968)" x="312.005" y="390.968">3</text>
</g>
<g clip-path="url(#clip8500)">
<text style="fill:#000000; fill-opacity:1; font-family:Arial,Helvetica Neue,Helvetica,sans-serif; font-size:12; text-anchor:middle;" transform="rotate(0, 396.379, 390.968)" x="396.379" y="390.968">4</text>
</g>
<g clip-path="url(#clip8500)">
<text style="fill:#000000; fill-opacity:1; font-family:Arial,Helvetica Neue,Helvetica,sans-serif; font-size:12; text-anchor:middle;" transform="rotate(0, 480.753, 390.968)" x="480.753" y="390.968">5</text>
</g>
<g clip-path="url(#clip8500)">
<text style="fill:#000000; fill-opacity:1; font-family:Arial,Helvetica Neue,Helvetica,sans-serif; font-size:12; text-anchor:middle;" transform="rotate(0, 565.128, 390.968)" x="565.128" y="390.968">6</text>
</g>
<g clip-path="url(#clip8500)">
<text style="fill:#000000; fill-opacity:1; font-family:Arial,Helvetica Neue,Helvetica,sans-serif; font-size:12; text-anchor:end;" transform="rotate(0, 37.6942, 371.336)" x="37.6942" y="371.336">-1.0</text>
</g>
<g clip-path="url(#clip8500)">
<text style="fill:#000000; fill-opacity:1; font-family:Arial,Helvetica Neue,Helvetica,sans-serif; font-size:12; text-anchor:end;" transform="rotate(0, 37.6942, 285.165)" x="37.6942" y="285.165">-0.5</text>
</g>
<g clip-path="url(#clip8500)">
<text style="fill:#000000; fill-opacity:1; font-family:Arial,Helvetica Neue,Helvetica,sans-serif; font-size:12; text-anchor:end;" transform="rotate(0, 37.6942, 198.994)" x="37.6942" y="198.994">0.0</text>
</g>
<g clip-path="url(#clip8500)">
<text style="fill:#000000; fill-opacity:1; font-family:Arial,Helvetica Neue,Helvetica,sans-serif; font-size:12; text-anchor:end;" transform="rotate(0, 37.6942, 112.823)" x="37.6942" y="112.823">0.5</text>
</g>
<g clip-path="url(#clip8500)">
<text style="fill:#000000; fill-opacity:1; font-family:Arial,Helvetica Neue,Helvetica,sans-serif; font-size:12; text-anchor:end;" transform="rotate(0, 37.6942, 26.6513)" x="37.6942" y="26.6513">1.0</text>
</g>
<circle clip-path="url(#clip8502)" style="fill:#000000; stroke:none; fill-opacity:1" cx="58.8815" cy="22.1513" r="4"/>
<circle clip-path="url(#clip8502)" style="fill:#009af9; stroke:none; fill-opacity:1" cx="58.8815" cy="22.1513" r="3"/>
<circle clip-path="url(#clip8502)" style="fill:#000000; stroke:none; fill-opacity:1" cx="115.131" cy="59.052" r="4"/>
<circle clip-path="url(#clip8502)" style="fill:#009af9; stroke:none; fill-opacity:1" cx="115.131" cy="59.052" r="3"/>
<circle clip-path="url(#clip8502)" style="fill:#000000; stroke:none; fill-opacity:1" cx="171.381" cy="153.952" r="4"/>
<circle clip-path="url(#clip8502)" style="fill:#009af9; stroke:none; fill-opacity:1" cx="171.381" cy="153.952" r="3"/>
<circle clip-path="url(#clip8502)" style="fill:#000000; stroke:none; fill-opacity:1" cx="227.63" cy="266.214" r="4"/>
<circle clip-path="url(#clip8502)" style="fill:#009af9; stroke:none; fill-opacity:1" cx="227.63" cy="266.214" r="3"/>
<circle clip-path="url(#clip8502)" style="fill:#000000; stroke:none; fill-opacity:1" cx="283.88" cy="347.763" r="4"/>
<circle clip-path="url(#clip8502)" style="fill:#009af9; stroke:none; fill-opacity:1" cx="283.88" cy="347.763" r="3"/>
<circle clip-path="url(#clip8502)" style="fill:#000000; stroke:none; fill-opacity:1" cx="340.129" cy="363.678" r="4"/>
<circle clip-path="url(#clip8502)" style="fill:#009af9; stroke:none; fill-opacity:1" cx="340.129" cy="363.678" r="3"/>
<circle clip-path="url(#clip8502)" style="fill:#000000; stroke:none; fill-opacity:1" cx="396.379" cy="307.144" r="4"/>
<circle clip-path="url(#clip8502)" style="fill:#009af9; stroke:none; fill-opacity:1" cx="396.379" cy="307.144" r="3"/>
<circle clip-path="url(#clip8502)" style="fill:#000000; stroke:none; fill-opacity:1" cx="452.628" cy="202.371" r="4"/>
<circle clip-path="url(#clip8502)" style="fill:#009af9; stroke:none; fill-opacity:1" cx="452.628" cy="202.371" r="3"/>
<circle clip-path="url(#clip8502)" style="fill:#000000; stroke:none; fill-opacity:1" cx="508.878" cy="94.2243" r="4"/>
<circle clip-path="url(#clip8502)" style="fill:#009af9; stroke:none; fill-opacity:1" cx="508.878" cy="94.2243" r="3"/>
<circle clip-path="url(#clip8502)" style="fill:#000000; stroke:none; fill-opacity:1" cx="565.128" cy="29.0157" r="4"/>
<circle clip-path="url(#clip8502)" style="fill:#009af9; stroke:none; fill-opacity:1" cx="565.128" cy="29.0157" r="3"/>
<polyline clip-path="url(#clip8502)" style="stroke:#e26f46; stroke-width:2; stroke-opacity:1; fill:none" stroke-dasharray="8, 5" points="
  58.8815,22.1513 63.9951,22.4516 69.1087,23.3913 74.2223,24.9647 79.3359,27.1641 84.4495,29.9801 89.5631,33.4013 94.6767,37.4144 99.7903,42.0041 104.904,47.1534 
  110.018,52.843 115.131,59.052 120.245,65.7577 125.358,72.9353 130.472,80.5588 135.585,88.6001 140.699,97.0298 145.813,105.817 150.926,114.93 156.04,124.335 
  161.153,133.997 166.267,143.882 171.381,153.952 176.494,164.172 181.608,174.503 186.721,184.908 191.835,195.347 196.949,205.784 202.062,216.18 207.176,226.496 
  212.289,236.694 217.403,246.738 222.517,256.59 227.63,266.214 232.744,275.574 237.857,284.637 242.971,293.368 248.085,301.737 253.198,309.711 258.312,317.263 
  263.425,324.363 268.539,330.987 273.653,337.109 278.766,342.708 283.88,347.763 288.993,352.254 294.107,356.167 299.221,359.485 304.334,362.198 309.448,364.296 
  314.561,365.77 319.675,366.614 324.789,366.827 329.902,366.407 335.016,365.356 340.129,363.678 345.243,361.378 350.357,358.466 355.47,354.951 360.584,350.847 
  365.697,346.169 370.811,340.934 375.925,335.161 381.038,328.872 386.152,322.089 391.265,314.838 396.379,307.144 401.492,299.037 406.606,290.546 411.72,281.703 
  416.833,272.539 421.947,263.088 427.06,253.386 432.174,243.468 437.288,233.37 442.401,223.129 447.515,212.784 452.628,202.371 457.742,191.93 462.856,181.498 
  467.969,171.113 473.083,160.815 478.196,150.64 483.31,140.626 488.424,130.81 493.537,121.227 498.651,111.913 503.764,102.901 508.878,94.2243 513.992,85.9154 
  519.105,78.0044 524.219,70.5205 529.332,63.4913 534.446,56.9429 539.56,50.9 544.673,45.3856 549.787,40.421 554.9,36.026 560.014,32.2187 565.128,29.0157 
  
  "/>
<polyline clip-path="url(#clip8502)" style="stroke:#3da44d; stroke-width:2; stroke-opacity:1; fill:none" stroke-dasharray="1, 2" points="
  58.8815,22.1513 63.9951,22.4677 69.1087,23.4158 74.2223,24.9921 79.3359,27.1908 84.4495,30.0038 89.5631,33.4209 94.6767,37.4293 99.7903,42.0146 104.904,47.1597 
  110.018,52.8458 115.131,59.052 120.245,65.7556 125.358,72.9319 130.472,80.5546 135.585,88.5957 140.699,97.0256 145.813,105.813 150.926,114.927 156.04,124.332 
  161.153,133.996 166.267,143.881 171.381,153.952 176.494,164.172 181.608,174.504 186.721,184.909 191.835,195.349 196.949,205.786 202.062,216.181 207.176,226.497 
  212.289,236.695 217.403,246.739 222.517,256.59 227.63,266.214 232.744,275.574 237.857,284.636 242.971,293.367 248.085,301.736 253.198,309.71 258.312,317.262 
  263.425,324.363 268.539,330.986 273.653,337.109 278.766,342.708 283.88,347.763 288.993,352.254 294.107,356.167 299.221,359.486 304.334,362.199 309.448,364.296 
  314.561,365.77 319.675,366.615 324.789,366.828 329.902,366.408 335.016,365.357 340.129,363.678 345.243,361.378 350.357,358.465 355.47,354.951 360.584,350.847 
  365.697,346.169 370.811,340.933 375.925,335.161 381.038,328.871 386.152,322.089 391.265,314.838 396.379,307.144 401.492,299.038 406.606,290.547 411.72,281.704 
  416.833,272.54 421.947,263.09 427.06,253.388 432.174,243.469 437.288,233.371 442.401,223.13 447.515,212.784 452.628,202.371 457.742,191.929 462.856,181.496 
  467.969,171.111 473.083,160.812 478.196,150.636 483.31,140.622 488.424,130.805 493.537,121.223 498.651,111.909 503.764,102.898 508.878,94.2243 513.992,85.9184 
  519.105,78.0112 524.219,70.5316 529.332,63.5073 534.446,56.9639 539.56,50.9256 544.673,45.4144 549.787,40.4506 554.9,36.0525 560.014,32.2362 565.128,29.0157 
  
  "/>
<polyline clip-path="url(#clip8502)" style="stroke:#c271d2; stroke-width:2; stroke-opacity:1; fill:none" stroke-dasharray="8, 5" points="
  58.8815,22.1513 63.9951,25.5059 69.1087,28.8605 74.2223,32.2152 79.3359,35.5698 84.4495,38.9244 89.5631,42.279 94.6767,45.6336 99.7903,48.9882 104.904,52.3428 
  110.018,55.6974 115.131,59.052 120.245,67.6793 125.358,76.3066 130.472,84.9339 135.585,93.5613 140.699,102.189 145.813,110.816 150.926,119.443 156.04,128.07 
  161.153,136.698 166.267,145.325 171.381,153.952 176.494,164.158 181.608,174.364 186.721,184.569 191.835,194.775 196.949,204.98 202.062,215.186 207.176,225.391 
  212.289,235.597 217.403,245.802 222.517,256.008 227.63,266.214 232.744,273.627 237.857,281.041 242.971,288.454 248.085,295.868 253.198,303.281 258.312,310.695 
  263.425,318.108 268.539,325.522 273.653,332.935 278.766,340.349 283.88,347.763 288.993,349.209 294.107,350.656 299.221,352.103 304.334,353.55 309.448,354.997 
  314.561,356.444 319.675,357.891 324.789,359.337 329.902,360.784 335.016,362.231 340.129,363.678 345.243,358.539 350.357,353.399 355.47,348.26 360.584,343.12 
  365.697,337.981 370.811,332.841 375.925,327.702 381.038,322.563 386.152,317.423 391.265,312.284 396.379,307.144 401.492,297.62 406.606,288.095 411.72,278.57 
  416.833,269.045 421.947,259.52 427.06,249.995 432.174,240.47 437.288,230.946 442.401,221.421 447.515,211.896 452.628,202.371 457.742,192.539 462.856,182.708 
  467.969,172.876 473.083,163.045 478.196,153.213 483.31,143.382 488.424,133.55 493.537,123.719 498.651,113.887 503.764,104.056 508.878,94.2243 513.992,88.2963 
  519.105,82.3682 524.219,76.4402 529.332,70.5121 534.446,64.584 539.56,58.656 544.673,52.7279 549.787,46.7999 554.9,40.8718 560.014,34.9437 565.128,29.0157 
  
  "/>
<polygon clip-path="url(#clip8500)" points="
368.539,108.291 562.315,108.291 562.315,32.691 368.539,32.691 
  " fill="#ffffff" fill-opacity="1"/>
<polyline clip-path="url(#clip8500)" style="stroke:#000000; stroke-width:1; stroke-opacity:1; fill:none" points="
  368.539,108.291 562.315,108.291 562.315,32.691 368.539,32.691 368.539,108.291 
  "/>
<circle clip-path="url(#clip8500)" style="fill:#000000; stroke:none; fill-opacity:1" cx="395.539" cy="47.811" r="6"/>
<circle clip-path="url(#clip8500)" style="fill:#009af9; stroke:none; fill-opacity:1" cx="395.539" cy="47.811" r="5"/>
<g clip-path="url(#clip8500)">
<text style="fill:#000000; fill-opacity:1; font-family:Arial,Helvetica Neue,Helvetica,sans-serif; font-size:12; text-anchor:start;" transform="rotate(0, 416.539, 52.311)" x="416.539" y="52.311">Pontos para interpolação</text>
</g>
<polyline clip-path="url(#clip8500)" style="stroke:#e26f46; stroke-width:2; stroke-opacity:1; fill:none" stroke-dasharray="8, 5" points="
  374.539,62.931 410.539,62.931 
  "/>
<g clip-path="url(#clip8500)">
<text style="fill:#000000; fill-opacity:1; font-family:Arial,Helvetica Neue,Helvetica,sans-serif; font-size:12; text-anchor:start;" transform="rotate(0, 416.539, 67.431)" x="416.539" y="67.431">Polinômio interpolador</text>
</g>
<polyline clip-path="url(#clip8500)" style="stroke:#3da44d; stroke-width:2; stroke-opacity:1; fill:none" stroke-dasharray="1, 2" points="
  374.539,78.051 410.539,78.051 
  "/>
<g clip-path="url(#clip8500)">
<text style="fill:#000000; fill-opacity:1; font-family:Arial,Helvetica Neue,Helvetica,sans-serif; font-size:12; text-anchor:start;" transform="rotate(0, 416.539, 82.551)" x="416.539" y="82.551">Função verdadeira</text>
</g>
<polyline clip-path="url(#clip8500)" style="stroke:#c271d2; stroke-width:2; stroke-opacity:1; fill:none" stroke-dasharray="8, 5" points="
  374.539,93.171 410.539,93.171 
  "/>
<g clip-path="url(#clip8500)">
<text style="fill:#000000; fill-opacity:1; font-family:Arial,Helvetica Neue,Helvetica,sans-serif; font-size:12; text-anchor:start;" transform="rotate(0, 416.539, 97.671)" x="416.539" y="97.671">Aproximação linear</text>
</g>
</svg>
