<?xml version="1.0" encoding="utf-8"?>
<svg xmlns="http://www.w3.org/2000/svg" xmlns:xlink="http://www.w3.org/1999/xlink" width="600" height="400" viewBox="0 0 600 400">
<defs>
  <clipPath id="clip5100">
    <rect x="0" y="0" width="600" height="400"/>
  </clipPath>
</defs>
<polygon clip-path="url(#clip5100)" points="
0,400 600,400 600,0 0,0 
  " fill="#ffffff" fill-opacity="1"/>
<defs>
  <clipPath id="clip5101">
    <rect x="120" y="0" width="421" height="400"/>
  </clipPath>
</defs>
<polygon clip-path="url(#clip5100)" points="
37.7559,377.168 580.315,377.168 580.315,11.811 37.7559,11.811 
  " fill="#ffffff" fill-opacity="1"/>
<defs>
  <clipPath id="clip5102">
    <rect x="37" y="11" width="544" height="366"/>
  </clipPath>
</defs>
<polyline clip-path="url(#clip5102)" style="stroke:#000000; stroke-width:0.5; stroke-opacity:0.1; fill:none" points="
  104.296,377.168 104.296,11.811 
  "/>
<polyline clip-path="url(#clip5102)" style="stroke:#000000; stroke-width:0.5; stroke-opacity:0.1; fill:none" points="
  206.666,377.168 206.666,11.811 
  "/>
<polyline clip-path="url(#clip5102)" style="stroke:#000000; stroke-width:0.5; stroke-opacity:0.1; fill:none" points="
  309.035,377.168 309.035,11.811 
  "/>
<polyline clip-path="url(#clip5102)" style="stroke:#000000; stroke-width:0.5; stroke-opacity:0.1; fill:none" points="
  411.405,377.168 411.405,11.811 
  "/>
<polyline clip-path="url(#clip5102)" style="stroke:#000000; stroke-width:0.5; stroke-opacity:0.1; fill:none" points="
  513.775,377.168 513.775,11.811 
  "/>
<polyline clip-path="url(#clip5102)" style="stroke:#000000; stroke-width:0.5; stroke-opacity:0.1; fill:none" points="
  37.7559,342.011 580.315,342.011 
  "/>
<polyline clip-path="url(#clip5102)" style="stroke:#000000; stroke-width:0.5; stroke-opacity:0.1; fill:none" points="
  37.7559,262.046 580.315,262.046 
  "/>
<polyline clip-path="url(#clip5102)" style="stroke:#000000; stroke-width:0.5; stroke-opacity:0.1; fill:none" points="
  37.7559,182.081 580.315,182.081 
  "/>
<polyline clip-path="url(#clip5102)" style="stroke:#000000; stroke-width:0.5; stroke-opacity:0.1; fill:none" points="
  37.7559,102.116 580.315,102.116 
  "/>
<polyline clip-path="url(#clip5102)" style="stroke:#000000; stroke-width:0.5; stroke-opacity:0.1; fill:none" points="
  37.7559,22.1513 580.315,22.1513 
  "/>
<polyline clip-path="url(#clip5100)" style="stroke:#000000; stroke-width:1; stroke-opacity:1; fill:none" points="
  37.7559,377.168 580.315,377.168 
  "/>
<polyline clip-path="url(#clip5100)" style="stroke:#000000; stroke-width:1; stroke-opacity:1; fill:none" points="
  37.7559,377.168 37.7559,11.811 
  "/>
<polyline clip-path="url(#clip5100)" style="stroke:#000000; stroke-width:1; stroke-opacity:1; fill:none" points="
  104.296,377.168 104.296,371.688 
  "/>
<polyline clip-path="url(#clip5100)" style="stroke:#000000; stroke-width:1; stroke-opacity:1; fill:none" points="
  206.666,377.168 206.666,371.688 
  "/>
<polyline clip-path="url(#clip5100)" style="stroke:#000000; stroke-width:1; stroke-opacity:1; fill:none" points="
  309.035,377.168 309.035,371.688 
  "/>
<polyline clip-path="url(#clip5100)" style="stroke:#000000; stroke-width:1; stroke-opacity:1; fill:none" points="
  411.405,377.168 411.405,371.688 
  "/>
<polyline clip-path="url(#clip5100)" style="stroke:#000000; stroke-width:1; stroke-opacity:1; fill:none" points="
  513.775,377.168 513.775,371.688 
  "/>
<polyline clip-path="url(#clip5100)" style="stroke:#000000; stroke-width:1; stroke-opacity:1; fill:none" points="
  37.7559,342.011 45.8943,342.011 
  "/>
<polyline clip-path="url(#clip5100)" style="stroke:#000000; stroke-width:1; stroke-opacity:1; fill:none" points="
  37.7559,262.046 45.8943,262.046 
  "/>
<polyline clip-path="url(#clip5100)" style="stroke:#000000; stroke-width:1; stroke-opacity:1; fill:none" points="
  37.7559,182.081 45.8943,182.081 
  "/>
<polyline clip-path="url(#clip5100)" style="stroke:#000000; stroke-width:1; stroke-opacity:1; fill:none" points="
  37.7559,102.116 45.8943,102.116 
  "/>
<polyline clip-path="url(#clip5100)" style="stroke:#000000; stroke-width:1; stroke-opacity:1; fill:none" points="
  37.7559,22.1513 45.8943,22.1513 
  "/>
<g clip-path="url(#clip5100)">
<text style="fill:#000000; fill-opacity:1; font-family:Arial,Helvetica Neue,Helvetica,sans-serif; font-size:12; text-anchor:middle;" transform="rotate(0, 104.296, 390.968)" x="104.296" y="390.968">-0.4</text>
</g>
<g clip-path="url(#clip5100)">
<text style="fill:#000000; fill-opacity:1; font-family:Arial,Helvetica Neue,Helvetica,sans-serif; font-size:12; text-anchor:middle;" transform="rotate(0, 206.666, 390.968)" x="206.666" y="390.968">-0.2</text>
</g>
<g clip-path="url(#clip5100)">
<text style="fill:#000000; fill-opacity:1; font-family:Arial,Helvetica Neue,Helvetica,sans-serif; font-size:12; text-anchor:middle;" transform="rotate(0, 309.035, 390.968)" x="309.035" y="390.968">0.0</text>
</g>
<g clip-path="url(#clip5100)">
<text style="fill:#000000; fill-opacity:1; font-family:Arial,Helvetica Neue,Helvetica,sans-serif; font-size:12; text-anchor:middle;" transform="rotate(0, 411.405, 390.968)" x="411.405" y="390.968">0.2</text>
</g>
<g clip-path="url(#clip5100)">
<text style="fill:#000000; fill-opacity:1; font-family:Arial,Helvetica Neue,Helvetica,sans-serif; font-size:12; text-anchor:middle;" transform="rotate(0, 513.775, 390.968)" x="513.775" y="390.968">0.4</text>
</g>
<g clip-path="url(#clip5100)">
<text style="fill:#000000; fill-opacity:1; font-family:Arial,Helvetica Neue,Helvetica,sans-serif; font-size:12; text-anchor:end;" transform="rotate(0, 31.7559, 346.511)" x="31.7559" y="346.511">0.2</text>
</g>
<g clip-path="url(#clip5100)">
<text style="fill:#000000; fill-opacity:1; font-family:Arial,Helvetica Neue,Helvetica,sans-serif; font-size:12; text-anchor:end;" transform="rotate(0, 31.7559, 266.546)" x="31.7559" y="266.546">0.4</text>
</g>
<g clip-path="url(#clip5100)">
<text style="fill:#000000; fill-opacity:1; font-family:Arial,Helvetica Neue,Helvetica,sans-serif; font-size:12; text-anchor:end;" transform="rotate(0, 31.7559, 186.581)" x="31.7559" y="186.581">0.6</text>
</g>
<g clip-path="url(#clip5100)">
<text style="fill:#000000; fill-opacity:1; font-family:Arial,Helvetica Neue,Helvetica,sans-serif; font-size:12; text-anchor:end;" transform="rotate(0, 31.7559, 106.616)" x="31.7559" y="106.616">0.8</text>
</g>
<g clip-path="url(#clip5100)">
<text style="fill:#000000; fill-opacity:1; font-family:Arial,Helvetica Neue,Helvetica,sans-serif; font-size:12; text-anchor:end;" transform="rotate(0, 31.7559, 26.6513)" x="31.7559" y="26.6513">1.0</text>
</g>
<circle clip-path="url(#clip5102)" style="fill:#000000; stroke:none; fill-opacity:1" cx="53.1114" cy="366.828" r="4"/>
<circle clip-path="url(#clip5102)" style="fill:#009af9; stroke:none; fill-opacity:1" cx="53.1114" cy="366.828" r="3"/>
<circle clip-path="url(#clip5102)" style="fill:#000000; stroke:none; fill-opacity:1" cx="89.6719" cy="350.475" r="4"/>
<circle clip-path="url(#clip5102)" style="fill:#009af9; stroke:none; fill-opacity:1" cx="89.6719" cy="350.475" r="3"/>
<circle clip-path="url(#clip5102)" style="fill:#000000; stroke:none; fill-opacity:1" cx="126.233" cy="326.525" r="4"/>
<circle clip-path="url(#clip5102)" style="fill:#009af9; stroke:none; fill-opacity:1" cx="126.233" cy="326.525" r="3"/>
<circle clip-path="url(#clip5102)" style="fill:#000000; stroke:none; fill-opacity:1" cx="162.793" cy="290.49" r="4"/>
<circle clip-path="url(#clip5102)" style="fill:#009af9; stroke:none; fill-opacity:1" cx="162.793" cy="290.49" r="3"/>
<circle clip-path="url(#clip5102)" style="fill:#000000; stroke:none; fill-opacity:1" cx="199.354" cy="235.834" r="4"/>
<circle clip-path="url(#clip5102)" style="fill:#009af9; stroke:none; fill-opacity:1" cx="199.354" cy="235.834" r="3"/>
<circle clip-path="url(#clip5102)" style="fill:#000000; stroke:none; fill-opacity:1" cx="235.914" cy="157.227" r="4"/>
<circle clip-path="url(#clip5102)" style="fill:#009af9; stroke:none; fill-opacity:1" cx="235.914" cy="157.227" r="3"/>
<circle clip-path="url(#clip5102)" style="fill:#000000; stroke:none; fill-opacity:1" cx="272.475" cy="67.3804" r="4"/>
<circle clip-path="url(#clip5102)" style="fill:#009af9; stroke:none; fill-opacity:1" cx="272.475" cy="67.3804" r="3"/>
<circle clip-path="url(#clip5102)" style="fill:#000000; stroke:none; fill-opacity:1" cx="309.035" cy="22.1513" r="4"/>
<circle clip-path="url(#clip5102)" style="fill:#009af9; stroke:none; fill-opacity:1" cx="309.035" cy="22.1513" r="3"/>
<circle clip-path="url(#clip5102)" style="fill:#000000; stroke:none; fill-opacity:1" cx="345.596" cy="67.3804" r="4"/>
<circle clip-path="url(#clip5102)" style="fill:#009af9; stroke:none; fill-opacity:1" cx="345.596" cy="67.3804" r="3"/>
<circle clip-path="url(#clip5102)" style="fill:#000000; stroke:none; fill-opacity:1" cx="382.157" cy="157.227" r="4"/>
<circle clip-path="url(#clip5102)" style="fill:#009af9; stroke:none; fill-opacity:1" cx="382.157" cy="157.227" r="3"/>
<circle clip-path="url(#clip5102)" style="fill:#000000; stroke:none; fill-opacity:1" cx="418.717" cy="235.834" r="4"/>
<circle clip-path="url(#clip5102)" style="fill:#009af9; stroke:none; fill-opacity:1" cx="418.717" cy="235.834" r="3"/>
<circle clip-path="url(#clip5102)" style="fill:#000000; stroke:none; fill-opacity:1" cx="455.278" cy="290.49" r="4"/>
<circle clip-path="url(#clip5102)" style="fill:#009af9; stroke:none; fill-opacity:1" cx="455.278" cy="290.49" r="3"/>
<circle clip-path="url(#clip5102)" style="fill:#000000; stroke:none; fill-opacity:1" cx="491.838" cy="326.525" r="4"/>
<circle clip-path="url(#clip5102)" style="fill:#009af9; stroke:none; fill-opacity:1" cx="491.838" cy="326.525" r="3"/>
<circle clip-path="url(#clip5102)" style="fill:#000000; stroke:none; fill-opacity:1" cx="528.399" cy="350.475" r="4"/>
<circle clip-path="url(#clip5102)" style="fill:#009af9; stroke:none; fill-opacity:1" cx="528.399" cy="350.475" r="3"/>
<circle clip-path="url(#clip5102)" style="fill:#000000; stroke:none; fill-opacity:1" cx="564.96" cy="366.828" r="4"/>
<circle clip-path="url(#clip5102)" style="fill:#009af9; stroke:none; fill-opacity:1" cx="564.96" cy="366.828" r="3"/>
<polyline clip-path="url(#clip5102)" style="stroke:#e26f46; stroke-width:2; stroke-opacity:1; fill:none" points="
  53.1114,366.828 58.2815,253.653 63.4517,228.203 68.6219,244.855 73.7921,276.483 78.9623,308.297 84.1325,333.399 89.3026,349.65 94.4728,357.53 99.643,358.741 
  104.813,355.334 109.983,349.211 115.154,341.892 120.324,334.436 125.494,327.462 130.664,321.234 135.834,315.746 141.004,310.829 146.175,306.224 151.345,301.656 
  156.515,296.871 161.685,291.672 166.855,285.922 172.026,279.546 177.196,272.523 182.366,264.869 187.536,256.625 192.706,247.843 197.876,238.569 203.047,228.841 
  208.217,218.685 213.387,208.111 218.557,197.122 223.727,185.715 228.898,173.895 234.068,161.679 239.238,149.107 244.408,136.246 249.578,123.197 254.749,110.097 
  259.919,97.1167 265.089,84.4572 270.259,72.3445 275.429,61.0204 280.599,50.7317 285.77,41.7194 290.94,34.2066 296.11,28.3874 301.28,24.4172 306.45,22.4043 
  311.621,22.4043 316.791,24.4172 321.961,28.3874 327.131,34.2066 332.301,41.7194 337.471,50.7317 342.642,61.0204 347.812,72.3445 352.982,84.4572 358.152,97.1167 
  363.322,110.097 368.493,123.197 373.663,136.246 378.833,149.107 384.003,161.679 389.173,173.895 394.343,185.715 399.514,197.122 404.684,208.111 409.854,218.685 
  415.024,228.841 420.194,238.569 425.365,247.843 430.535,256.625 435.705,264.869 440.875,272.523 446.045,279.546 451.215,285.922 456.386,291.672 461.556,296.871 
  466.726,301.656 471.896,306.224 477.066,310.829 482.237,315.746 487.407,321.234 492.577,327.462 497.747,334.436 502.917,341.892 508.087,349.211 513.258,355.334 
  518.428,358.741 523.598,357.53 528.768,349.65 533.938,333.399 539.109,308.297 544.279,276.483 549.449,244.855 554.619,228.203 559.789,253.653 564.96,366.828 
  
  "/>
<polyline clip-path="url(#clip5102)" style="stroke:#3da44d; stroke-width:2; stroke-opacity:1; fill:none" stroke-dasharray="1, 2" points="
  53.1114,366.828 58.2815,364.858 63.4517,362.788 68.6219,360.61 73.7921,358.317 78.9623,355.902 84.1325,353.356 89.3026,350.672 94.4728,347.839 99.643,344.848 
  104.813,341.687 109.983,338.346 115.154,334.811 120.324,331.071 125.494,327.109 130.664,322.912 135.834,318.464 141.004,313.747 146.175,308.743 151.345,303.434 
  156.515,297.799 161.685,291.819 166.855,285.471 172.026,278.735 177.196,271.589 182.366,264.011 187.536,255.981 192.706,247.481 197.876,238.494 203.047,229.006 
  208.217,219.012 213.387,208.508 218.557,197.503 223.727,186.014 228.898,174.072 234.068,161.724 239.238,149.035 244.408,136.092 249.578,123.005 254.749,109.911 
  259.919,96.9697 265.089,84.3696 270.259,72.32 275.429,61.0484 280.599,50.7921 285.77,41.7891 290.94,34.266 296.11,28.4254 301.28,24.4329 306.45,22.4061 
  311.621,22.4061 316.791,24.4329 321.961,28.4254 327.131,34.266 332.301,41.7891 337.471,50.7921 342.642,61.0484 347.812,72.32 352.982,84.3696 358.152,96.9697 
  363.322,109.911 368.493,123.005 373.663,136.092 378.833,149.035 384.003,161.724 389.173,174.072 394.343,186.014 399.514,197.503 404.684,208.508 409.854,219.012 
  415.024,229.006 420.194,238.494 425.365,247.481 430.535,255.981 435.705,264.011 440.875,271.589 446.045,278.735 451.215,285.471 456.386,291.819 461.556,297.799 
  466.726,303.434 471.896,308.743 477.066,313.747 482.237,318.464 487.407,322.912 492.577,327.109 497.747,331.071 502.917,334.811 508.087,338.346 513.258,341.687 
  518.428,344.848 523.598,347.839 528.768,350.672 533.938,353.356 539.109,355.902 544.279,358.317 549.449,360.61 554.619,362.788 559.789,364.858 564.96,366.828 
  
  "/>
<polygon clip-path="url(#clip5100)" points="
368.539,93.171 562.315,93.171 562.315,32.691 368.539,32.691 
  " fill="#ffffff" fill-opacity="1"/>
<polyline clip-path="url(#clip5100)" style="stroke:#000000; stroke-width:1; stroke-opacity:1; fill:none" points="
  368.539,93.171 562.315,93.171 562.315,32.691 368.539,32.691 368.539,93.171 
  "/>
<circle clip-path="url(#clip5100)" style="fill:#000000; stroke:none; fill-opacity:1" cx="395.539" cy="47.811" r="6"/>
<circle clip-path="url(#clip5100)" style="fill:#009af9; stroke:none; fill-opacity:1" cx="395.539" cy="47.811" r="5"/>
<g clip-path="url(#clip5100)">
<text style="fill:#000000; fill-opacity:1; font-family:Arial,Helvetica Neue,Helvetica,sans-serif; font-size:12; text-anchor:start;" transform="rotate(0, 416.539, 52.311)" x="416.539" y="52.311">Pontos para interpolação</text>
</g>
<polyline clip-path="url(#clip5100)" style="stroke:#e26f46; stroke-width:2; stroke-opacity:1; fill:none" points="
  374.539,62.931 410.539,62.931 
  "/>
<g clip-path="url(#clip5100)">
<text style="fill:#000000; fill-opacity:1; font-family:Arial,Helvetica Neue,Helvetica,sans-serif; font-size:12; text-anchor:start;" transform="rotate(0, 416.539, 67.431)" x="416.539" y="67.431">Polinômio interpolador</text>
</g>
<polyline clip-path="url(#clip5100)" style="stroke:#3da44d; stroke-width:2; stroke-opacity:1; fill:none" stroke-dasharray="1, 2" points="
  374.539,78.051 410.539,78.051 
  "/>
<g clip-path="url(#clip5100)">
<text style="fill:#000000; fill-opacity:1; font-family:Arial,Helvetica Neue,Helvetica,sans-serif; font-size:12; text-anchor:start;" transform="rotate(0, 416.539, 82.551)" x="416.539" y="82.551">Função verdadeira</text>
</g>
</svg>
