<?xml version="1.0" encoding="utf-8"?>
<svg xmlns="http://www.w3.org/2000/svg" xmlns:xlink="http://www.w3.org/1999/xlink" width="600" height="400" viewBox="0 0 600 400">
<defs>
  <clipPath id="clip7500">
    <rect x="0" y="0" width="600" height="400"/>
  </clipPath>
</defs>
<polygon clip-path="url(#clip7500)" points="
0,400 600,400 600,0 0,0 
  " fill="#ffffff" fill-opacity="1"/>
<defs>
  <clipPath id="clip7501">
    <rect x="120" y="0" width="421" height="400"/>
  </clipPath>
</defs>
<polygon clip-path="url(#clip7500)" points="
34.9291,377.168 580.315,377.168 580.315,11.811 34.9291,11.811 
  " fill="#ffffff" fill-opacity="1"/>
<defs>
  <clipPath id="clip7502">
    <rect x="34" y="11" width="546" height="366"/>
  </clipPath>
</defs>
<polyline clip-path="url(#clip7502)" style="stroke:#000000; stroke-width:0.5; stroke-opacity:0.1; fill:none" points="
  123.867,377.168 123.867,11.811 
  "/>
<polyline clip-path="url(#clip7502)" style="stroke:#000000; stroke-width:0.5; stroke-opacity:0.1; fill:none" points="
  215.744,377.168 215.744,11.811 
  "/>
<polyline clip-path="url(#clip7502)" style="stroke:#000000; stroke-width:0.5; stroke-opacity:0.1; fill:none" points="
  307.622,377.168 307.622,11.811 
  "/>
<polyline clip-path="url(#clip7502)" style="stroke:#000000; stroke-width:0.5; stroke-opacity:0.1; fill:none" points="
  399.5,377.168 399.5,11.811 
  "/>
<polyline clip-path="url(#clip7502)" style="stroke:#000000; stroke-width:0.5; stroke-opacity:0.1; fill:none" points="
  491.377,377.168 491.377,11.811 
  "/>
<polyline clip-path="url(#clip7502)" style="stroke:#000000; stroke-width:0.5; stroke-opacity:0.1; fill:none" points="
  34.9291,366.828 580.315,366.828 
  "/>
<polyline clip-path="url(#clip7502)" style="stroke:#000000; stroke-width:0.5; stroke-opacity:0.1; fill:none" points="
  34.9291,287.722 580.315,287.722 
  "/>
<polyline clip-path="url(#clip7502)" style="stroke:#000000; stroke-width:0.5; stroke-opacity:0.1; fill:none" points="
  34.9291,208.616 580.315,208.616 
  "/>
<polyline clip-path="url(#clip7502)" style="stroke:#000000; stroke-width:0.5; stroke-opacity:0.1; fill:none" points="
  34.9291,129.51 580.315,129.51 
  "/>
<polyline clip-path="url(#clip7502)" style="stroke:#000000; stroke-width:0.5; stroke-opacity:0.1; fill:none" points="
  34.9291,50.4035 580.315,50.4035 
  "/>
<polyline clip-path="url(#clip7500)" style="stroke:#000000; stroke-width:1; stroke-opacity:1; fill:none" points="
  34.9291,377.168 580.315,377.168 
  "/>
<polyline clip-path="url(#clip7500)" style="stroke:#000000; stroke-width:1; stroke-opacity:1; fill:none" points="
  34.9291,377.168 34.9291,11.811 
  "/>
<polyline clip-path="url(#clip7500)" style="stroke:#000000; stroke-width:1; stroke-opacity:1; fill:none" points="
  123.867,377.168 123.867,371.688 
  "/>
<polyline clip-path="url(#clip7500)" style="stroke:#000000; stroke-width:1; stroke-opacity:1; fill:none" points="
  215.744,377.168 215.744,371.688 
  "/>
<polyline clip-path="url(#clip7500)" style="stroke:#000000; stroke-width:1; stroke-opacity:1; fill:none" points="
  307.622,377.168 307.622,371.688 
  "/>
<polyline clip-path="url(#clip7500)" style="stroke:#000000; stroke-width:1; stroke-opacity:1; fill:none" points="
  399.5,377.168 399.5,371.688 
  "/>
<polyline clip-path="url(#clip7500)" style="stroke:#000000; stroke-width:1; stroke-opacity:1; fill:none" points="
  491.377,377.168 491.377,371.688 
  "/>
<polyline clip-path="url(#clip7500)" style="stroke:#000000; stroke-width:1; stroke-opacity:1; fill:none" points="
  34.9291,366.828 43.1099,366.828 
  "/>
<polyline clip-path="url(#clip7500)" style="stroke:#000000; stroke-width:1; stroke-opacity:1; fill:none" points="
  34.9291,287.722 43.1099,287.722 
  "/>
<polyline clip-path="url(#clip7500)" style="stroke:#000000; stroke-width:1; stroke-opacity:1; fill:none" points="
  34.9291,208.616 43.1099,208.616 
  "/>
<polyline clip-path="url(#clip7500)" style="stroke:#000000; stroke-width:1; stroke-opacity:1; fill:none" points="
  34.9291,129.51 43.1099,129.51 
  "/>
<polyline clip-path="url(#clip7500)" style="stroke:#000000; stroke-width:1; stroke-opacity:1; fill:none" points="
  34.9291,50.4035 43.1099,50.4035 
  "/>
<g clip-path="url(#clip7500)">
<text style="fill:#000000; fill-opacity:1; font-family:Arial,Helvetica Neue,Helvetica,sans-serif; font-size:12; text-anchor:middle;" transform="rotate(0, 123.867, 390.968)" x="123.867" y="390.968">-5.0</text>
</g>
<g clip-path="url(#clip7500)">
<text style="fill:#000000; fill-opacity:1; font-family:Arial,Helvetica Neue,Helvetica,sans-serif; font-size:12; text-anchor:middle;" transform="rotate(0, 215.744, 390.968)" x="215.744" y="390.968">-2.5</text>
</g>
<g clip-path="url(#clip7500)">
<text style="fill:#000000; fill-opacity:1; font-family:Arial,Helvetica Neue,Helvetica,sans-serif; font-size:12; text-anchor:middle;" transform="rotate(0, 307.622, 390.968)" x="307.622" y="390.968">0.0</text>
</g>
<g clip-path="url(#clip7500)">
<text style="fill:#000000; fill-opacity:1; font-family:Arial,Helvetica Neue,Helvetica,sans-serif; font-size:12; text-anchor:middle;" transform="rotate(0, 399.5, 390.968)" x="399.5" y="390.968">2.5</text>
</g>
<g clip-path="url(#clip7500)">
<text style="fill:#000000; fill-opacity:1; font-family:Arial,Helvetica Neue,Helvetica,sans-serif; font-size:12; text-anchor:middle;" transform="rotate(0, 491.377, 390.968)" x="491.377" y="390.968">5.0</text>
</g>
<g clip-path="url(#clip7500)">
<text style="fill:#000000; fill-opacity:1; font-family:Arial,Helvetica Neue,Helvetica,sans-serif; font-size:12; text-anchor:end;" transform="rotate(0, 28.9291, 371.328)" x="28.9291" y="371.328">0</text>
</g>
<g clip-path="url(#clip7500)">
<text style="fill:#000000; fill-opacity:1; font-family:Arial,Helvetica Neue,Helvetica,sans-serif; font-size:12; text-anchor:end;" transform="rotate(0, 28.9291, 292.222)" x="28.9291" y="292.222">10</text>
</g>
<g clip-path="url(#clip7500)">
<text style="fill:#000000; fill-opacity:1; font-family:Arial,Helvetica Neue,Helvetica,sans-serif; font-size:12; text-anchor:end;" transform="rotate(0, 28.9291, 213.116)" x="28.9291" y="213.116">20</text>
</g>
<g clip-path="url(#clip7500)">
<text style="fill:#000000; fill-opacity:1; font-family:Arial,Helvetica Neue,Helvetica,sans-serif; font-size:12; text-anchor:end;" transform="rotate(0, 28.9291, 134.01)" x="28.9291" y="134.01">30</text>
</g>
<g clip-path="url(#clip7500)">
<text style="fill:#000000; fill-opacity:1; font-family:Arial,Helvetica Neue,Helvetica,sans-serif; font-size:12; text-anchor:end;" transform="rotate(0, 28.9291, 54.9035)" x="28.9291" y="54.9035">40</text>
</g>
<circle clip-path="url(#clip7502)" style="fill:#000000; stroke:none; fill-opacity:1" cx="123.867" cy="169.063" r="4"/>
<circle clip-path="url(#clip7502)" style="fill:#009af9; stroke:none; fill-opacity:1" cx="123.867" cy="169.063" r="3"/>
<circle clip-path="url(#clip7502)" style="fill:#000000; stroke:none; fill-opacity:1" cx="150.117" cy="221.531" r="4"/>
<circle clip-path="url(#clip7502)" style="fill:#009af9; stroke:none; fill-opacity:1" cx="150.117" cy="221.531" r="3"/>
<circle clip-path="url(#clip7502)" style="fill:#000000; stroke:none; fill-opacity:1" cx="176.368" cy="265.927" r="4"/>
<circle clip-path="url(#clip7502)" style="fill:#009af9; stroke:none; fill-opacity:1" cx="176.368" cy="265.927" r="3"/>
<circle clip-path="url(#clip7502)" style="fill:#000000; stroke:none; fill-opacity:1" cx="202.619" cy="302.251" r="4"/>
<circle clip-path="url(#clip7502)" style="fill:#009af9; stroke:none; fill-opacity:1" cx="202.619" cy="302.251" r="3"/>
<circle clip-path="url(#clip7502)" style="fill:#000000; stroke:none; fill-opacity:1" cx="228.87" cy="330.504" r="4"/>
<circle clip-path="url(#clip7502)" style="fill:#009af9; stroke:none; fill-opacity:1" cx="228.87" cy="330.504" r="3"/>
<circle clip-path="url(#clip7502)" style="fill:#000000; stroke:none; fill-opacity:1" cx="255.121" cy="350.684" r="4"/>
<circle clip-path="url(#clip7502)" style="fill:#009af9; stroke:none; fill-opacity:1" cx="255.121" cy="350.684" r="3"/>
<circle clip-path="url(#clip7502)" style="fill:#000000; stroke:none; fill-opacity:1" cx="281.371" cy="362.792" r="4"/>
<circle clip-path="url(#clip7502)" style="fill:#009af9; stroke:none; fill-opacity:1" cx="281.371" cy="362.792" r="3"/>
<circle clip-path="url(#clip7502)" style="fill:#000000; stroke:none; fill-opacity:1" cx="307.622" cy="366.828" r="4"/>
<circle clip-path="url(#clip7502)" style="fill:#009af9; stroke:none; fill-opacity:1" cx="307.622" cy="366.828" r="3"/>
<circle clip-path="url(#clip7502)" style="fill:#000000; stroke:none; fill-opacity:1" cx="333.873" cy="362.792" r="4"/>
<circle clip-path="url(#clip7502)" style="fill:#009af9; stroke:none; fill-opacity:1" cx="333.873" cy="362.792" r="3"/>
<circle clip-path="url(#clip7502)" style="fill:#000000; stroke:none; fill-opacity:1" cx="360.124" cy="350.684" r="4"/>
<circle clip-path="url(#clip7502)" style="fill:#009af9; stroke:none; fill-opacity:1" cx="360.124" cy="350.684" r="3"/>
<circle clip-path="url(#clip7502)" style="fill:#000000; stroke:none; fill-opacity:1" cx="386.374" cy="330.504" r="4"/>
<circle clip-path="url(#clip7502)" style="fill:#009af9; stroke:none; fill-opacity:1" cx="386.374" cy="330.504" r="3"/>
<circle clip-path="url(#clip7502)" style="fill:#000000; stroke:none; fill-opacity:1" cx="412.625" cy="302.251" r="4"/>
<circle clip-path="url(#clip7502)" style="fill:#009af9; stroke:none; fill-opacity:1" cx="412.625" cy="302.251" r="3"/>
<circle clip-path="url(#clip7502)" style="fill:#000000; stroke:none; fill-opacity:1" cx="438.876" cy="265.927" r="4"/>
<circle clip-path="url(#clip7502)" style="fill:#009af9; stroke:none; fill-opacity:1" cx="438.876" cy="265.927" r="3"/>
<circle clip-path="url(#clip7502)" style="fill:#000000; stroke:none; fill-opacity:1" cx="465.127" cy="221.531" r="4"/>
<circle clip-path="url(#clip7502)" style="fill:#009af9; stroke:none; fill-opacity:1" cx="465.127" cy="221.531" r="3"/>
<circle clip-path="url(#clip7502)" style="fill:#000000; stroke:none; fill-opacity:1" cx="491.377" cy="169.063" r="4"/>
<circle clip-path="url(#clip7502)" style="fill:#009af9; stroke:none; fill-opacity:1" cx="491.377" cy="169.063" r="3"/>
<polyline clip-path="url(#clip7502)" style="stroke:#e26f46; stroke-width:2; stroke-opacity:1; fill:none" points="
  50.3646,169.063 52.9501,169.063 55.5356,169.063 58.1211,169.063 60.7066,169.063 63.2921,169.063 65.8776,169.063 68.4631,169.063 71.0486,169.063 73.6341,169.063 
  76.2196,169.063 78.8051,169.063 81.3906,169.063 83.9761,169.063 86.5616,169.063 89.1471,169.063 91.7326,169.063 94.3181,169.063 96.9036,169.063 99.4891,169.063 
  102.075,169.063 104.66,169.063 107.246,169.063 109.831,169.063 112.417,169.063 115.002,169.063 117.588,169.063 120.173,169.063 122.759,169.063 125.344,172.016 
  127.93,177.183 130.515,182.351 133.101,187.519 135.686,192.687 138.272,197.854 140.857,203.022 143.443,208.19 146.028,213.357 148.614,218.525 151.199,223.36 
  153.785,227.733 156.37,232.106 158.956,236.478 161.541,240.851 164.127,245.224 166.712,249.597 169.298,253.969 171.883,258.342 174.469,262.715 177.054,266.876 
  179.64,270.454 182.225,274.032 184.811,277.609 187.396,281.187 189.982,284.765 192.567,288.342 195.153,291.92 197.738,295.498 200.324,299.075 202.909,302.564 
  205.495,305.346 208.08,308.129 210.666,310.912 213.251,313.694 215.837,316.477 218.422,319.259 221.008,322.042 223.593,324.825 226.179,327.607 228.764,330.39 
  231.35,332.41 233.935,334.398 236.521,336.385 239.106,338.373 241.692,340.36 244.277,342.348 246.863,344.336 249.448,346.323 252.034,348.311 254.619,350.298 
  257.205,351.645 259.79,352.838 262.376,354.03 264.961,355.223 267.547,356.415 270.132,357.608 272.718,358.8 275.303,359.993 277.889,361.185 280.474,362.378 
  283.06,363.051 285.645,363.449 288.231,363.846 290.816,364.244 293.402,364.641 295.987,365.039 298.573,365.436 301.158,365.834 303.744,366.232 306.329,366.629 
  308.915,366.629 311.5,366.232 314.086,365.834 316.671,365.436 319.257,365.039 321.842,364.641 324.428,364.244 327.013,363.846 329.599,363.449 332.184,363.051 
  334.77,362.378 337.355,361.185 339.941,359.993 342.526,358.8 345.112,357.608 347.697,356.415 350.283,355.223 352.868,354.03 355.454,352.838 358.039,351.645 
  360.625,350.298 363.21,348.311 365.796,346.323 368.381,344.336 370.967,342.348 373.552,340.36 376.138,338.373 378.723,336.385 381.309,334.398 383.894,332.41 
  386.48,330.39 389.065,327.607 391.651,324.825 394.236,322.042 396.822,319.259 399.407,316.477 401.993,313.694 404.578,310.912 407.164,308.129 409.749,305.346 
  412.335,302.564 414.92,299.075 417.506,295.498 420.091,291.92 422.677,288.342 425.262,284.765 427.848,281.187 430.433,277.609 433.019,274.032 435.604,270.454 
  438.19,266.876 440.775,262.715 443.361,258.342 445.946,253.969 448.532,249.597 451.117,245.224 453.703,240.851 456.288,236.478 458.874,232.106 461.459,227.733 
  464.045,223.36 466.63,218.525 469.216,213.357 471.801,208.19 474.387,203.022 476.972,197.854 479.558,192.687 482.143,187.519 484.729,182.351 487.314,177.183 
  489.9,172.016 492.485,169.063 495.071,169.063 497.656,169.063 500.242,169.063 502.827,169.063 505.413,169.063 507.998,169.063 510.584,169.063 513.169,169.063 
  515.755,169.063 518.34,169.063 520.926,169.063 523.511,169.063 526.097,169.063 528.682,169.063 531.268,169.063 533.853,169.063 536.439,169.063 539.024,169.063 
  541.61,169.063 544.195,169.063 546.781,169.063 549.366,169.063 551.952,169.063 554.538,169.063 557.123,169.063 559.709,169.063 562.294,169.063 564.88,169.063 
  
  "/>
<polyline clip-path="url(#clip7502)" style="stroke:#3da44d; stroke-width:2; stroke-opacity:1; fill:none" points="
  50.3646,22.1513 52.9501,27.3191 55.5356,32.4868 58.1211,37.6545 60.7066,42.8223 63.2921,47.99 65.8776,53.1577 68.4631,58.3255 71.0486,63.4932 73.6341,68.6609 
  76.2196,73.8287 78.8051,78.9964 81.3906,84.1641 83.9761,89.3319 86.5616,94.4996 89.1471,99.6673 91.7326,104.835 94.3181,110.003 96.9036,115.171 99.4891,120.338 
  102.075,125.506 104.66,130.674 107.246,135.841 109.831,141.009 112.417,146.177 115.002,151.345 117.588,156.512 120.173,161.68 122.759,166.848 125.344,172.016 
  127.93,177.183 130.515,182.351 133.101,187.519 135.686,192.687 138.272,197.854 140.857,203.022 143.443,208.19 146.028,213.357 148.614,218.525 151.199,223.36 
  153.785,227.733 156.37,232.106 158.956,236.478 161.541,240.851 164.127,245.224 166.712,249.597 169.298,253.969 171.883,258.342 174.469,262.715 177.054,266.876 
  179.64,270.454 182.225,274.032 184.811,277.609 187.396,281.187 189.982,284.765 192.567,288.342 195.153,291.92 197.738,295.498 200.324,299.075 202.909,302.564 
  205.495,305.346 208.08,308.129 210.666,310.912 213.251,313.694 215.837,316.477 218.422,319.259 221.008,322.042 223.593,324.825 226.179,327.607 228.764,330.39 
  231.35,332.41 233.935,334.398 236.521,336.385 239.106,338.373 241.692,340.36 244.277,342.348 246.863,344.336 249.448,346.323 252.034,348.311 254.619,350.298 
  257.205,351.645 259.79,352.838 262.376,354.03 264.961,355.223 267.547,356.415 270.132,357.608 272.718,358.8 275.303,359.993 277.889,361.185 280.474,362.378 
  283.06,363.051 285.645,363.449 288.231,363.846 290.816,364.244 293.402,364.641 295.987,365.039 298.573,365.436 301.158,365.834 303.744,366.232 306.329,366.629 
  308.915,366.629 311.5,366.232 314.086,365.834 316.671,365.436 319.257,365.039 321.842,364.641 324.428,364.244 327.013,363.846 329.599,363.449 332.184,363.051 
  334.77,362.378 337.355,361.185 339.941,359.993 342.526,358.8 345.112,357.608 347.697,356.415 350.283,355.223 352.868,354.03 355.454,352.838 358.039,351.645 
  360.625,350.298 363.21,348.311 365.796,346.323 368.381,344.336 370.967,342.348 373.552,340.36 376.138,338.373 378.723,336.385 381.309,334.398 383.894,332.41 
  386.48,330.39 389.065,327.607 391.651,324.825 394.236,322.042 396.822,319.259 399.407,316.477 401.993,313.694 404.578,310.912 407.164,308.129 409.749,305.346 
  412.335,302.564 414.92,299.075 417.506,295.498 420.091,291.92 422.677,288.342 425.262,284.765 427.848,281.187 430.433,277.609 433.019,274.032 435.604,270.454 
  438.19,266.876 440.775,262.715 443.361,258.342 445.946,253.969 448.532,249.597 451.117,245.224 453.703,240.851 456.288,236.478 458.874,232.106 461.459,227.733 
  464.045,223.36 466.63,218.525 469.216,213.357 471.801,208.19 474.387,203.022 476.972,197.854 479.558,192.687 482.143,187.519 484.729,182.351 487.314,177.183 
  489.9,172.016 492.485,166.848 495.071,161.68 497.656,156.512 500.242,151.345 502.827,146.177 505.413,141.009 507.998,135.841 510.584,130.674 513.169,125.506 
  515.755,120.338 518.34,115.171 520.926,110.003 523.511,104.835 526.097,99.6673 528.682,94.4996 531.268,89.3319 533.853,84.1641 536.439,78.9964 539.024,73.8287 
  541.61,68.6609 544.195,63.4932 546.781,58.3255 549.366,53.1577 551.952,47.99 554.538,42.8223 557.123,37.6545 559.709,32.4868 562.294,27.3191 564.88,22.1513 
  
  "/>
<polygon clip-path="url(#clip7500)" points="
329.756,93.171 562.315,93.171 562.315,32.691 329.756,32.691 
  " fill="#ffffff" fill-opacity="1"/>
<polyline clip-path="url(#clip7500)" style="stroke:#000000; stroke-width:1; stroke-opacity:1; fill:none" points="
  329.756,93.171 562.315,93.171 562.315,32.691 329.756,32.691 329.756,93.171 
  "/>
<circle clip-path="url(#clip7500)" style="fill:#000000; stroke:none; fill-opacity:1" cx="356.756" cy="47.811" r="6"/>
<circle clip-path="url(#clip7500)" style="fill:#009af9; stroke:none; fill-opacity:1" cx="356.756" cy="47.811" r="5"/>
<g clip-path="url(#clip7500)">
<text style="fill:#000000; fill-opacity:1; font-family:Arial,Helvetica Neue,Helvetica,sans-serif; font-size:12; text-anchor:start;" transform="rotate(0, 377.756, 52.311)" x="377.756" y="52.311">Pontos para interpolação</text>
</g>
<polyline clip-path="url(#clip7500)" style="stroke:#e26f46; stroke-width:2; stroke-opacity:1; fill:none" points="
  335.756,62.931 371.756,62.931 
  "/>
<g clip-path="url(#clip7500)">
<text style="fill:#000000; fill-opacity:1; font-family:Arial,Helvetica Neue,Helvetica,sans-serif; font-size:12; text-anchor:start;" transform="rotate(0, 377.756, 67.431)" x="377.756" y="67.431">Extrapolação constante</text>
</g>
<polyline clip-path="url(#clip7500)" style="stroke:#3da44d; stroke-width:2; stroke-opacity:1; fill:none" points="
  335.756,78.051 371.756,78.051 
  "/>
<g clip-path="url(#clip7500)">
<text style="fill:#000000; fill-opacity:1; font-family:Arial,Helvetica Neue,Helvetica,sans-serif; font-size:12; text-anchor:start;" transform="rotate(0, 377.756, 82.551)" x="377.756" y="82.551">Extrapolação usando última reta</text>
</g>
</svg>
