<?xml version="1.0" encoding="utf-8"?>
<svg xmlns="http://www.w3.org/2000/svg" xmlns:xlink="http://www.w3.org/1999/xlink" width="576" height="384" viewBox="0 0 2304 1536">
<defs>
  <clipPath id="clip1600">
    <rect x="0" y="0" width="2000" height="2000"/>
  </clipPath>
</defs>
<defs>
  <clipPath id="clip1601">
    <rect x="0" y="0" width="2304" height="1536"/>
  </clipPath>
</defs>
<polygon clip-path="url(#clip1601)" points="
0,1536 2304,1536 2304,0 0,0 
  " fill="#ffffff" fill-opacity="1"/>
<defs>
  <clipPath id="clip1602">
    <rect x="460" y="0" width="1614" height="1536"/>
  </clipPath>
</defs>
<polygon clip-path="url(#clip1601)" points="
121.251,1439.47 2225.26,1439.47 2225.26,47.2441 121.251,47.2441 
  " fill="#ffffff" fill-opacity="1"/>
<defs>
  <clipPath id="clip1603">
    <rect x="121" y="47" width="2105" height="1393"/>
  </clipPath>
</defs>
<polyline clip-path="url(#clip1603)" style="stroke:#000000; stroke-width:2; stroke-opacity:0.1; fill:none" points="
  160.748,1439.47 160.748,47.2441 
  "/>
<polyline clip-path="url(#clip1603)" style="stroke:#000000; stroke-width:2; stroke-opacity:0.1; fill:none" points="
  661.989,1439.47 661.989,47.2441 
  "/>
<polyline clip-path="url(#clip1603)" style="stroke:#000000; stroke-width:2; stroke-opacity:0.1; fill:none" points="
  1163.23,1439.47 1163.23,47.2441 
  "/>
<polyline clip-path="url(#clip1603)" style="stroke:#000000; stroke-width:2; stroke-opacity:0.1; fill:none" points="
  1664.47,1439.47 1664.47,47.2441 
  "/>
<polyline clip-path="url(#clip1603)" style="stroke:#000000; stroke-width:2; stroke-opacity:0.1; fill:none" points="
  2165.71,1439.47 2165.71,47.2441 
  "/>
<polyline clip-path="url(#clip1603)" style="stroke:#000000; stroke-width:2; stroke-opacity:0.1; fill:none" points="
  121.251,1413.33 2225.26,1413.33 
  "/>
<polyline clip-path="url(#clip1603)" style="stroke:#000000; stroke-width:2; stroke-opacity:0.1; fill:none" points="
  121.251,1172.29 2225.26,1172.29 
  "/>
<polyline clip-path="url(#clip1603)" style="stroke:#000000; stroke-width:2; stroke-opacity:0.1; fill:none" points="
  121.251,931.254 2225.26,931.254 
  "/>
<polyline clip-path="url(#clip1603)" style="stroke:#000000; stroke-width:2; stroke-opacity:0.1; fill:none" points="
  121.251,690.217 2225.26,690.217 
  "/>
<polyline clip-path="url(#clip1603)" style="stroke:#000000; stroke-width:2; stroke-opacity:0.1; fill:none" points="
  121.251,449.18 2225.26,449.18 
  "/>
<polyline clip-path="url(#clip1603)" style="stroke:#000000; stroke-width:2; stroke-opacity:0.1; fill:none" points="
  121.251,208.143 2225.26,208.143 
  "/>
<polyline clip-path="url(#clip1601)" style="stroke:#000000; stroke-width:4; stroke-opacity:1; fill:none" points="
  121.251,1439.47 2225.26,1439.47 
  "/>
<polyline clip-path="url(#clip1601)" style="stroke:#000000; stroke-width:4; stroke-opacity:1; fill:none" points="
  121.251,1439.47 121.251,47.2441 
  "/>
<polyline clip-path="url(#clip1601)" style="stroke:#000000; stroke-width:4; stroke-opacity:1; fill:none" points="
  160.748,1439.47 160.748,1418.59 
  "/>
<polyline clip-path="url(#clip1601)" style="stroke:#000000; stroke-width:4; stroke-opacity:1; fill:none" points="
  661.989,1439.47 661.989,1418.59 
  "/>
<polyline clip-path="url(#clip1601)" style="stroke:#000000; stroke-width:4; stroke-opacity:1; fill:none" points="
  1163.23,1439.47 1163.23,1418.59 
  "/>
<polyline clip-path="url(#clip1601)" style="stroke:#000000; stroke-width:4; stroke-opacity:1; fill:none" points="
  1664.47,1439.47 1664.47,1418.59 
  "/>
<polyline clip-path="url(#clip1601)" style="stroke:#000000; stroke-width:4; stroke-opacity:1; fill:none" points="
  2165.71,1439.47 2165.71,1418.59 
  "/>
<polyline clip-path="url(#clip1601)" style="stroke:#000000; stroke-width:4; stroke-opacity:1; fill:none" points="
  121.251,1413.33 152.811,1413.33 
  "/>
<polyline clip-path="url(#clip1601)" style="stroke:#000000; stroke-width:4; stroke-opacity:1; fill:none" points="
  121.251,1172.29 152.811,1172.29 
  "/>
<polyline clip-path="url(#clip1601)" style="stroke:#000000; stroke-width:4; stroke-opacity:1; fill:none" points="
  121.251,931.254 152.811,931.254 
  "/>
<polyline clip-path="url(#clip1601)" style="stroke:#000000; stroke-width:4; stroke-opacity:1; fill:none" points="
  121.251,690.217 152.811,690.217 
  "/>
<polyline clip-path="url(#clip1601)" style="stroke:#000000; stroke-width:4; stroke-opacity:1; fill:none" points="
  121.251,449.18 152.811,449.18 
  "/>
<polyline clip-path="url(#clip1601)" style="stroke:#000000; stroke-width:4; stroke-opacity:1; fill:none" points="
  121.251,208.143 152.811,208.143 
  "/>
<g clip-path="url(#clip1601)">
<text style="fill:#000000; fill-opacity:1; font-family:Arial,Helvetica Neue,Helvetica,sans-serif; font-size:48px; text-anchor:middle;" transform="rotate(0, 160.748, 1492.99)" x="160.748" y="1492.99">0.0</text>
</g>
<g clip-path="url(#clip1601)">
<text style="fill:#000000; fill-opacity:1; font-family:Arial,Helvetica Neue,Helvetica,sans-serif; font-size:48px; text-anchor:middle;" transform="rotate(0, 661.989, 1492.99)" x="661.989" y="1492.99">2.5</text>
</g>
<g clip-path="url(#clip1601)">
<text style="fill:#000000; fill-opacity:1; font-family:Arial,Helvetica Neue,Helvetica,sans-serif; font-size:48px; text-anchor:middle;" transform="rotate(0, 1163.23, 1492.99)" x="1163.23" y="1492.99">5.0</text>
</g>
<g clip-path="url(#clip1601)">
<text style="fill:#000000; fill-opacity:1; font-family:Arial,Helvetica Neue,Helvetica,sans-serif; font-size:48px; text-anchor:middle;" transform="rotate(0, 1664.47, 1492.99)" x="1664.47" y="1492.99">7.5</text>
</g>
<g clip-path="url(#clip1601)">
<text style="fill:#000000; fill-opacity:1; font-family:Arial,Helvetica Neue,Helvetica,sans-serif; font-size:48px; text-anchor:middle;" transform="rotate(0, 2165.71, 1492.99)" x="2165.71" y="1492.99">10.0</text>
</g>
<g clip-path="url(#clip1601)">
<text style="fill:#000000; fill-opacity:1; font-family:Arial,Helvetica Neue,Helvetica,sans-serif; font-size:48px; text-anchor:end;" transform="rotate(0, 98.2105, 1430.83)" x="98.2105" y="1430.83">0</text>
</g>
<g clip-path="url(#clip1601)">
<text style="fill:#000000; fill-opacity:1; font-family:Arial,Helvetica Neue,Helvetica,sans-serif; font-size:48px; text-anchor:end;" transform="rotate(0, 98.2105, 1189.79)" x="98.2105" y="1189.79">1</text>
</g>
<g clip-path="url(#clip1601)">
<text style="fill:#000000; fill-opacity:1; font-family:Arial,Helvetica Neue,Helvetica,sans-serif; font-size:48px; text-anchor:end;" transform="rotate(0, 98.2105, 948.754)" x="98.2105" y="948.754">2</text>
</g>
<g clip-path="url(#clip1601)">
<text style="fill:#000000; fill-opacity:1; font-family:Arial,Helvetica Neue,Helvetica,sans-serif; font-size:48px; text-anchor:end;" transform="rotate(0, 98.2105, 707.717)" x="98.2105" y="707.717">3</text>
</g>
<g clip-path="url(#clip1601)">
<text style="fill:#000000; fill-opacity:1; font-family:Arial,Helvetica Neue,Helvetica,sans-serif; font-size:48px; text-anchor:end;" transform="rotate(0, 98.2105, 466.68)" x="98.2105" y="466.68">4</text>
</g>
<g clip-path="url(#clip1601)">
<text style="fill:#000000; fill-opacity:1; font-family:Arial,Helvetica Neue,Helvetica,sans-serif; font-size:48px; text-anchor:end;" transform="rotate(0, 98.2105, 225.643)" x="98.2105" y="225.643">5</text>
</g>
<polyline clip-path="url(#clip1603)" style="stroke:#009af9; stroke-width:8; stroke-opacity:1; fill:none" points="
  180.798,1399.62 190.772,1392.85 200.747,1386.79 210.721,1381.23 220.696,1373.24 230.67,1367.54 240.645,1361.27 250.619,1353.72 260.594,1346.52 270.568,1341.08 
  280.542,1333.85 290.517,1329.36 300.491,1319.09 310.466,1314.49 320.44,1307.4 330.415,1301.22 340.389,1296.74 350.364,1286.35 360.338,1280.71 370.312,1276.18 
  380.287,1266.49 390.261,1260.21 400.236,1255.65 410.21,1247.83 420.185,1241.43 430.159,1236.9 440.134,1230.36 450.108,1218.94 460.082,1214.33 470.057,1209.77 
  480.031,1202.09 490.006,1195.17 499.98,1190.64 509.955,1186.16 519.929,1175.02 529.904,1168.74 539.878,1164.2 549.852,1159.72 559.827,1149.14 569.801,1138.68 
  579.776,1134.06 589.75,1129.48 599.725,1124.45 609.699,1114 619.674,1109.42 629.648,1104.88 639.622,1100.39 649.597,1088.97 659.571,1082.25 669.546,1077.7 
  679.52,1073.19 689.495,1066.67 699.469,1054.67 709.444,1045.25 719.418,1040.63 729.392,1036.04 739.367,1031.49 749.341,1021.57 759.316,1014.79 769.29,1010.22 
  779.265,1005.67 789.239,1001.16 799.214,989.668 809.188,983.408 819.162,978.857 829.137,974.336 839.111,969.844 849.086,958.955 859.06,946.963 869.035,941.162 
  879.009,936.575 888.984,932.016 898.958,927.484 908.932,917.443 918.907,909.825 928.881,905.262 938.856,900.724 948.83,896.211 958.805,889.116 968.779,878.309 
  978.754,873.764 988.728,869.242 998.702,864.744 1008.68,860.269 1018.65,849.99 1028.63,837.999 1038.6,827.51 1048.57,822.915 1058.55,818.341 1068.52,813.789 
  1078.5,809.259 1088.47,800.067 1098.45,788.075 1108.42,780.033 1118.4,775.427 1128.37,770.842 1138.34,766.278 1148.32,761.733 1158.29,751.336 1168.27,743.179 
  1178.24,738.603 1188.22,734.046 1198.19,729.507 1208.17,724.988 1218.14,715.79 1228.11,704.877 1238.09,700.314 1248.06,695.769 1258.04,691.241 1268.01,686.731 
  1277.99,681.437 1287.96,669.446 1297.94,657.455 1307.91,648.741 1317.88,644.15 1327.86,639.577 1337.83,635.02 1347.81,630.48 1357.78,624.295 1367.76,612.303 
  1377.73,605.645 1387.71,601.081 1397.68,596.533 1407.65,592 1417.63,587.483 1427.6,580.337 1437.58,568.345 1447.55,563.355 1457.53,558.821 1467.5,554.301 
  1477.48,549.796 1487.45,545.306 1497.42,537.572 1507.4,525.58 1517.37,513.954 1527.35,509.397 1537.32,504.853 1547.3,500.324 1557.27,495.808 1567.25,491.306 
  1577.22,484.009 1587.19,472.017 1597.17,460.026 1607.14,448.966 1617.12,444.372 1627.09,439.791 1637.07,435.223 1647.04,430.669 1657.02,426.128 1666.99,419.647 
  1676.96,407.656 1686.94,400.39 1696.91,395.824 1706.89,391.271 1716.86,386.731 1726.84,382.203 1736.81,377.687 1746.79,368.47 1756.76,356.842 1766.73,352.293 
  1776.71,347.755 1786.68,343.23 1796.66,338.717 1806.63,334.215 1816.61,329.725 1826.58,318.486 1836.56,306.495 1846.53,297.56 1856.5,293.011 1866.48,288.474 
  1876.45,283.948 1886.43,279.433 1896.4,274.929 1906.38,269.696 1916.35,257.704 1926.33,245.713 1936.3,233.722 1946.27,221.731 1956.25,215.513 1966.22,210.914 
  1976.2,206.325 1986.17,201.748 1996.15,197.181 2006.12,192.624 2016.1,186.124 2026.07,174.133 2036.04,162.142 2046.02,154.768 2055.99,150.164 2065.97,145.571 
  2075.94,140.987 2085.92,136.414 2095.89,131.851 2105.87,127.299 2115.84,115.737 2125.81,104.937 2135.79,100.35 2145.76,95.7724 2155.74,91.2047 2165.71,86.6468 
  
  "/>
<polyline clip-path="url(#clip1603)" style="stroke:#e26f46; stroke-width:8; stroke-opacity:1; fill:none" stroke-dasharray="32, 20" points="
  180.798,1400.07 190.772,1393.48 200.747,1386.88 210.721,1380.29 220.696,1373.69 230.67,1367.1 240.645,1360.5 250.619,1353.91 260.594,1347.31 270.568,1340.72 
  280.542,1334.12 290.517,1327.52 300.491,1320.93 310.466,1314.33 320.44,1307.74 330.415,1301.14 340.389,1294.55 350.364,1287.95 360.338,1281.36 370.312,1274.76 
  380.287,1268.17 390.261,1261.57 400.236,1254.98 410.21,1248.38 420.185,1241.79 430.159,1235.19 440.134,1228.6 450.108,1222 460.082,1215.41 470.057,1208.81 
  480.031,1202.22 490.006,1195.62 499.98,1189.03 509.955,1182.43 519.929,1175.83 529.904,1169.24 539.878,1162.64 549.852,1156.05 559.827,1149.45 569.801,1142.86 
  579.776,1136.26 589.75,1129.67 599.725,1123.07 609.699,1116.48 619.674,1109.88 629.648,1103.29 639.622,1096.69 649.597,1090.1 659.571,1083.5 669.546,1076.91 
  679.52,1070.31 689.495,1063.72 699.469,1057.12 709.444,1050.53 719.418,1043.93 729.392,1037.34 739.367,1030.74 749.341,1024.14 759.316,1017.55 769.29,1010.95 
  779.265,1004.36 789.239,997.764 799.214,991.169 809.188,984.573 819.162,977.978 829.137,971.383 839.111,964.788 849.086,958.192 859.06,951.597 869.035,945.002 
  879.009,938.407 888.984,931.812 898.958,925.216 908.932,918.621 918.907,912.026 928.881,905.431 938.856,898.836 948.83,892.24 958.805,885.645 968.779,879.05 
  978.754,872.455 988.728,865.859 998.702,859.264 1008.68,852.669 1018.65,846.074 1028.63,839.479 1038.6,832.883 1048.57,826.288 1058.55,819.693 1068.52,813.098 
  1078.5,806.503 1088.47,799.907 1098.45,793.312 1108.42,786.717 1118.4,780.122 1128.37,773.526 1138.34,766.931 1148.32,760.336 1158.29,753.741 1168.27,747.146 
  1178.24,740.55 1188.22,733.955 1198.19,727.36 1208.17,720.765 1218.14,714.17 1228.11,707.574 1238.09,700.979 1248.06,694.384 1258.04,687.789 1268.01,681.193 
  1277.99,674.598 1287.96,668.003 1297.94,661.408 1307.91,654.813 1317.88,648.217 1327.86,641.622 1337.83,635.027 1347.81,628.432 1357.78,621.836 1367.76,615.241 
  1377.73,608.646 1387.71,602.051 1397.68,595.456 1407.65,588.86 1417.63,582.265 1427.6,575.67 1437.58,569.075 1447.55,562.48 1457.53,555.884 1467.5,549.289 
  1477.48,542.694 1487.45,536.099 1497.42,529.503 1507.4,522.908 1517.37,516.313 1527.35,509.718 1537.32,503.123 1547.3,496.527 1557.27,489.932 1567.25,483.337 
  1577.22,476.742 1587.19,470.147 1597.17,463.551 1607.14,456.956 1617.12,450.361 1627.09,443.766 1637.07,437.17 1647.04,430.575 1657.02,423.98 1666.99,417.385 
  1676.96,410.79 1686.94,404.194 1696.91,397.599 1706.89,391.004 1716.86,384.409 1726.84,377.813 1736.81,371.218 1746.79,364.623 1756.76,358.028 1766.73,351.433 
  1776.71,344.837 1786.68,338.242 1796.66,331.647 1806.63,325.052 1816.61,318.457 1826.58,311.861 1836.56,305.266 1846.53,298.671 1856.5,292.076 1866.48,285.48 
  1876.45,278.885 1886.43,272.29 1896.4,265.695 1906.38,259.1 1916.35,252.504 1926.33,245.909 1936.3,239.314 1946.27,232.719 1956.25,226.124 1966.22,219.528 
  1976.2,212.933 1986.17,206.338 1996.15,199.743 2006.12,193.147 2016.1,186.552 2026.07,179.957 2036.04,173.362 2046.02,166.767 2055.99,160.171 2065.97,153.576 
  2075.94,146.981 2085.92,140.386 2095.89,133.79 2105.87,127.195 2115.84,120.6 2125.81,114.005 2135.79,107.41 2145.76,100.814 2155.74,94.2192 2165.71,87.624 
  
  "/>
<polygon clip-path="url(#clip1601)" points="
190.371,306.444 835.442,306.444 835.442,125.004 190.371,125.004 
  " fill="#ffffff" fill-opacity="1"/>
<polyline clip-path="url(#clip1601)" style="stroke:#000000; stroke-width:4; stroke-opacity:1; fill:none" points="
  190.371,306.444 835.442,306.444 835.442,125.004 190.371,125.004 190.371,306.444 
  "/>
<polyline clip-path="url(#clip1601)" style="stroke:#009af9; stroke-width:8; stroke-opacity:1; fill:none" points="
  213.411,185.484 351.651,185.484 
  "/>
<g clip-path="url(#clip1601)">
<text style="fill:#000000; fill-opacity:1; font-family:Arial,Helvetica Neue,Helvetica,sans-serif; font-size:48px; text-anchor:start;" transform="rotate(0, 374.691, 202.984)" x="374.691" y="202.984">Solução estimada</text>
</g>
<polyline clip-path="url(#clip1601)" style="stroke:#e26f46; stroke-width:8; stroke-opacity:1; fill:none" stroke-dasharray="32, 20" points="
  213.411,245.964 351.651,245.964 
  "/>
<g clip-path="url(#clip1601)">
<text style="fill:#000000; fill-opacity:1; font-family:Arial,Helvetica Neue,Helvetica,sans-serif; font-size:48px; text-anchor:start;" transform="rotate(0, 374.691, 263.464)" x="374.691" y="263.464">Solução verdadeira</text>
</g>
</svg>
