<?xml version="1.0" encoding="utf-8"?>
<svg xmlns="http://www.w3.org/2000/svg" xmlns:xlink="http://www.w3.org/1999/xlink" width="576" height="384" viewBox="0 0 2304 1536">
<defs>
  <clipPath id="clip1800">
    <rect x="0" y="0" width="2000" height="2000"/>
  </clipPath>
</defs>
<defs>
  <clipPath id="clip1801">
    <rect x="0" y="0" width="2304" height="1536"/>
  </clipPath>
</defs>
<polygon clip-path="url(#clip1801)" points="
0,1536 2304,1536 2304,0 0,0 
  " fill="#ffffff" fill-opacity="1"/>
<defs>
  <clipPath id="clip1802">
    <rect x="460" y="0" width="1614" height="1536"/>
  </clipPath>
</defs>
<polygon clip-path="url(#clip1801)" points="
216.266,1439.47 2225.26,1439.47 2225.26,47.2441 216.266,47.2441 
  " fill="#ffffff" fill-opacity="1"/>
<defs>
  <clipPath id="clip1803">
    <rect x="216" y="47" width="2010" height="1393"/>
  </clipPath>
</defs>
<polyline clip-path="url(#clip1803)" style="stroke:#000000; stroke-width:2; stroke-opacity:0.1; fill:none" points="
  253.981,1439.47 253.981,47.2441 
  "/>
<polyline clip-path="url(#clip1803)" style="stroke:#000000; stroke-width:2; stroke-opacity:0.1; fill:none" points="
  732.586,1439.47 732.586,47.2441 
  "/>
<polyline clip-path="url(#clip1803)" style="stroke:#000000; stroke-width:2; stroke-opacity:0.1; fill:none" points="
  1211.19,1439.47 1211.19,47.2441 
  "/>
<polyline clip-path="url(#clip1803)" style="stroke:#000000; stroke-width:2; stroke-opacity:0.1; fill:none" points="
  1689.8,1439.47 1689.8,47.2441 
  "/>
<polyline clip-path="url(#clip1803)" style="stroke:#000000; stroke-width:2; stroke-opacity:0.1; fill:none" points="
  2168.4,1439.47 2168.4,47.2441 
  "/>
<polyline clip-path="url(#clip1803)" style="stroke:#000000; stroke-width:2; stroke-opacity:0.1; fill:none" points="
  216.266,1267.02 2225.26,1267.02 
  "/>
<polyline clip-path="url(#clip1803)" style="stroke:#000000; stroke-width:2; stroke-opacity:0.1; fill:none" points="
  216.266,994.885 2225.26,994.885 
  "/>
<polyline clip-path="url(#clip1803)" style="stroke:#000000; stroke-width:2; stroke-opacity:0.1; fill:none" points="
  216.266,722.753 2225.26,722.753 
  "/>
<polyline clip-path="url(#clip1803)" style="stroke:#000000; stroke-width:2; stroke-opacity:0.1; fill:none" points="
  216.266,450.621 2225.26,450.621 
  "/>
<polyline clip-path="url(#clip1803)" style="stroke:#000000; stroke-width:2; stroke-opacity:0.1; fill:none" points="
  216.266,178.488 2225.26,178.488 
  "/>
<polyline clip-path="url(#clip1801)" style="stroke:#000000; stroke-width:4; stroke-opacity:1; fill:none" points="
  216.266,1439.47 2225.26,1439.47 
  "/>
<polyline clip-path="url(#clip1801)" style="stroke:#000000; stroke-width:4; stroke-opacity:1; fill:none" points="
  216.266,1439.47 216.266,47.2441 
  "/>
<polyline clip-path="url(#clip1801)" style="stroke:#000000; stroke-width:4; stroke-opacity:1; fill:none" points="
  253.981,1439.47 253.981,1418.59 
  "/>
<polyline clip-path="url(#clip1801)" style="stroke:#000000; stroke-width:4; stroke-opacity:1; fill:none" points="
  732.586,1439.47 732.586,1418.59 
  "/>
<polyline clip-path="url(#clip1801)" style="stroke:#000000; stroke-width:4; stroke-opacity:1; fill:none" points="
  1211.19,1439.47 1211.19,1418.59 
  "/>
<polyline clip-path="url(#clip1801)" style="stroke:#000000; stroke-width:4; stroke-opacity:1; fill:none" points="
  1689.8,1439.47 1689.8,1418.59 
  "/>
<polyline clip-path="url(#clip1801)" style="stroke:#000000; stroke-width:4; stroke-opacity:1; fill:none" points="
  2168.4,1439.47 2168.4,1418.59 
  "/>
<polyline clip-path="url(#clip1801)" style="stroke:#000000; stroke-width:4; stroke-opacity:1; fill:none" points="
  216.266,1267.02 246.401,1267.02 
  "/>
<polyline clip-path="url(#clip1801)" style="stroke:#000000; stroke-width:4; stroke-opacity:1; fill:none" points="
  216.266,994.885 246.401,994.885 
  "/>
<polyline clip-path="url(#clip1801)" style="stroke:#000000; stroke-width:4; stroke-opacity:1; fill:none" points="
  216.266,722.753 246.401,722.753 
  "/>
<polyline clip-path="url(#clip1801)" style="stroke:#000000; stroke-width:4; stroke-opacity:1; fill:none" points="
  216.266,450.621 246.401,450.621 
  "/>
<polyline clip-path="url(#clip1801)" style="stroke:#000000; stroke-width:4; stroke-opacity:1; fill:none" points="
  216.266,178.488 246.401,178.488 
  "/>
<g clip-path="url(#clip1801)">
<text style="fill:#000000; fill-opacity:1; font-family:Arial,Helvetica Neue,Helvetica,sans-serif; font-size:48px; text-anchor:middle;" transform="rotate(0, 253.981, 1492.99)" x="253.981" y="1492.99">0.0</text>
</g>
<g clip-path="url(#clip1801)">
<text style="fill:#000000; fill-opacity:1; font-family:Arial,Helvetica Neue,Helvetica,sans-serif; font-size:48px; text-anchor:middle;" transform="rotate(0, 732.586, 1492.99)" x="732.586" y="1492.99">2.5</text>
</g>
<g clip-path="url(#clip1801)">
<text style="fill:#000000; fill-opacity:1; font-family:Arial,Helvetica Neue,Helvetica,sans-serif; font-size:48px; text-anchor:middle;" transform="rotate(0, 1211.19, 1492.99)" x="1211.19" y="1492.99">5.0</text>
</g>
<g clip-path="url(#clip1801)">
<text style="fill:#000000; fill-opacity:1; font-family:Arial,Helvetica Neue,Helvetica,sans-serif; font-size:48px; text-anchor:middle;" transform="rotate(0, 1689.8, 1492.99)" x="1689.8" y="1492.99">7.5</text>
</g>
<g clip-path="url(#clip1801)">
<text style="fill:#000000; fill-opacity:1; font-family:Arial,Helvetica Neue,Helvetica,sans-serif; font-size:48px; text-anchor:middle;" transform="rotate(0, 2168.4, 1492.99)" x="2168.4" y="1492.99">10.0</text>
</g>
<g clip-path="url(#clip1801)">
<text style="fill:#000000; fill-opacity:1; font-family:Arial,Helvetica Neue,Helvetica,sans-serif; font-size:48px; text-anchor:end;" transform="rotate(0, 193.226, 1284.52)" x="193.226" y="1284.52">-0.04</text>
</g>
<g clip-path="url(#clip1801)">
<text style="fill:#000000; fill-opacity:1; font-family:Arial,Helvetica Neue,Helvetica,sans-serif; font-size:48px; text-anchor:end;" transform="rotate(0, 193.226, 1012.39)" x="193.226" y="1012.39">-0.02</text>
</g>
<g clip-path="url(#clip1801)">
<text style="fill:#000000; fill-opacity:1; font-family:Arial,Helvetica Neue,Helvetica,sans-serif; font-size:48px; text-anchor:end;" transform="rotate(0, 193.226, 740.253)" x="193.226" y="740.253">0.00</text>
</g>
<g clip-path="url(#clip1801)">
<text style="fill:#000000; fill-opacity:1; font-family:Arial,Helvetica Neue,Helvetica,sans-serif; font-size:48px; text-anchor:end;" transform="rotate(0, 193.226, 468.121)" x="193.226" y="468.121">0.02</text>
</g>
<g clip-path="url(#clip1801)">
<text style="fill:#000000; fill-opacity:1; font-family:Arial,Helvetica Neue,Helvetica,sans-serif; font-size:48px; text-anchor:end;" transform="rotate(0, 193.226, 195.988)" x="193.226" y="195.988">0.04</text>
</g>
<polyline clip-path="url(#clip1803)" style="stroke:#009af9; stroke-width:8; stroke-opacity:1; fill:none" points="
  273.125,748.314 282.649,757.853 292.173,727.867 301.697,669.584 311.221,748.482 320.745,697.423 330.269,679.247 339.793,733.48 349.317,767.252 358.841,702.186 
  368.365,737.766 377.889,618.982 387.413,826.324 396.937,713.992 406.461,742.154 415.985,718.167 425.509,599.219 435.033,813.417 444.557,759.167 454.081,642.659 
  463.605,817.329 473.129,799.433 482.653,684.708 492.177,753.889 501.701,743.073 511.225,626.192 520.749,623.099 530.273,895.48 539.797,783.743 549.321,668.324 
  558.845,729.568 568.369,748.057 577.893,631.598 587.417,511.928 596.941,768.686 606.465,750.982 615.989,634.696 625.513,515.533 635.037,740.453 644.561,958.753 
  654.085,847.373 663.609,733.356 673.133,644.869 682.657,862.663 692.181,748.87 701.705,632.682 711.229,514.168 720.753,786.544 730.277,793.186 739.801,677.894 
  749.325,560.45 758.849,556.258 768.373,860.868 777.897,1020.3 787.421,908.931 796.945,795.58 806.469,680.295 815.993,867.842 825.517,878.424 835.041,764.441 
  844.565,648.653 854.089,531.099 863.613,807.464 873.137,788.533 882.661,673.114 892.185,556.031 901.709,437.319 911.233,679.735 920.757,984.345 930.281,939.552 
  939.805,826.148 949.329,711.213 958.853,594.773 968.377,789.265 977.901,846.986 987.425,732.279 996.949,616.145 1006.47,498.608 1016,526.835 1025.52,764.588 
  1035.05,648.863 1044.57,531.799 1054.09,413.42 1063.62,293.743 1073.14,501.663 1082.67,806.273 1092.19,1026.05 1101.71,913.175 1111.24,799.055 1120.76,683.714 
  1130.29,567.162 1139.81,713.751 1149.33,1018.36 1158.86,1100.08 1168.38,987.746 1177.91,874.264 1187.43,759.644 1196.95,643.903 1206.48,858.487 1216,946.676 
  1225.53,832.705 1235.05,717.652 1244.57,601.53 1254.1,484.357 1263.62,631.263 1273.15,874.996 1282.67,760.295 1292.19,644.579 1301.72,527.852 1311.24,410.134 
  1320.77,336.687 1330.29,641.298 1339.81,945.908 1349.34,1065.51 1358.86,952.334 1368.39,838.205 1377.91,723.134 1387.43,607.131 1396.96,583.981 1406.48,888.591 
  1416.01,892.189 1425.53,777.52 1435.05,661.959 1444.58,545.506 1454.1,428.184 1463.63,459.314 1473.15,763.923 1482.67,673.322 1492.2,556.991 1501.72,439.816 
  1511.25,321.81 1520.77,202.977 1530.29,267.296 1539.82,571.905 1549.34,855.896 1558.87,740.881 1568.39,625.066 1577.91,508.456 1587.44,391.055 1596.96,272.877 
  1606.49,312.537 1616.01,617.146 1625.53,921.756 1635.06,1173.79 1644.58,1060.84 1654.11,947.124 1663.63,832.659 1673.15,717.458 1682.68,601.511 1692.2,595.037 
  1701.73,899.647 1711.25,937.513 1720.77,822.949 1730.3,707.668 1739.82,591.681 1749.35,474.991 1758.87,357.603 1768.39,505.575 1777.92,789.693 1787.44,674.206 
  1796.97,558.034 1806.49,441.19 1816.01,323.672 1825.54,205.491 1835.06,86.6468 1844.59,348.763 1854.11,653.373 1863.63,785.44 1873.16,669.929 1882.68,553.766 
  1892.21,436.965 1901.73,319.53 1911.25,201.462 1920.78,124.599 1930.3,429.21 1939.83,733.82 1949.35,1038.43 1958.87,1343.04 1968.4,1321.71 1977.92,1209.04 
  1987.45,1095.76 1996.97,981.866 2006.49,867.371 2016.02,752.278 2025.54,746.918 2035.07,1051.53 2044.59,1356.14 2054.11,1400.07 2063.64,1287.66 2073.16,1174.66 
  2082.69,1061.08 2092.21,946.939 2101.73,832.217 2111.26,716.926 2120.78,997.272 2130.31,1234.62 2139.83,1121.28 2149.35,1007.38 2158.88,892.921 2168.4,777.912 
  
  "/>
</svg>
