<?xml version="1.0" encoding="utf-8"?>
<svg xmlns="http://www.w3.org/2000/svg" xmlns:xlink="http://www.w3.org/1999/xlink" width="576" height="384" viewBox="0 0 2304 1536">
<defs>
  <clipPath id="clip4100">
    <rect x="0" y="0" width="2000" height="2000"/>
  </clipPath>
</defs>
<defs>
  <clipPath id="clip4101">
    <rect x="0" y="0" width="2304" height="1536"/>
  </clipPath>
</defs>
<polygon clip-path="url(#clip4101)" points="
0,1536 2304,1536 2304,0 0,0 
  " fill="#ffffff" fill-rule="evenodd" fill-opacity="1"/>
<defs>
  <clipPath id="clip4102">
    <rect x="460" y="0" width="1614" height="1536"/>
  </clipPath>
</defs>
<polygon clip-path="url(#clip4101)" points="
188.156,1439.47 2225.26,1439.47 2225.26,47.2441 188.156,47.2441 
  " fill="#ffffff" fill-rule="evenodd" fill-opacity="1"/>
<defs>
  <clipPath id="clip4103">
    <rect x="188" y="47" width="2038" height="1393"/>
  </clipPath>
</defs>
<polyline clip-path="url(#clip4103)" style="stroke:#000000; stroke-width:2; stroke-opacity:0.1; fill:none" points="
  241.959,1439.47 241.959,47.2441 
  "/>
<polyline clip-path="url(#clip4103)" style="stroke:#000000; stroke-width:2; stroke-opacity:0.1; fill:none" points="
  627.088,1439.47 627.088,47.2441 
  "/>
<polyline clip-path="url(#clip4103)" style="stroke:#000000; stroke-width:2; stroke-opacity:0.1; fill:none" points="
  1012.22,1439.47 1012.22,47.2441 
  "/>
<polyline clip-path="url(#clip4103)" style="stroke:#000000; stroke-width:2; stroke-opacity:0.1; fill:none" points="
  1397.35,1439.47 1397.35,47.2441 
  "/>
<polyline clip-path="url(#clip4103)" style="stroke:#000000; stroke-width:2; stroke-opacity:0.1; fill:none" points="
  1782.48,1439.47 1782.48,47.2441 
  "/>
<polyline clip-path="url(#clip4103)" style="stroke:#000000; stroke-width:2; stroke-opacity:0.1; fill:none" points="
  2167.61,1439.47 2167.61,47.2441 
  "/>
<polyline clip-path="url(#clip4103)" style="stroke:#000000; stroke-width:2; stroke-opacity:0.1; fill:none" points="
  188.156,1413.47 2225.26,1413.47 
  "/>
<polyline clip-path="url(#clip4103)" style="stroke:#000000; stroke-width:2; stroke-opacity:0.1; fill:none" points="
  188.156,1078.42 2225.26,1078.42 
  "/>
<polyline clip-path="url(#clip4103)" style="stroke:#000000; stroke-width:2; stroke-opacity:0.1; fill:none" points="
  188.156,743.359 2225.26,743.359 
  "/>
<polyline clip-path="url(#clip4103)" style="stroke:#000000; stroke-width:2; stroke-opacity:0.1; fill:none" points="
  188.156,408.302 2225.26,408.302 
  "/>
<polyline clip-path="url(#clip4103)" style="stroke:#000000; stroke-width:2; stroke-opacity:0.1; fill:none" points="
  188.156,73.2446 2225.26,73.2446 
  "/>
<polyline clip-path="url(#clip4101)" style="stroke:#000000; stroke-width:4; stroke-opacity:1; fill:none" points="
  188.156,1439.47 2225.26,1439.47 
  "/>
<polyline clip-path="url(#clip4101)" style="stroke:#000000; stroke-width:4; stroke-opacity:1; fill:none" points="
  188.156,1439.47 188.156,47.2441 
  "/>
<polyline clip-path="url(#clip4101)" style="stroke:#000000; stroke-width:4; stroke-opacity:1; fill:none" points="
  241.959,1439.47 241.959,1418.59 
  "/>
<polyline clip-path="url(#clip4101)" style="stroke:#000000; stroke-width:4; stroke-opacity:1; fill:none" points="
  627.088,1439.47 627.088,1418.59 
  "/>
<polyline clip-path="url(#clip4101)" style="stroke:#000000; stroke-width:4; stroke-opacity:1; fill:none" points="
  1012.22,1439.47 1012.22,1418.59 
  "/>
<polyline clip-path="url(#clip4101)" style="stroke:#000000; stroke-width:4; stroke-opacity:1; fill:none" points="
  1397.35,1439.47 1397.35,1418.59 
  "/>
<polyline clip-path="url(#clip4101)" style="stroke:#000000; stroke-width:4; stroke-opacity:1; fill:none" points="
  1782.48,1439.47 1782.48,1418.59 
  "/>
<polyline clip-path="url(#clip4101)" style="stroke:#000000; stroke-width:4; stroke-opacity:1; fill:none" points="
  2167.61,1439.47 2167.61,1418.59 
  "/>
<polyline clip-path="url(#clip4101)" style="stroke:#000000; stroke-width:4; stroke-opacity:1; fill:none" points="
  188.156,1413.47 218.713,1413.47 
  "/>
<polyline clip-path="url(#clip4101)" style="stroke:#000000; stroke-width:4; stroke-opacity:1; fill:none" points="
  188.156,1078.42 218.713,1078.42 
  "/>
<polyline clip-path="url(#clip4101)" style="stroke:#000000; stroke-width:4; stroke-opacity:1; fill:none" points="
  188.156,743.359 218.713,743.359 
  "/>
<polyline clip-path="url(#clip4101)" style="stroke:#000000; stroke-width:4; stroke-opacity:1; fill:none" points="
  188.156,408.302 218.713,408.302 
  "/>
<polyline clip-path="url(#clip4101)" style="stroke:#000000; stroke-width:4; stroke-opacity:1; fill:none" points="
  188.156,73.2446 218.713,73.2446 
  "/>
<g clip-path="url(#clip4101)">
<text style="fill:#000000; fill-opacity:1; font-family:Arial,Helvetica Neue,Helvetica,sans-serif; font-size:48px; text-anchor:middle;" transform="rotate(0, 241.959, 1492.99)" x="241.959" y="1492.99">0</text>
</g>
<g clip-path="url(#clip4101)">
<text style="fill:#000000; fill-opacity:1; font-family:Arial,Helvetica Neue,Helvetica,sans-serif; font-size:48px; text-anchor:middle;" transform="rotate(0, 627.088, 1492.99)" x="627.088" y="1492.99">100</text>
</g>
<g clip-path="url(#clip4101)">
<text style="fill:#000000; fill-opacity:1; font-family:Arial,Helvetica Neue,Helvetica,sans-serif; font-size:48px; text-anchor:middle;" transform="rotate(0, 1012.22, 1492.99)" x="1012.22" y="1492.99">200</text>
</g>
<g clip-path="url(#clip4101)">
<text style="fill:#000000; fill-opacity:1; font-family:Arial,Helvetica Neue,Helvetica,sans-serif; font-size:48px; text-anchor:middle;" transform="rotate(0, 1397.35, 1492.99)" x="1397.35" y="1492.99">300</text>
</g>
<g clip-path="url(#clip4101)">
<text style="fill:#000000; fill-opacity:1; font-family:Arial,Helvetica Neue,Helvetica,sans-serif; font-size:48px; text-anchor:middle;" transform="rotate(0, 1782.48, 1492.99)" x="1782.48" y="1492.99">400</text>
</g>
<g clip-path="url(#clip4101)">
<text style="fill:#000000; fill-opacity:1; font-family:Arial,Helvetica Neue,Helvetica,sans-serif; font-size:48px; text-anchor:middle;" transform="rotate(0, 2167.61, 1492.99)" x="2167.61" y="1492.99">500</text>
</g>
<g clip-path="url(#clip4101)">
<text style="fill:#000000; fill-opacity:1; font-family:Arial,Helvetica Neue,Helvetica,sans-serif; font-size:48px; text-anchor:end;" transform="rotate(0, 165.116, 1430.97)" x="165.116" y="1430.97">0.00</text>
</g>
<g clip-path="url(#clip4101)">
<text style="fill:#000000; fill-opacity:1; font-family:Arial,Helvetica Neue,Helvetica,sans-serif; font-size:48px; text-anchor:end;" transform="rotate(0, 165.116, 1095.92)" x="165.116" y="1095.92">0.25</text>
</g>
<g clip-path="url(#clip4101)">
<text style="fill:#000000; fill-opacity:1; font-family:Arial,Helvetica Neue,Helvetica,sans-serif; font-size:48px; text-anchor:end;" transform="rotate(0, 165.116, 760.859)" x="165.116" y="760.859">0.50</text>
</g>
<g clip-path="url(#clip4101)">
<text style="fill:#000000; fill-opacity:1; font-family:Arial,Helvetica Neue,Helvetica,sans-serif; font-size:48px; text-anchor:end;" transform="rotate(0, 165.116, 425.802)" x="165.116" y="425.802">0.75</text>
</g>
<g clip-path="url(#clip4101)">
<text style="fill:#000000; fill-opacity:1; font-family:Arial,Helvetica Neue,Helvetica,sans-serif; font-size:48px; text-anchor:end;" transform="rotate(0, 165.116, 90.7446)" x="165.116" y="90.7446">1.00</text>
</g>
<polyline clip-path="url(#clip4103)" style="stroke:#009af9; stroke-width:4; stroke-opacity:1; fill:none" points="
  245.81,1400.07 249.662,86.6468 253.513,1400.07 257.364,86.6468 261.215,1400.07 265.067,86.6468 268.918,1400.07 272.769,86.6468 276.621,1400.07 280.472,86.6468 
  284.323,1400.07 288.174,86.6468 292.026,1400.07 295.877,86.6468 299.728,1400.07 303.58,86.6468 307.431,1400.07 311.282,86.6468 315.134,1400.07 318.985,86.6468 
  322.836,1400.07 326.687,86.6468 330.539,1400.07 334.39,86.6468 338.241,1400.07 342.093,86.6468 345.944,1400.07 349.795,86.6468 353.646,1400.07 357.498,86.6468 
  361.349,1400.07 365.2,86.6468 369.052,1400.07 372.903,86.6468 376.754,1400.07 380.606,86.6468 384.457,1400.07 388.308,86.6468 392.159,1400.07 396.011,86.6468 
  399.862,1400.07 403.713,86.6468 407.565,1400.07 411.416,86.6468 415.267,1400.07 419.118,86.6468 422.97,1400.07 426.821,86.6468 430.672,1400.07 434.524,86.6468 
  438.375,1400.07 442.226,86.6468 446.078,1400.07 449.929,86.6468 453.78,1400.07 457.631,86.6468 461.483,1400.07 465.334,86.6468 469.185,1400.07 473.037,86.6468 
  476.888,1400.07 480.739,86.6468 484.59,1400.07 488.442,86.6468 492.293,1400.07 496.144,86.6468 499.996,1400.07 503.847,86.6468 507.698,1400.07 511.55,86.6468 
  515.401,1400.07 519.252,86.6468 523.103,1400.07 526.955,86.6468 530.806,1400.07 534.657,86.6468 538.509,1400.07 542.36,86.6468 546.211,1400.07 550.062,86.6468 
  553.914,1400.07 557.765,86.6468 561.616,1400.07 565.468,86.6468 569.319,1400.07 573.17,86.6468 577.022,1400.07 580.873,86.6468 584.724,1400.07 588.575,86.6468 
  592.427,1400.07 596.278,86.6468 600.129,1400.07 603.981,86.6468 607.832,1400.07 611.683,86.6468 615.534,1400.07 619.386,86.6468 623.237,1400.07 627.088,86.6468 
  630.94,1400.07 634.791,86.6468 638.642,1400.07 642.494,86.6468 646.345,1400.07 650.196,86.6468 654.047,1400.07 657.899,86.6468 661.75,1400.07 665.601,86.6468 
  669.453,1400.07 673.304,86.6468 677.155,1400.07 681.006,86.6468 684.858,1400.07 688.709,86.6468 692.56,1400.07 696.412,86.6468 700.263,1400.07 704.114,86.6468 
  707.966,1400.07 711.817,86.6468 715.668,1400.07 719.519,86.6468 723.371,1400.07 727.222,86.6468 731.073,1400.07 734.925,86.6468 738.776,1400.07 742.627,86.6468 
  746.478,1400.07 750.33,86.6468 754.181,1400.07 758.032,86.6468 761.884,1400.07 765.735,86.6468 769.586,1400.07 773.438,86.6468 777.289,1400.07 781.14,86.6468 
  784.991,1400.07 788.843,86.6468 792.694,1400.07 796.545,86.6468 800.397,1400.07 804.248,86.6468 808.099,1400.07 811.95,86.6468 815.802,1400.07 819.653,86.6468 
  823.504,1400.07 827.356,86.6468 831.207,1400.07 835.058,86.6468 838.91,1400.07 842.761,86.6468 846.612,1400.07 850.463,86.6468 854.315,1400.07 858.166,86.6468 
  862.017,1400.07 865.869,86.6468 869.72,1400.07 873.571,86.6468 877.422,1400.07 881.274,86.6468 885.125,1400.07 888.976,86.6468 892.828,1400.07 896.679,86.6468 
  900.53,1400.07 904.382,86.6468 908.233,1400.07 912.084,86.6468 915.935,1400.07 919.787,86.6468 923.638,1400.07 927.489,86.6468 931.341,1400.07 935.192,86.6468 
  939.043,1400.07 942.894,86.6468 946.746,1400.07 950.597,86.6468 954.448,1400.07 958.3,86.6468 962.151,1400.07 966.002,86.6468 969.854,1400.07 973.705,86.6468 
  977.556,1400.07 981.407,86.6468 985.259,1400.07 989.11,86.6468 992.961,1400.07 996.813,86.6468 1000.66,1400.07 1004.52,86.6468 1008.37,1400.07 1012.22,86.6468 
  1016.07,1400.07 1019.92,86.6468 1023.77,1400.07 1027.62,86.6468 1031.47,1400.07 1035.33,86.6468 1039.18,1400.07 1043.03,86.6468 1046.88,1400.07 1050.73,86.6468 
  1054.58,1400.07 1058.43,86.6468 1062.28,1400.07 1066.14,86.6468 1069.99,1400.07 1073.84,86.6468 1077.69,1400.07 1081.54,86.6468 1085.39,1400.07 1089.24,86.6468 
  1093.09,1400.07 1096.95,86.6468 1100.8,1400.07 1104.65,86.6468 1108.5,1400.07 1112.35,86.6468 1116.2,1400.07 1120.05,86.6468 1123.91,1400.07 1127.76,86.6468 
  1131.61,1400.07 1135.46,86.6468 1139.31,1400.07 1143.16,86.6468 1147.01,1400.07 1150.86,86.6468 1154.72,1400.07 1158.57,86.6468 1162.42,1400.07 1166.27,86.6468 
  1170.12,1400.07 1173.97,86.6468 1177.82,1400.07 1181.67,86.6468 1185.53,1400.07 1189.38,86.6468 1193.23,1400.07 1197.08,86.6468 1200.93,1400.07 1204.78,86.6468 
  1208.63,1400.07 1212.49,86.6468 1216.34,1400.07 1220.19,86.6468 1224.04,1400.07 1227.89,86.6468 1231.74,1400.07 1235.59,86.6468 1239.44,1400.07 1243.3,86.6468 
  1247.15,1400.07 1251,86.6468 1254.85,1400.07 1258.7,86.6468 1262.55,1400.07 1266.4,86.6468 1270.25,1400.07 1274.11,86.6468 1277.96,1400.07 1281.81,86.6468 
  1285.66,1400.07 1289.51,86.6468 1293.36,1400.07 1297.21,86.6468 1301.06,1400.07 1304.92,86.6468 1308.77,1400.07 1312.62,86.6468 1316.47,1400.07 1320.32,86.6468 
  1324.17,1400.07 1328.02,86.6468 1331.88,1400.07 1335.73,86.6468 1339.58,1400.07 1343.43,86.6468 1347.28,1400.07 1351.13,86.6468 1354.98,1400.07 1358.83,86.6468 
  1362.69,1400.07 1366.54,86.6468 1370.39,1400.07 1374.24,86.6468 1378.09,1400.07 1381.94,86.6468 1385.79,1400.07 1389.64,86.6468 1393.5,1400.07 1397.35,86.6468 
  1401.2,1400.07 1405.05,86.6468 1408.9,1400.07 1412.75,86.6468 1416.6,1400.07 1420.45,86.6468 1424.31,1400.07 1428.16,86.6468 1432.01,1400.07 1435.86,86.6468 
  1439.71,1400.07 1443.56,86.6468 1447.41,1400.07 1451.27,86.6468 1455.12,1400.07 1458.97,86.6468 1462.82,1400.07 1466.67,86.6468 1470.52,1400.07 1474.37,86.6468 
  1478.22,1400.07 1482.08,86.6468 1485.93,1400.07 1489.78,86.6468 1493.63,1400.07 1497.48,86.6468 1501.33,1400.07 1505.18,86.6468 1509.03,1400.07 1512.89,86.6468 
  1516.74,1400.07 1520.59,86.6468 1524.44,1400.07 1528.29,86.6468 1532.14,1400.07 1535.99,86.6468 1539.85,1400.07 1543.7,86.6468 1547.55,1400.07 1551.4,86.6468 
  1555.25,1400.07 1559.1,86.6468 1562.95,1400.07 1566.8,86.6468 1570.66,1400.07 1574.51,86.6468 1578.36,1400.07 1582.21,86.6468 1586.06,1400.07 1589.91,86.6468 
  1593.76,1400.07 1597.61,86.6468 1601.47,1400.07 1605.32,86.6468 1609.17,1400.07 1613.02,86.6468 1616.87,1400.07 1620.72,86.6468 1624.57,1400.07 1628.42,86.6468 
  1632.28,1400.07 1636.13,86.6468 1639.98,1400.07 1643.83,86.6468 1647.68,1400.07 1651.53,86.6468 1655.38,1400.07 1659.24,86.6468 1663.09,1400.07 1666.94,86.6468 
  1670.79,1400.07 1674.64,86.6468 1678.49,1400.07 1682.34,86.6468 1686.19,1400.07 1690.05,86.6468 1693.9,1400.07 1697.75,86.6468 1701.6,1400.07 1705.45,86.6468 
  1709.3,1400.07 1713.15,86.6468 1717,1400.07 1720.86,86.6468 1724.71,1400.07 1728.56,86.6468 1732.41,1400.07 1736.26,86.6468 1740.11,1400.07 1743.96,86.6468 
  1747.81,1400.07 1751.67,86.6468 1755.52,1400.07 1759.37,86.6468 1763.22,1400.07 1767.07,86.6468 1770.92,1400.07 1774.77,86.6468 1778.63,1400.07 1782.48,86.6468 
  1786.33,1400.07 1790.18,86.6468 1794.03,1400.07 1797.88,86.6468 1801.73,1400.07 1805.58,86.6468 1809.44,1400.07 1813.29,86.6468 1817.14,1400.07 1820.99,86.6468 
  1824.84,1400.07 1828.69,86.6468 1832.54,1400.07 1836.39,86.6468 1840.25,1400.07 1844.1,86.6468 1847.95,1400.07 1851.8,86.6468 1855.65,1400.07 1859.5,86.6468 
  1863.35,1400.07 1867.21,86.6468 1871.06,1400.07 1874.91,86.6468 1878.76,1400.07 1882.61,86.6468 1886.46,1400.07 1890.31,86.6468 1894.16,1400.07 1898.02,86.6468 
  1901.87,1400.07 1905.72,86.6468 1909.57,1400.07 1913.42,86.6468 1917.27,1400.07 1921.12,86.6468 1924.97,1400.07 1928.83,86.6468 1932.68,1400.07 1936.53,86.6468 
  1940.38,1400.07 1944.23,86.6468 1948.08,1400.07 1951.93,86.6468 1955.78,1400.07 1959.64,86.6468 1963.49,1400.07 1967.34,86.6468 1971.19,1400.07 1975.04,86.6468 
  1978.89,1400.07 1982.74,86.6468 1986.6,1400.07 1990.45,86.6468 1994.3,1400.07 1998.15,86.6468 2002,1400.07 2005.85,86.6468 2009.7,1400.07 2013.55,86.6468 
  2017.41,1400.07 2021.26,86.6468 2025.11,1400.07 2028.96,86.6468 2032.81,1400.07 2036.66,86.6468 2040.51,1400.07 2044.36,86.6468 2048.22,1400.07 2052.07,86.6468 
  2055.92,1400.07 2059.77,86.6468 2063.62,1400.07 2067.47,86.6468 2071.32,1400.07 2075.17,86.6468 2079.03,1400.07 2082.88,86.6468 2086.73,1400.07 2090.58,86.6468 
  2094.43,1400.07 2098.28,86.6468 2102.13,1400.07 2105.99,86.6468 2109.84,1400.07 2113.69,86.6468 2117.54,1400.07 2121.39,86.6468 2125.24,1400.07 2129.09,86.6468 
  2132.94,1400.07 2136.8,86.6468 2140.65,1400.07 2144.5,86.6468 2148.35,1400.07 2152.2,86.6468 2156.05,1400.07 2159.9,86.6468 2163.75,1400.07 2167.61,86.6468 
  
  "/>
<polyline clip-path="url(#clip4103)" style="stroke:#e26f46; stroke-width:4; stroke-opacity:1; fill:none" points="
  245.81,86.6468 249.662,1400.07 253.513,86.6468 257.364,1400.07 261.215,86.6468 265.067,1400.07 268.918,86.6468 272.769,1400.07 276.621,86.6468 280.472,1400.07 
  284.323,86.6468 288.174,1400.07 292.026,86.6468 295.877,1400.07 299.728,86.6468 303.58,1400.07 307.431,86.6468 311.282,1400.07 315.134,86.6468 318.985,1400.07 
  322.836,86.6468 326.687,1400.07 330.539,86.6468 334.39,1400.07 338.241,86.6468 342.093,1400.07 345.944,86.6468 349.795,1400.07 353.646,86.6468 357.498,1400.07 
  361.349,86.6468 365.2,1400.07 369.052,86.6468 372.903,1400.07 376.754,86.6468 380.606,1400.07 384.457,86.6468 388.308,1400.07 392.159,86.6468 396.011,1400.07 
  399.862,86.6468 403.713,1400.07 407.565,86.6468 411.416,1400.07 415.267,86.6468 419.118,1400.07 422.97,86.6468 426.821,1400.07 430.672,86.6468 434.524,1400.07 
  438.375,86.6468 442.226,1400.07 446.078,86.6468 449.929,1400.07 453.78,86.6468 457.631,1400.07 461.483,86.6468 465.334,1400.07 469.185,86.6468 473.037,1400.07 
  476.888,86.6468 480.739,1400.07 484.59,86.6468 488.442,1400.07 492.293,86.6468 496.144,1400.07 499.996,86.6468 503.847,1400.07 507.698,86.6468 511.55,1400.07 
  515.401,86.6468 519.252,1400.07 523.103,86.6468 526.955,1400.07 530.806,86.6468 534.657,1400.07 538.509,86.6468 542.36,1400.07 546.211,86.6468 550.062,1400.07 
  553.914,86.6468 557.765,1400.07 561.616,86.6468 565.468,1400.07 569.319,86.6468 573.17,1400.07 577.022,86.6468 580.873,1400.07 584.724,86.6468 588.575,1400.07 
  592.427,86.6468 596.278,1400.07 600.129,86.6468 603.981,1400.07 607.832,86.6468 611.683,1400.07 615.534,86.6468 619.386,1400.07 623.237,86.6468 627.088,1400.07 
  630.94,86.6468 634.791,1400.07 638.642,86.6468 642.494,1400.07 646.345,86.6468 650.196,1400.07 654.047,86.6468 657.899,1400.07 661.75,86.6468 665.601,1400.07 
  669.453,86.6468 673.304,1400.07 677.155,86.6468 681.006,1400.07 684.858,86.6468 688.709,1400.07 692.56,86.6468 696.412,1400.07 700.263,86.6468 704.114,1400.07 
  707.966,86.6468 711.817,1400.07 715.668,86.6468 719.519,1400.07 723.371,86.6468 727.222,1400.07 731.073,86.6468 734.925,1400.07 738.776,86.6468 742.627,1400.07 
  746.478,86.6468 750.33,1400.07 754.181,86.6468 758.032,1400.07 761.884,86.6468 765.735,1400.07 769.586,86.6468 773.438,1400.07 777.289,86.6468 781.14,1400.07 
  784.991,86.6468 788.843,1400.07 792.694,86.6468 796.545,1400.07 800.397,86.6468 804.248,1400.07 808.099,86.6468 811.95,1400.07 815.802,86.6468 819.653,1400.07 
  823.504,86.6468 827.356,1400.07 831.207,86.6468 835.058,1400.07 838.91,86.6468 842.761,1400.07 846.612,86.6468 850.463,1400.07 854.315,86.6468 858.166,1400.07 
  862.017,86.6468 865.869,1400.07 869.72,86.6468 873.571,1400.07 877.422,86.6468 881.274,1400.07 885.125,86.6468 888.976,1400.07 892.828,86.6468 896.679,1400.07 
  900.53,86.6468 904.382,1400.07 908.233,86.6468 912.084,1400.07 915.935,86.6468 919.787,1400.07 923.638,86.6468 927.489,1400.07 931.341,86.6468 935.192,1400.07 
  939.043,86.6468 942.894,1400.07 946.746,86.6468 950.597,1400.07 954.448,86.6468 958.3,1400.07 962.151,86.6468 966.002,1400.07 969.854,86.6468 973.705,1400.07 
  977.556,86.6468 981.407,1400.07 985.259,86.6468 989.11,1400.07 992.961,86.6468 996.813,1400.07 1000.66,86.6468 1004.52,1400.07 1008.37,86.6468 1012.22,1400.07 
  1016.07,86.6468 1019.92,1400.07 1023.77,86.6468 1027.62,1400.07 1031.47,86.6468 1035.33,1400.07 1039.18,86.6468 1043.03,1400.07 1046.88,86.6468 1050.73,1400.07 
  1054.58,86.6468 1058.43,1400.07 1062.28,86.6468 1066.14,1400.07 1069.99,86.6468 1073.84,1400.07 1077.69,86.6468 1081.54,1400.07 1085.39,86.6468 1089.24,1400.07 
  1093.09,86.6468 1096.95,1400.07 1100.8,86.6468 1104.65,1400.07 1108.5,86.6468 1112.35,1400.07 1116.2,86.6468 1120.05,1400.07 1123.91,86.6468 1127.76,1400.07 
  1131.61,86.6468 1135.46,1400.07 1139.31,86.6468 1143.16,1400.07 1147.01,86.6468 1150.86,1400.07 1154.72,86.6468 1158.57,1400.07 1162.42,86.6468 1166.27,1400.07 
  1170.12,86.6468 1173.97,1400.07 1177.82,86.6468 1181.67,1400.07 1185.53,86.6468 1189.38,1400.07 1193.23,86.6468 1197.08,1400.07 1200.93,86.6468 1204.78,1400.07 
  1208.63,86.6468 1212.49,1400.07 1216.34,86.6468 1220.19,1400.07 1224.04,86.6468 1227.89,1400.07 1231.74,86.6468 1235.59,1400.07 1239.44,86.6468 1243.3,1400.07 
  1247.15,86.6468 1251,1400.07 1254.85,86.6468 1258.7,1400.07 1262.55,86.6468 1266.4,1400.07 1270.25,86.6468 1274.11,1400.07 1277.96,86.6468 1281.81,1400.07 
  1285.66,86.6468 1289.51,1400.07 1293.36,86.6468 1297.21,1400.07 1301.06,86.6468 1304.92,1400.07 1308.77,86.6468 1312.62,1400.07 1316.47,86.6468 1320.32,1400.07 
  1324.17,86.6468 1328.02,1400.07 1331.88,86.6468 1335.73,1400.07 1339.58,86.6468 1343.43,1400.07 1347.28,86.6468 1351.13,1400.07 1354.98,86.6468 1358.83,1400.07 
  1362.69,86.6468 1366.54,1400.07 1370.39,86.6468 1374.24,1400.07 1378.09,86.6468 1381.94,1400.07 1385.79,86.6468 1389.64,1400.07 1393.5,86.6468 1397.35,1400.07 
  1401.2,86.6468 1405.05,1400.07 1408.9,86.6468 1412.75,1400.07 1416.6,86.6468 1420.45,1400.07 1424.31,86.6468 1428.16,1400.07 1432.01,86.6468 1435.86,1400.07 
  1439.71,86.6468 1443.56,1400.07 1447.41,86.6468 1451.27,1400.07 1455.12,86.6468 1458.97,1400.07 1462.82,86.6468 1466.67,1400.07 1470.52,86.6468 1474.37,1400.07 
  1478.22,86.6468 1482.08,1400.07 1485.93,86.6468 1489.78,1400.07 1493.63,86.6468 1497.48,1400.07 1501.33,86.6468 1505.18,1400.07 1509.03,86.6468 1512.89,1400.07 
  1516.74,86.6468 1520.59,1400.07 1524.44,86.6468 1528.29,1400.07 1532.14,86.6468 1535.99,1400.07 1539.85,86.6468 1543.7,1400.07 1547.55,86.6468 1551.4,1400.07 
  1555.25,86.6468 1559.1,1400.07 1562.95,86.6468 1566.8,1400.07 1570.66,86.6468 1574.51,1400.07 1578.36,86.6468 1582.21,1400.07 1586.06,86.6468 1589.91,1400.07 
  1593.76,86.6468 1597.61,1400.07 1601.47,86.6468 1605.32,1400.07 1609.17,86.6468 1613.02,1400.07 1616.87,86.6468 1620.72,1400.07 1624.57,86.6468 1628.42,1400.07 
  1632.28,86.6468 1636.13,1400.07 1639.98,86.6468 1643.83,1400.07 1647.68,86.6468 1651.53,1400.07 1655.38,86.6468 1659.24,1400.07 1663.09,86.6468 1666.94,1400.07 
  1670.79,86.6468 1674.64,1400.07 1678.49,86.6468 1682.34,1400.07 1686.19,86.6468 1690.05,1400.07 1693.9,86.6468 1697.75,1400.07 1701.6,86.6468 1705.45,1400.07 
  1709.3,86.6468 1713.15,1400.07 1717,86.6468 1720.86,1400.07 1724.71,86.6468 1728.56,1400.07 1732.41,86.6468 1736.26,1400.07 1740.11,86.6468 1743.96,1400.07 
  1747.81,86.6468 1751.67,1400.07 1755.52,86.6468 1759.37,1400.07 1763.22,86.6468 1767.07,1400.07 1770.92,86.6468 1774.77,1400.07 1778.63,86.6468 1782.48,1400.07 
  1786.33,86.6468 1790.18,1400.07 1794.03,86.6468 1797.88,1400.07 1801.73,86.6468 1805.58,1400.07 1809.44,86.6468 1813.29,1400.07 1817.14,86.6468 1820.99,1400.07 
  1824.84,86.6468 1828.69,1400.07 1832.54,86.6468 1836.39,1400.07 1840.25,86.6468 1844.1,1400.07 1847.95,86.6468 1851.8,1400.07 1855.65,86.6468 1859.5,1400.07 
  1863.35,86.6468 1867.21,1400.07 1871.06,86.6468 1874.91,1400.07 1878.76,86.6468 1882.61,1400.07 1886.46,86.6468 1890.31,1400.07 1894.16,86.6468 1898.02,1400.07 
  1901.87,86.6468 1905.72,1400.07 1909.57,86.6468 1913.42,1400.07 1917.27,86.6468 1921.12,1400.07 1924.97,86.6468 1928.83,1400.07 1932.68,86.6468 1936.53,1400.07 
  1940.38,86.6468 1944.23,1400.07 1948.08,86.6468 1951.93,1400.07 1955.78,86.6468 1959.64,1400.07 1963.49,86.6468 1967.34,1400.07 1971.19,86.6468 1975.04,1400.07 
  1978.89,86.6468 1982.74,1400.07 1986.6,86.6468 1990.45,1400.07 1994.3,86.6468 1998.15,1400.07 2002,86.6468 2005.85,1400.07 2009.7,86.6468 2013.55,1400.07 
  2017.41,86.6468 2021.26,1400.07 2025.11,86.6468 2028.96,1400.07 2032.81,86.6468 2036.66,1400.07 2040.51,86.6468 2044.36,1400.07 2048.22,86.6468 2052.07,1400.07 
  2055.92,86.6468 2059.77,1400.07 2063.62,86.6468 2067.47,1400.07 2071.32,86.6468 2075.17,1400.07 2079.03,86.6468 2082.88,1400.07 2086.73,86.6468 2090.58,1400.07 
  2094.43,86.6468 2098.28,1400.07 2102.13,86.6468 2105.99,1400.07 2109.84,86.6468 2113.69,1400.07 2117.54,86.6468 2121.39,1400.07 2125.24,86.6468 2129.09,1400.07 
  2132.94,86.6468 2136.8,1400.07 2140.65,86.6468 2144.5,1400.07 2148.35,86.6468 2152.2,1400.07 2156.05,86.6468 2159.9,1400.07 2163.75,86.6468 2167.61,1400.07 
  
  "/>
<polygon clip-path="url(#clip4101)" points="
1874.91,306.444 2156.14,306.444 2156.14,125.004 1874.91,125.004 
  " fill="#ffffff" fill-rule="evenodd" fill-opacity="1"/>
<polyline clip-path="url(#clip4101)" style="stroke:#000000; stroke-width:4; stroke-opacity:1; fill:none" points="
  1874.91,306.444 2156.14,306.444 2156.14,125.004 1874.91,125.004 1874.91,306.444 
  "/>
<polyline clip-path="url(#clip4101)" style="stroke:#009af9; stroke-width:4; stroke-opacity:1; fill:none" points="
  1897.95,185.484 2036.19,185.484 
  "/>
<g clip-path="url(#clip4101)">
<text style="fill:#000000; fill-opacity:1; font-family:Arial,Helvetica Neue,Helvetica,sans-serif; font-size:48px; text-anchor:start;" transform="rotate(0, 2059.23, 202.984)" x="2059.23" y="202.984">y1</text>
</g>
<polyline clip-path="url(#clip4101)" style="stroke:#e26f46; stroke-width:4; stroke-opacity:1; fill:none" points="
  1897.95,245.964 2036.19,245.964 
  "/>
<g clip-path="url(#clip4101)">
<text style="fill:#000000; fill-opacity:1; font-family:Arial,Helvetica Neue,Helvetica,sans-serif; font-size:48px; text-anchor:start;" transform="rotate(0, 2059.23, 263.464)" x="2059.23" y="263.464">y2</text>
</g>
</svg>
